<?xml version="1.0" encoding="UTF-8" standalone="no"?><svg xmlns="http://www.w3.org/2000/svg" xmlns:xlink="http://www.w3.org/1999/xlink" clip-rule="evenodd" stroke-miterlimit="4.00" viewBox="0 0 1024 768"><desc>SVG generated by Keynote</desc><defs></defs><g transform="matrix(1.00, 0.00, -0.00, -1.00, 0.0, 768.0)"><path d="M 0.0 768.0 L 1024.0 768.0 L 1024.0 0.0 L 0.0 0.0 Z M 0.0 768.0 " fill="#FEFFFF"></path><text xml:space="preserve" font-family="Helvetica-LightOblique" font-style="italic" font-size="36.0" fill="#493445" transform="matrix(1.00, 0.00, -0.00, -1.00, 278.0, 452.0)">“</text><text xml:space="preserve" font-family="Helvetica-LightOblique" font-style="italic" font-size="36.0" fill="#493445" transform="matrix(1.00, 0.00, -0.00, -1.00, 292.0, 452.0)">S</text><text xml:space="preserve" font-family="Helvetica-LightOblique" font-style="italic" font-size="36.0" fill="#493445" transform="matrix(1.00, 0.00, -0.00, -1.00, 314.0, 452.0)">e</text><text xml:space="preserve" font-family="Helvetica-LightOblique" font-style="italic" font-size="36.0" fill="#493445" transform="matrix(1.00, 0.00, -0.00, -1.00, 334.0, 452.0)"> </text><text xml:space="preserve" font-family="Helvetica-LightOblique" font-style="italic" font-size="36.0" fill="#493445" transform="matrix(1.00, 0.00, -0.00, -1.00, 344.0, 452.0)">v</text><text xml:space="preserve" font-family="Helvetica-LightOblique" font-style="italic" font-size="36.0" fill="#493445" transform="matrix(1.00, 0.00, -0.00, -1.00, 362.0, 452.0)">o</text><text xml:space="preserve" font-family="Helvetica-LightOblique" font-style="italic" font-size="36.0" fill="#493445" transform="matrix(1.00, 0.00, -0.00, -1.00, 382.0, 452.0)">c</text><text xml:space="preserve" font-family="Helvetica-LightOblique" font-style="italic" font-size="36.0" fill="#493445" transform="matrix(1.00, 0.00, -0.00, -1.00, 402.1, 452.0)">ê</text><text xml:space="preserve" font-family="Helvetica-LightOblique" font-style="italic" font-size="36.0" fill="#493445" transform="matrix(1.00, 0.00, -0.00, -1.00, 422.1, 452.0)"> </text><text xml:space="preserve" font-family="Helvetica-LightOblique" font-style="italic" font-size="36.0" fill="#493445" transform="matrix(1.00, 0.00, -0.00, -1.00, 432.1, 452.0)">s</text><text xml:space="preserve" font-family="Helvetica-LightOblique" font-style="italic" font-size="36.0" fill="#493445" transform="matrix(1.00, 0.00, -0.00, -1.00, 450.1, 452.0)">e</text><text xml:space="preserve" font-family="Helvetica-LightOblique" font-style="italic" font-size="36.0" fill="#493445" transform="matrix(1.00, 0.00, -0.00, -1.00, 470.1, 452.0)"> </text><text xml:space="preserve" font-family="Helvetica-LightOblique" font-style="italic" font-size="36.0" fill="#493445" transform="matrix(1.00, 0.00, -0.00, -1.00, 480.1, 452.0)">p</text><text xml:space="preserve" font-family="Helvetica-LightOblique" font-style="italic" font-size="36.0" fill="#493445" transform="matrix(1.00, 0.00, -0.00, -1.00, 502.1, 452.0)">r</text><text xml:space="preserve" font-family="Helvetica-LightOblique" font-style="italic" font-size="36.0" fill="#493445" transform="matrix(1.00, 0.00, -0.00, -1.00, 513.4, 452.0)">e</text><text xml:space="preserve" font-family="Helvetica-LightOblique" font-style="italic" font-size="36.0" fill="#493445" transform="matrix(1.00, 0.00, -0.00, -1.00, 533.5, 452.0)">o</text><text xml:space="preserve" font-family="Helvetica-LightOblique" font-style="italic" font-size="36.0" fill="#493445" transform="matrix(1.00, 0.00, -0.00, -1.00, 553.5, 452.0)">c</text><text xml:space="preserve" font-family="Helvetica-LightOblique" font-style="italic" font-size="36.0" fill="#493445" transform="matrix(1.00, 0.00, -0.00, -1.00, 573.5, 452.0)">u</text><text xml:space="preserve" font-family="Helvetica-LightOblique" font-style="italic" font-size="36.0" fill="#493445" transform="matrix(1.00, 0.00, -0.00, -1.00, 593.5, 452.0)">p</text><text xml:space="preserve" font-family="Helvetica-LightOblique" font-style="italic" font-size="36.0" fill="#493445" transform="matrix(1.00, 0.00, -0.00, -1.00, 615.5, 452.0)">a</text><text xml:space="preserve" font-family="Helvetica-LightOblique" font-style="italic" font-size="36.0" fill="#493445" transform="matrix(1.00, 0.00, -0.00, -1.00, 635.5, 452.0)"> </text><text xml:space="preserve" font-family="Helvetica-LightOblique" font-style="italic" font-size="36.0" fill="#493445" transform="matrix(1.00, 0.00, -0.00, -1.00, 645.5, 452.0)">c</text><text xml:space="preserve" font-family="Helvetica-LightOblique" font-style="italic" font-size="36.0" fill="#493445" transform="matrix(1.00, 0.00, -0.00, -1.00, 665.5, 452.0)">o</text><text xml:space="preserve" font-family="Helvetica-LightOblique" font-style="italic" font-size="36.0" fill="#493445" transform="matrix(1.00, 0.00, -0.00, -1.00, 685.6, 452.0)">m</text><text xml:space="preserve" font-family="Helvetica-LightOblique" font-style="italic" font-size="36.0" fill="#493445" transform="matrix(1.00, 0.00, -0.00, -1.00, 715.5, 452.0)"> </text><text xml:space="preserve" font-family="Helvetica-LightOblique" font-style="italic" font-size="36.0" fill="#493445" transform="matrix(1.00, 0.00, -0.00, -1.00, 725.6, 452.0)">a</text><text xml:space="preserve" font-family="Helvetica-LightOblique" font-style="italic" font-size="36.0" fill="#493445" transform="matrix(1.00, 0.00, -0.00, -1.00, 745.6, 452.0)"> </text><text xml:space="preserve" font-family="Helvetica-LightOblique" font-style="italic" font-size="36.0" fill="#493445" transform="matrix(1.00, 0.00, -0.00, -1.00, 755.6, 452.0)"> </text><text xml:space="preserve" font-family="Helvetica-LightOblique" font-style="italic" font-size="36.0" fill="#493445" transform="matrix(1.00, 0.00, -0.00, -1.00, 323.0, 409.0)">e</text><text xml:space="preserve" font-family="Helvetica-LightOblique" font-style="italic" font-size="36.0" fill="#493445" transform="matrix(1.00, 0.00, -0.00, -1.00, 343.0, 409.0)">x</text><text xml:space="preserve" font-family="Helvetica-LightOblique" font-style="italic" font-size="36.0" fill="#493445" transform="matrix(1.00, 0.00, -0.00, -1.00, 361.0, 409.0)">p</text><text xml:space="preserve" font-family="Helvetica-LightOblique" font-style="italic" font-size="36.0" fill="#493445" transform="matrix(1.00, 0.00, -0.00, -1.00, 383.0, 409.0)">e</text><text xml:space="preserve" font-family="Helvetica-LightOblique" font-style="italic" font-size="36.0" fill="#493445" transform="matrix(1.00, 0.00, -0.00, -1.00, 403.0, 409.0)">r</text><text xml:space="preserve" font-family="Helvetica-LightOblique" font-style="italic" font-size="36.0" fill="#493445" transform="matrix(1.00, 0.00, -0.00, -1.00, 415.0, 409.0)">i</text><text xml:space="preserve" font-family="Helvetica-LightOblique" font-style="italic" font-size="36.0" fill="#493445" transform="matrix(1.00, 0.00, -0.00, -1.00, 423.0, 409.0)">ê</text><text xml:space="preserve" font-family="Helvetica-LightOblique" font-style="italic" font-size="36.0" fill="#493445" transform="matrix(1.00, 0.00, -0.00, -1.00, 443.0, 409.0)">n</text><text xml:space="preserve" font-family="Helvetica-LightOblique" font-style="italic" font-size="36.0" fill="#493445" transform="matrix(1.00, 0.00, -0.00, -1.00, 463.0, 409.0)">c</text><text xml:space="preserve" font-family="Helvetica-LightOblique" font-style="italic" font-size="36.0" fill="#493445" transform="matrix(1.00, 0.00, -0.00, -1.00, 483.1, 409.0)">i</text><text xml:space="preserve" font-family="Helvetica-LightOblique" font-style="italic" font-size="36.0" fill="#493445" transform="matrix(1.00, 0.00, -0.00, -1.00, 491.0, 409.0)">a</text><text xml:space="preserve" font-family="Helvetica-LightOblique" font-style="italic" font-size="36.0" fill="#493445" transform="matrix(1.00, 0.00, -0.00, -1.00, 511.1, 409.0)"> </text><text xml:space="preserve" font-family="Helvetica-LightOblique" font-style="italic" font-size="36.0" fill="#493445" transform="matrix(1.00, 0.00, -0.00, -1.00, 521.1, 409.0)">d</text><text xml:space="preserve" font-family="Helvetica-LightOblique" font-style="italic" font-size="36.0" fill="#493445" transform="matrix(1.00, 0.00, -0.00, -1.00, 543.1, 409.0)">o</text><text xml:space="preserve" font-family="Helvetica-LightOblique" font-style="italic" font-size="36.0" fill="#493445" transform="matrix(1.00, 0.00, -0.00, -1.00, 563.1, 409.0)"> </text><text xml:space="preserve" font-family="Helvetica-LightOblique" font-style="italic" font-size="36.0" fill="#493445" transform="matrix(1.00, 0.00, -0.00, -1.00, 573.1, 409.0)">u</text><text xml:space="preserve" font-family="Helvetica-LightOblique" font-style="italic" font-size="36.0" fill="#493445" transform="matrix(1.00, 0.00, -0.00, -1.00, 593.1, 409.0)">s</text><text xml:space="preserve" font-family="Helvetica-LightOblique" font-style="italic" font-size="36.0" fill="#493445" transform="matrix(1.00, 0.00, -0.00, -1.00, 611.1, 409.0)">u</text><text xml:space="preserve" font-family="Helvetica-LightOblique" font-style="italic" font-size="36.0" fill="#493445" transform="matrix(1.00, 0.00, -0.00, -1.00, 631.1, 409.0)">á</text><text xml:space="preserve" font-family="Helvetica-LightOblique" font-style="italic" font-size="36.0" fill="#493445" transform="matrix(1.00, 0.00, -0.00, -1.00, 651.1, 409.0)">r</text><text xml:space="preserve" font-family="Helvetica-LightOblique" font-style="italic" font-size="36.0" fill="#493445" transform="matrix(1.00, 0.00, -0.00, -1.00, 663.1, 409.0)">i</text><text xml:space="preserve" font-family="Helvetica-LightOblique" font-style="italic" font-size="36.0" fill="#493445" transform="matrix(1.00, 0.00, -0.00, -1.00, 671.1, 409.0)">o</text><text xml:space="preserve" font-family="Helvetica-LightOblique" font-style="italic" font-size="36.0" fill="#493445" transform="matrix(1.00, 0.00, -0.00, -1.00, 691.1, 409.0)">,</text><text xml:space="preserve" font-family="Helvetica-LightOblique" font-style="italic" font-size="36.0" fill="#493445" transform="matrix(1.00, 0.00, -0.00, -1.00, 701.1, 409.0)"> </text><text xml:space="preserve" font-family="Helvetica-LightOblique" font-style="italic" font-size="36.0" fill="#493445" transform="matrix(1.00, 0.00, -0.00, -1.00, 711.2, 409.0)"> </text><text xml:space="preserve" font-family="Helvetica-LightOblique" font-style="italic" font-size="36.0" fill="#493445" transform="matrix(1.00, 0.00, -0.00, -1.00, 275.0, 366.0)">v</text><text xml:space="preserve" font-family="Helvetica-LightOblique" font-style="italic" font-size="36.0" fill="#493445" transform="matrix(1.00, 0.00, -0.00, -1.00, 293.0, 366.0)">o</text><text xml:space="preserve" font-family="Helvetica-LightOblique" font-style="italic" font-size="36.0" fill="#493445" transform="matrix(1.00, 0.00, -0.00, -1.00, 313.0, 366.0)">c</text><text xml:space="preserve" font-family="Helvetica-LightOblique" font-style="italic" font-size="36.0" fill="#493445" transform="matrix(1.00, 0.00, -0.00, -1.00, 333.0, 366.0)">ê</text><text xml:space="preserve" font-family="Helvetica-LightOblique" font-style="italic" font-size="36.0" fill="#493445" transform="matrix(1.00, 0.00, -0.00, -1.00, 353.0, 366.0)"> </text><text xml:space="preserve" font-family="Helvetica-LightOblique" font-style="italic" font-size="36.0" fill="#493445" transform="matrix(1.00, 0.00, -0.00, -1.00, 363.1, 366.0)">d</text><text xml:space="preserve" font-family="Helvetica-LightOblique" font-style="italic" font-size="36.0" fill="#493445" transform="matrix(1.00, 0.00, -0.00, -1.00, 385.1, 366.0)">e</text><text xml:space="preserve" font-family="Helvetica-LightOblique" font-style="italic" font-size="36.0" fill="#493445" transform="matrix(1.00, 0.00, -0.00, -1.00, 405.1, 366.0)">v</text><text xml:space="preserve" font-family="Helvetica-LightOblique" font-style="italic" font-size="36.0" fill="#493445" transform="matrix(1.00, 0.00, -0.00, -1.00, 423.1, 366.0)">e</text><text xml:space="preserve" font-family="Helvetica-LightOblique" font-style="italic" font-size="36.0" fill="#493445" transform="matrix(1.00, 0.00, -0.00, -1.00, 443.1, 366.0)"> </text><text xml:space="preserve" font-family="Helvetica-LightOblique" font-style="italic" font-size="36.0" fill="#493445" transform="matrix(1.00, 0.00, -0.00, -1.00, 453.1, 366.0)">s</text><text xml:space="preserve" font-family="Helvetica-LightOblique" font-style="italic" font-size="36.0" fill="#493445" transform="matrix(1.00, 0.00, -0.00, -1.00, 471.1, 366.0)">e</text><text xml:space="preserve" font-family="Helvetica-LightOblique" font-style="italic" font-size="36.0" fill="#493445" transform="matrix(1.00, 0.00, -0.00, -1.00, 491.1, 366.0)"> </text><text xml:space="preserve" font-family="Helvetica-LightOblique" font-style="italic" font-size="36.0" fill="#493445" transform="matrix(1.00, 0.00, -0.00, -1.00, 501.1, 366.0)">p</text><text xml:space="preserve" font-family="Helvetica-LightOblique" font-style="italic" font-size="36.0" fill="#493445" transform="matrix(1.00, 0.00, -0.00, -1.00, 523.1, 366.0)">r</text><text xml:space="preserve" font-family="Helvetica-LightOblique" font-style="italic" font-size="36.0" fill="#493445" transform="matrix(1.00, 0.00, -0.00, -1.00, 534.5, 366.0)">e</text><text xml:space="preserve" font-family="Helvetica-LightOblique" font-style="italic" font-size="36.0" fill="#493445" transform="matrix(1.00, 0.00, -0.00, -1.00, 554.5, 366.0)">o</text><text xml:space="preserve" font-family="Helvetica-LightOblique" font-style="italic" font-size="36.0" fill="#493445" transform="matrix(1.00, 0.00, -0.00, -1.00, 574.5, 366.0)">c</text><text xml:space="preserve" font-family="Helvetica-LightOblique" font-style="italic" font-size="36.0" fill="#493445" transform="matrix(1.00, 0.00, -0.00, -1.00, 594.5, 366.0)">u</text><text xml:space="preserve" font-family="Helvetica-LightOblique" font-style="italic" font-size="36.0" fill="#493445" transform="matrix(1.00, 0.00, -0.00, -1.00, 614.5, 366.0)">p</text><text xml:space="preserve" font-family="Helvetica-LightOblique" font-style="italic" font-size="36.0" fill="#493445" transform="matrix(1.00, 0.00, -0.00, -1.00, 636.5, 366.0)">a</text><text xml:space="preserve" font-family="Helvetica-LightOblique" font-style="italic" font-size="36.0" fill="#493445" transform="matrix(1.00, 0.00, -0.00, -1.00, 656.5, 366.0)">r</text><text xml:space="preserve" font-family="Helvetica-LightOblique" font-style="italic" font-size="36.0" fill="#493445" transform="matrix(1.00, 0.00, -0.00, -1.00, 668.5, 366.0)"> </text><text xml:space="preserve" font-family="Helvetica-LightOblique" font-style="italic" font-size="36.0" fill="#493445" transform="matrix(1.00, 0.00, -0.00, -1.00, 678.5, 366.0)">c</text><text xml:space="preserve" font-family="Helvetica-LightOblique" font-style="italic" font-size="36.0" fill="#493445" transform="matrix(1.00, 0.00, -0.00, -1.00, 698.5, 366.0)">o</text><text xml:space="preserve" font-family="Helvetica-LightOblique" font-style="italic" font-size="36.0" fill="#493445" transform="matrix(1.00, 0.00, -0.00, -1.00, 718.6, 366.0)">m</text><text xml:space="preserve" font-family="Helvetica-LightOblique" font-style="italic" font-size="36.0" fill="#493445" transform="matrix(1.00, 0.00, -0.00, -1.00, 748.5, 366.0)"> </text><text xml:space="preserve" font-family="Helvetica-LightOblique" font-style="italic" font-size="36.0" fill="#493445" transform="matrix(1.00, 0.00, -0.00, -1.00, 368.0, 323.0)"> </text><text xml:space="preserve" font-family="Helvetica-LightOblique" font-style="italic" font-size="36.0" fill="#493445" transform="matrix(1.00, 0.00, -0.00, -1.00, 378.0, 323.0)">m</text><text xml:space="preserve" font-family="Helvetica-LightOblique" font-style="italic" font-size="36.0" fill="#493445" transform="matrix(1.00, 0.00, -0.00, -1.00, 408.0, 323.0)">i</text><text xml:space="preserve" font-family="Helvetica-LightOblique" font-style="italic" font-size="36.0" fill="#493445" transform="matrix(1.00, 0.00, -0.00, -1.00, 416.0, 323.0)">c</text><text xml:space="preserve" font-family="Helvetica-LightOblique" font-style="italic" font-size="36.0" fill="#493445" transform="matrix(1.00, 0.00, -0.00, -1.00, 436.0, 323.0)">r</text><text xml:space="preserve" font-family="Helvetica-LightOblique" font-style="italic" font-size="36.0" fill="#493445" transform="matrix(1.00, 0.00, -0.00, -1.00, 447.3, 323.0)">o</text><text xml:space="preserve" font-family="Helvetica-LightOblique" font-style="italic" font-size="36.0" fill="#493445" transform="matrix(1.00, 0.00, -0.00, -1.00, 467.4, 323.0)">i</text><text xml:space="preserve" font-family="Helvetica-LightOblique" font-style="italic" font-size="36.0" fill="#493445" transform="matrix(1.00, 0.00, -0.00, -1.00, 475.4, 323.0)">n</text><text xml:space="preserve" font-family="Helvetica-LightOblique" font-style="italic" font-size="36.0" fill="#493445" transform="matrix(1.00, 0.00, -0.00, -1.00, 495.4, 323.0)">t</text><text xml:space="preserve" font-family="Helvetica-LightOblique" font-style="italic" font-size="36.0" fill="#493445" transform="matrix(1.00, 0.00, -0.00, -1.00, 505.4, 323.0)">e</text><text xml:space="preserve" font-family="Helvetica-LightOblique" font-style="italic" font-size="36.0" fill="#493445" transform="matrix(1.00, 0.00, -0.00, -1.00, 525.4, 323.0)">r</text><text xml:space="preserve" font-family="Helvetica-LightOblique" font-style="italic" font-size="36.0" fill="#493445" transform="matrix(1.00, 0.00, -0.00, -1.00, 537.4, 323.0)">a</text><text xml:space="preserve" font-family="Helvetica-LightOblique" font-style="italic" font-size="36.0" fill="#493445" transform="matrix(1.00, 0.00, -0.00, -1.00, 557.4, 323.0)">ç</text><text xml:space="preserve" font-family="Helvetica-LightOblique" font-style="italic" font-size="36.0" fill="#493445" transform="matrix(1.00, 0.00, -0.00, -1.00, 577.4, 323.0)">õ</text><text xml:space="preserve" font-family="Helvetica-LightOblique" font-style="italic" font-size="36.0" fill="#493445" transform="matrix(1.00, 0.00, -0.00, -1.00, 597.4, 323.0)">e</text><text xml:space="preserve" font-family="Helvetica-LightOblique" font-style="italic" font-size="36.0" fill="#493445" transform="matrix(1.00, 0.00, -0.00, -1.00, 617.4, 323.0)">s</text><text xml:space="preserve" font-family="Helvetica-LightOblique" font-style="italic" font-size="36.0" fill="#493445" transform="matrix(1.00, 0.00, -0.00, -1.00, 635.4, 323.0)">.</text><text xml:space="preserve" font-family="Helvetica-LightOblique" font-style="italic" font-size="36.0" fill="#493445" transform="matrix(1.00, 0.00, -0.00, -1.00, 645.5, 323.0)">"</text><text xml:space="preserve" font-family="Helvetica-Light" font-size="24.0" fill="#493445" transform="matrix(1.00, 0.00, -0.00, -1.00, 440.0, 249.0)">b</text><text xml:space="preserve" font-family="Helvetica-Light" font-size="24.0" fill="#493445" transform="matrix(1.00, 0.00, -0.00, -1.00, 454.7, 249.0)">y</text><text xml:space="preserve" font-family="Helvetica-Light" font-size="24.0" fill="#493445" transform="matrix(1.00, 0.00, -0.00, -1.00, 466.7, 249.0)"> </text><text xml:space="preserve" font-family="Helvetica-Light" font-size="24.0" fill="#493445" transform="matrix(1.00, 0.00, -0.00, -1.00, 473.3, 249.0)">D</text><text xml:space="preserve" font-family="Helvetica-Light" font-size="24.0" fill="#493445" transform="matrix(1.00, 0.00, -0.00, -1.00, 490.7, 249.0)">a</text><text xml:space="preserve" font-family="Helvetica-Light" font-size="24.0" fill="#493445" transform="matrix(1.00, 0.00, -0.00, -1.00, 504.0, 249.0)">n</text><text xml:space="preserve" font-family="Helvetica-Light" font-size="24.0" fill="#493445" transform="matrix(1.00, 0.00, -0.00, -1.00, 517.4, 249.0)"> </text><text xml:space="preserve" font-family="Helvetica-Light" font-size="24.0" fill="#493445" transform="matrix(1.00, 0.00, -0.00, -1.00, 524.0, 249.0)">S</text><text xml:space="preserve" font-family="Helvetica-Light" font-size="24.0" fill="#493445" transform="matrix(1.00, 0.00, -0.00, -1.00, 538.7, 249.0)">a</text><text xml:space="preserve" font-family="Helvetica-Light" font-size="24.0" fill="#493445" transform="matrix(1.00, 0.00, -0.00, -1.00, 552.0, 249.0)">f</text><text xml:space="preserve" font-family="Helvetica-Light" font-size="24.0" fill="#493445" transform="matrix(1.00, 0.00, -0.00, -1.00, 558.3, 249.0)">f</text><text xml:space="preserve" font-family="Helvetica-Light" font-size="24.0" fill="#493445" transform="matrix(1.00, 0.00, -0.00, -1.00, 564.9, 249.0)">e</text><text xml:space="preserve" font-family="Helvetica-Light" font-size="24.0" fill="#493445" transform="matrix(1.00, 0.00, -0.00, -1.00, 578.3, 249.0)">r</text><g><clipPath id="clip-710"><path d="M 0.0 667.0 L 620.0 667.0 L 620.0 768.0 L 0.0 768.0 Z M 0.0 667.0 "></path></clipPath><g clip-path="url(#clip-710)"><text xml:space="preserve" font-family="SourceSansPro-Regular" font-size="24.0" fill="#5C4658" transform="matrix(1.00, 0.00, -0.00, -1.00, 130.0, 709.0)">C</text><text xml:space="preserve" font-family="SourceSansPro-Regular" font-size="24.0" fill="#5C4658" transform="matrix(1.00, 0.00, -0.00, -1.00, 143.7, 709.0)">r</text><text xml:space="preserve" font-family="SourceSansPro-Regular" font-size="24.0" fill="#5C4658" transform="matrix(1.00, 0.00, -0.00, -1.00, 152.0, 709.0)">i</text><text xml:space="preserve" font-family="SourceSansPro-Regular" font-size="24.0" fill="#5C4658" transform="matrix(1.00, 0.00, -0.00, -1.00, 157.9, 709.0)">a</text><text xml:space="preserve" font-family="SourceSansPro-Regular" font-size="24.0" fill="#5C4658" transform="matrix(1.00, 0.00, -0.00, -1.00, 170.2, 709.0)">n</text><text xml:space="preserve" font-family="SourceSansPro-Regular" font-size="24.0" fill="#5C4658" transform="matrix(1.00, 0.00, -0.00, -1.00, 183.4, 709.0)">d</text><text xml:space="preserve" font-family="SourceSansPro-Regular" font-size="24.0" fill="#5C4658" transform="matrix(1.00, 0.00, -0.00, -1.00, 196.7, 709.0)">o</text><text xml:space="preserve" font-family="SourceSansPro-Regular" font-size="24.0" fill="#5C4658" transform="matrix(1.00, 0.00, -0.00, -1.00, 209.7, 709.0)"> </text><text xml:space="preserve" font-family="SourceSansPro-Regular" font-size="24.0" fill="#5C4658" transform="matrix(1.00, 0.00, -0.00, -1.00, 214.5, 709.0)">m</text><text xml:space="preserve" font-family="SourceSansPro-Regular" font-size="24.0" fill="#5C4658" transform="matrix(1.00, 0.00, -0.00, -1.00, 234.4, 709.0)">i</text><text xml:space="preserve" font-family="SourceSansPro-Regular" font-size="24.0" fill="#5C4658" transform="matrix(1.00, 0.00, -0.00, -1.00, 240.3, 709.0)">c</text><text xml:space="preserve" font-family="SourceSansPro-Regular" font-size="24.0" fill="#5C4658" transform="matrix(1.00, 0.00, -0.00, -1.00, 251.3, 709.0)">r</text><text xml:space="preserve" font-family="SourceSansPro-Regular" font-size="24.0" fill="#5C4658" transform="matrix(1.00, 0.00, -0.00, -1.00, 259.6, 709.0)">o</text><text xml:space="preserve" font-family="SourceSansPro-Regular" font-size="24.0" fill="#5C4658" transform="matrix(1.00, 0.00, -0.00, -1.00, 272.6, 709.0)">i</text><text xml:space="preserve" font-family="SourceSansPro-Regular" font-size="24.0" fill="#5C4658" transform="matrix(1.00, 0.00, -0.00, -1.00, 278.5, 709.0)">n</text><text xml:space="preserve" font-family="SourceSansPro-Regular" font-size="24.0" fill="#5C4658" transform="matrix(1.00, 0.00, -0.00, -1.00, 291.6, 709.0)">t</text><text xml:space="preserve" font-family="SourceSansPro-Regular" font-size="24.0" fill="#5C4658" transform="matrix(1.00, 0.00, -0.00, -1.00, 299.8, 709.0)">e</text><text xml:space="preserve" font-family="SourceSansPro-Regular" font-size="24.0" fill="#5C4658" transform="matrix(1.00, 0.00, -0.00, -1.00, 311.7, 709.0)">r</text><text xml:space="preserve" font-family="SourceSansPro-Regular" font-size="24.0" fill="#5C4658" transform="matrix(1.00, 0.00, -0.00, -1.00, 320.0, 709.0)">a</text><text xml:space="preserve" font-family="SourceSansPro-Regular" font-size="24.0" fill="#5C4658" transform="matrix(1.00, 0.00, -0.00, -1.00, 332.3, 709.0)">ç</text><text xml:space="preserve" font-family="SourceSansPro-Regular" font-size="24.0" fill="#5C4658" transform="matrix(1.00, 0.00, -0.00, -1.00, 343.2, 709.0)">õ</text><text xml:space="preserve" font-family="SourceSansPro-Regular" font-size="24.0" fill="#5C4658" transform="matrix(1.00, 0.00, -0.00, -1.00, 356.2, 709.0)">e</text><text xml:space="preserve" font-family="SourceSansPro-Regular" font-size="24.0" fill="#5C4658" transform="matrix(1.00, 0.00, -0.00, -1.00, 368.1, 709.0)">s</text><text xml:space="preserve" font-family="SourceSansPro-Regular" font-size="24.0" fill="#5C4658" transform="matrix(1.00, 0.00, -0.00, -1.00, 378.2, 709.0)"> </text><text xml:space="preserve" font-family="SourceSansPro-Regular" font-size="24.0" fill="#5C4658" transform="matrix(1.00, 0.00, -0.00, -1.00, 383.0, 709.0)">c</text><text xml:space="preserve" font-family="SourceSansPro-Regular" font-size="24.0" fill="#5C4658" transform="matrix(1.00, 0.00, -0.00, -1.00, 394.0, 709.0)">o</text><text xml:space="preserve" font-family="SourceSansPro-Regular" font-size="24.0" fill="#5C4658" transform="matrix(1.00, 0.00, -0.00, -1.00, 407.0, 709.0)">m</text><text xml:space="preserve" font-family="SourceSansPro-Regular" font-size="24.0" fill="#5C4658" transform="matrix(1.00, 0.00, -0.00, -1.00, 426.9, 709.0)"> </text><text xml:space="preserve" font-family="SourceSansPro-Regular" font-size="24.0" fill="#5C4658" transform="matrix(1.00, 0.00, -0.00, -1.00, 431.7, 709.0)">J</text><text xml:space="preserve" font-family="SourceSansPro-Regular" font-size="24.0" fill="#5C4658" transform="matrix(1.00, 0.00, -0.00, -1.00, 443.2, 709.0)">a</text><text xml:space="preserve" font-family="SourceSansPro-Regular" font-size="24.0" fill="#5C4658" transform="matrix(1.00, 0.00, -0.00, -1.00, 455.5, 709.0)">v</text><text xml:space="preserve" font-family="SourceSansPro-Regular" font-size="24.0" fill="#5C4658" transform="matrix(1.00, 0.00, -0.00, -1.00, 466.7, 709.0)">a</text><text xml:space="preserve" font-family="SourceSansPro-Regular" font-size="24.0" fill="#5C4658" transform="matrix(1.00, 0.00, -0.00, -1.00, 479.0, 709.0)">S</text><text xml:space="preserve" font-family="SourceSansPro-Regular" font-size="24.0" fill="#5C4658" transform="matrix(1.00, 0.00, -0.00, -1.00, 491.8, 709.0)">c</text><text xml:space="preserve" font-family="SourceSansPro-Regular" font-size="24.0" fill="#5C4658" transform="matrix(1.00, 0.00, -0.00, -1.00, 502.8, 709.0)">r</text><text xml:space="preserve" font-family="SourceSansPro-Regular" font-size="24.0" fill="#5C4658" transform="matrix(1.00, 0.00, -0.00, -1.00, 511.1, 709.0)">i</text><text xml:space="preserve" font-family="SourceSansPro-Regular" font-size="24.0" fill="#5C4658" transform="matrix(1.00, 0.00, -0.00, -1.00, 517.0, 709.0)">p</text><text xml:space="preserve" font-family="SourceSansPro-Regular" font-size="24.0" fill="#5C4658" transform="matrix(1.00, 0.00, -0.00, -1.00, 530.3, 709.0)">t</text><text xml:space="preserve" font-family="SourceSansPro-Regular" font-size="24.0" fill="#5C4658" transform="matrix(1.00, 0.00, -0.00, -1.00, 538.5, 709.0)"> </text><text xml:space="preserve" font-family="SourceSansPro-Regular" font-size="24.0" fill="#5C4658" transform="matrix(1.00, 0.00, -0.00, -1.00, 543.3, 709.0)">s</text><text xml:space="preserve" font-family="SourceSansPro-Regular" font-size="24.0" fill="#5C4658" transform="matrix(1.00, 0.00, -0.00, -1.00, 553.4, 709.0)">i</text><text xml:space="preserve" font-family="SourceSansPro-Regular" font-size="24.0" fill="#5C4658" transform="matrix(1.00, 0.00, -0.00, -1.00, 559.3, 709.0)">m</text><text xml:space="preserve" font-family="SourceSansPro-Regular" font-size="24.0" fill="#5C4658" transform="matrix(1.00, 0.00, -0.00, -1.00, 579.2, 709.0)">p</text><text xml:space="preserve" font-family="SourceSansPro-Regular" font-size="24.0" fill="#5C4658" transform="matrix(1.00, 0.00, -0.00, -1.00, 592.5, 709.0)">l</text><text xml:space="preserve" font-family="SourceSansPro-Regular" font-size="24.0" fill="#5C4658" transform="matrix(1.00, 0.00, -0.00, -1.00, 598.6, 709.0)">e</text><text xml:space="preserve" font-family="SourceSansPro-Regular" font-size="24.0" fill="#5C4658" transform="matrix(1.00, 0.00, -0.00, -1.00, 610.5, 709.0)">s</text></g></g><g><clipPath id="clip-711"><path d="M 0.0 767.9 L 100.0 767.9 L 100.0 667.9 L 0.0 667.9 L 0.0 767.9 Z M 0.0 767.9 "></path></clipPath><g clip-path="url(#clip-711)"><g><clipPath id="clip-712"><path d="M 0.0 667.0 L 620.0 667.0 L 620.0 768.0 L 0.0 768.0 Z M 0.0 667.0 "></path></clipPath><g clip-path="url(#clip-712)"><path d="M -5.0 772.9 L 105.0 772.9 L 105.0 662.9 L -5.0 662.9 Z M -5.0 772.9 " fill="#2B8DFF"></path></g></g></g></g><g><clipPath id="clip-713"><path d="M 0.0 667.0 L 620.0 667.0 L 620.0 768.0 L 0.0 768.0 Z M 0.0 667.0 "></path></clipPath><g clip-path="url(#clip-713)"><text xml:space="preserve" font-family="HelveticaNeue-Bold" font-weight="bold" font-size="30.8" fill="#FEFFFF" transform="matrix(1.00, 0.00, -0.00, -1.00, 14.4, 706.5)">F</text><text xml:space="preserve" font-family="HelveticaNeue-Bold" font-weight="bold" font-size="30.8" fill="#FEFFFF" transform="matrix(1.00, 0.00, -0.00, -1.00, 30.9, 706.5)">r</text><text xml:space="preserve" font-family="HelveticaNeue-Bold" font-weight="bold" font-size="30.8" fill="#FEFFFF" transform="matrix(1.00, 0.00, -0.00, -1.00, 40.6, 706.5)">o</text><text xml:space="preserve" font-family="HelveticaNeue-Bold" font-weight="bold" font-size="30.8" fill="#FEFFFF" transform="matrix(1.00, 0.00, -0.00, -1.00, 57.7, 706.5)">n</text><text xml:space="preserve" font-family="HelveticaNeue-Bold" font-weight="bold" font-size="30.8" fill="#FEFFFF" transform="matrix(1.00, 0.00, -0.00, -1.00, 74.2, 706.5)">t</text><text xml:space="preserve" font-family="HelveticaNeue-Bold" font-weight="bold" font-size="30.8" fill="#FEFFFF" transform="matrix(1.00, 0.00, -0.00, -1.00, 83.4, 706.5)"> </text></g></g></g></svg>