<?xml version="1.0" encoding="UTF-8" standalone="no"?><svg xmlns="http://www.w3.org/2000/svg" xmlns:xlink="http://www.w3.org/1999/xlink" clip-rule="evenodd" stroke-miterlimit="4.00" viewBox="0 0 1024 768"><desc>SVG generated by Keynote</desc><defs></defs><g transform="matrix(1.00, 0.00, -0.00, -1.00, 0.0, 768.0)"><path d="M 0.0 768.0 L 1024.0 768.0 L 1024.0 0.0 L 0.0 0.0 Z M 0.0 768.0 " fill="#FEFFFF"></path><text xml:space="preserve" font-family="Helvetica-LightOblique" font-style="italic" font-size="36.0" fill="#493445" transform="matrix(1.00, 0.00, -0.00, -1.00, 231.0, 446.0)">T</text><text xml:space="preserve" font-family="Helvetica-LightOblique" font-style="italic" font-size="36.0" fill="#493445" transform="matrix(1.00, 0.00, -0.00, -1.00, 247.7, 446.0)">r</text><text xml:space="preserve" font-family="Helvetica-LightOblique" font-style="italic" font-size="36.0" fill="#493445" transform="matrix(1.00, 0.00, -0.00, -1.00, 259.7, 446.0)">i</text><text xml:space="preserve" font-family="Helvetica-LightOblique" font-style="italic" font-size="36.0" fill="#493445" transform="matrix(1.00, 0.00, -0.00, -1.00, 267.7, 446.0)">g</text><text xml:space="preserve" font-family="Helvetica-LightOblique" font-style="italic" font-size="36.0" fill="#493445" transform="matrix(1.00, 0.00, -0.00, -1.00, 289.7, 446.0)">g</text><text xml:space="preserve" font-family="Helvetica-LightOblique" font-style="italic" font-size="36.0" fill="#493445" transform="matrix(1.00, 0.00, -0.00, -1.00, 311.7, 446.0)">e</text><text xml:space="preserve" font-family="Helvetica-LightOblique" font-style="italic" font-size="36.0" fill="#493445" transform="matrix(1.00, 0.00, -0.00, -1.00, 331.7, 446.0)">r</text><text xml:space="preserve" font-family="Helvetica-LightOblique" font-style="italic" font-size="36.0" fill="#493445" transform="matrix(1.00, 0.00, -0.00, -1.00, 343.7, 446.0)">s</text><text xml:space="preserve" font-family="Helvetica-LightOblique" font-style="italic" font-size="36.0" fill="#493445" transform="matrix(1.00, 0.00, -0.00, -1.00, 361.7, 446.0)"> </text><text xml:space="preserve" font-family="Helvetica-LightOblique" font-style="italic" font-size="36.0" fill="#493445" transform="matrix(1.00, 0.00, -0.00, -1.00, 371.7, 446.0)">m</text><text xml:space="preserve" font-family="Helvetica-LightOblique" font-style="italic" font-size="36.0" fill="#493445" transform="matrix(1.00, 0.00, -0.00, -1.00, 401.7, 446.0)">a</text><text xml:space="preserve" font-family="Helvetica-LightOblique" font-style="italic" font-size="36.0" fill="#493445" transform="matrix(1.00, 0.00, -0.00, -1.00, 421.7, 446.0)">n</text><text xml:space="preserve" font-family="Helvetica-LightOblique" font-style="italic" font-size="36.0" fill="#493445" transform="matrix(1.00, 0.00, -0.00, -1.00, 441.7, 446.0)">u</text><text xml:space="preserve" font-family="Helvetica-LightOblique" font-style="italic" font-size="36.0" fill="#493445" transform="matrix(1.00, 0.00, -0.00, -1.00, 461.7, 446.0)">a</text><text xml:space="preserve" font-family="Helvetica-LightOblique" font-style="italic" font-size="36.0" fill="#493445" transform="matrix(1.00, 0.00, -0.00, -1.00, 481.7, 446.0)">i</text><text xml:space="preserve" font-family="Helvetica-LightOblique" font-style="italic" font-size="36.0" fill="#493445" transform="matrix(1.00, 0.00, -0.00, -1.00, 489.7, 446.0)">s</text><text xml:space="preserve" font-family="Helvetica-LightOblique" font-style="italic" font-size="36.0" fill="#493445" transform="matrix(1.00, 0.00, -0.00, -1.00, 507.7, 446.0)"> </text><text xml:space="preserve" font-family="Helvetica-LightOblique" font-style="italic" font-size="36.0" fill="#493445" transform="matrix(1.00, 0.00, -0.00, -1.00, 517.7, 446.0)">d</text><text xml:space="preserve" font-family="Helvetica-LightOblique" font-style="italic" font-size="36.0" fill="#493445" transform="matrix(1.00, 0.00, -0.00, -1.00, 539.7, 446.0)">e</text><text xml:space="preserve" font-family="Helvetica-LightOblique" font-style="italic" font-size="36.0" fill="#493445" transform="matrix(1.00, 0.00, -0.00, -1.00, 559.8, 446.0)">v</text><text xml:space="preserve" font-family="Helvetica-LightOblique" font-style="italic" font-size="36.0" fill="#493445" transform="matrix(1.00, 0.00, -0.00, -1.00, 577.8, 446.0)">e</text><text xml:space="preserve" font-family="Helvetica-LightOblique" font-style="italic" font-size="36.0" fill="#493445" transform="matrix(1.00, 0.00, -0.00, -1.00, 597.8, 446.0)">m</text><text xml:space="preserve" font-family="Helvetica-LightOblique" font-style="italic" font-size="36.0" fill="#493445" transform="matrix(1.00, 0.00, -0.00, -1.00, 627.8, 446.0)"> </text><text xml:space="preserve" font-family="Helvetica-LightOblique" font-style="italic" font-size="36.0" fill="#493445" transform="matrix(1.00, 0.00, -0.00, -1.00, 637.8, 446.0)">s</text><text xml:space="preserve" font-family="Helvetica-LightOblique" font-style="italic" font-size="36.0" fill="#493445" transform="matrix(1.00, 0.00, -0.00, -1.00, 655.8, 446.0)">e</text><text xml:space="preserve" font-family="Helvetica-LightOblique" font-style="italic" font-size="36.0" fill="#493445" transform="matrix(1.00, 0.00, -0.00, -1.00, 675.8, 446.0)">r</text><text xml:space="preserve" font-family="Helvetica-LightOblique" font-style="italic" font-size="36.0" fill="#493445" transform="matrix(1.00, 0.00, -0.00, -1.00, 687.8, 446.0)"> </text><text xml:space="preserve" font-family="Helvetica-LightOblique" font-style="italic" font-size="36.0" fill="#493445" transform="matrix(1.00, 0.00, -0.00, -1.00, 697.8, 446.0)">f</text><text xml:space="preserve" font-family="Helvetica-LightOblique" font-style="italic" font-size="36.0" fill="#493445" transform="matrix(1.00, 0.00, -0.00, -1.00, 707.8, 446.0)">á</text><text xml:space="preserve" font-family="Helvetica-LightOblique" font-style="italic" font-size="36.0" fill="#493445" transform="matrix(1.00, 0.00, -0.00, -1.00, 727.8, 446.0)">c</text><text xml:space="preserve" font-family="Helvetica-LightOblique" font-style="italic" font-size="36.0" fill="#493445" transform="matrix(1.00, 0.00, -0.00, -1.00, 747.8, 446.0)">e</text><text xml:space="preserve" font-family="Helvetica-LightOblique" font-style="italic" font-size="36.0" fill="#493445" transform="matrix(1.00, 0.00, -0.00, -1.00, 767.8, 446.0)">i</text><text xml:space="preserve" font-family="Helvetica-LightOblique" font-style="italic" font-size="36.0" fill="#493445" transform="matrix(1.00, 0.00, -0.00, -1.00, 775.8, 446.0)">s</text><text xml:space="preserve" font-family="Helvetica-LightOblique" font-style="italic" font-size="36.0" fill="#493445" transform="matrix(1.00, 0.00, -0.00, -1.00, 793.8, 446.0)"> </text><text xml:space="preserve" font-family="Helvetica-LightOblique" font-style="italic" font-size="36.0" fill="#493445" transform="matrix(1.00, 0.00, -0.00, -1.00, 212.0, 403.0)">d</text><text xml:space="preserve" font-family="Helvetica-LightOblique" font-style="italic" font-size="36.0" fill="#493445" transform="matrix(1.00, 0.00, -0.00, -1.00, 234.0, 403.0)">e</text><text xml:space="preserve" font-family="Helvetica-LightOblique" font-style="italic" font-size="36.0" fill="#493445" transform="matrix(1.00, 0.00, -0.00, -1.00, 254.0, 403.0)"> </text><text xml:space="preserve" font-family="Helvetica-LightOblique" font-style="italic" font-size="36.0" fill="#493445" transform="matrix(1.00, 0.00, -0.00, -1.00, 264.0, 403.0)">d</text><text xml:space="preserve" font-family="Helvetica-LightOblique" font-style="italic" font-size="36.0" fill="#493445" transform="matrix(1.00, 0.00, -0.00, -1.00, 286.0, 403.0)">e</text><text xml:space="preserve" font-family="Helvetica-LightOblique" font-style="italic" font-size="36.0" fill="#493445" transform="matrix(1.00, 0.00, -0.00, -1.00, 306.0, 403.0)">s</text><text xml:space="preserve" font-family="Helvetica-LightOblique" font-style="italic" font-size="36.0" fill="#493445" transform="matrix(1.00, 0.00, -0.00, -1.00, 324.0, 403.0)">c</text><text xml:space="preserve" font-family="Helvetica-LightOblique" font-style="italic" font-size="36.0" fill="#493445" transform="matrix(1.00, 0.00, -0.00, -1.00, 344.0, 403.0)">o</text><text xml:space="preserve" font-family="Helvetica-LightOblique" font-style="italic" font-size="36.0" fill="#493445" transform="matrix(1.00, 0.00, -0.00, -1.00, 364.1, 403.0)">b</text><text xml:space="preserve" font-family="Helvetica-LightOblique" font-style="italic" font-size="36.0" fill="#493445" transform="matrix(1.00, 0.00, -0.00, -1.00, 386.1, 403.0)">r</text><text xml:space="preserve" font-family="Helvetica-LightOblique" font-style="italic" font-size="36.0" fill="#493445" transform="matrix(1.00, 0.00, -0.00, -1.00, 398.0, 403.0)">i</text><text xml:space="preserve" font-family="Helvetica-LightOblique" font-style="italic" font-size="36.0" fill="#493445" transform="matrix(1.00, 0.00, -0.00, -1.00, 406.0, 403.0)">r</text><text xml:space="preserve" font-family="Helvetica-LightOblique" font-style="italic" font-size="36.0" fill="#493445" transform="matrix(1.00, 0.00, -0.00, -1.00, 418.0, 403.0)"> </text><text xml:space="preserve" font-family="Helvetica-LightOblique" font-style="italic" font-size="36.0" fill="#493445" transform="matrix(1.00, 0.00, -0.00, -1.00, 428.0, 403.0)">e</text><text xml:space="preserve" font-family="Helvetica-LightOblique" font-style="italic" font-size="36.0" fill="#493445" transform="matrix(1.00, 0.00, -0.00, -1.00, 448.1, 403.0)"> </text><text xml:space="preserve" font-family="Helvetica-LightOblique" font-style="italic" font-size="36.0" fill="#493445" transform="matrix(1.00, 0.00, -0.00, -1.00, 458.1, 403.0)">d</text><text xml:space="preserve" font-family="Helvetica-LightOblique" font-style="italic" font-size="36.0" fill="#493445" transform="matrix(1.00, 0.00, -0.00, -1.00, 480.1, 403.0)">e</text><text xml:space="preserve" font-family="Helvetica-LightOblique" font-style="italic" font-size="36.0" fill="#493445" transform="matrix(1.00, 0.00, -0.00, -1.00, 500.1, 403.0)"> </text><text xml:space="preserve" font-family="Helvetica-LightOblique" font-style="italic" font-size="36.0" fill="#493445" transform="matrix(1.00, 0.00, -0.00, -1.00, 510.1, 403.0)">s</text><text xml:space="preserve" font-family="Helvetica-LightOblique" font-style="italic" font-size="36.0" fill="#493445" transform="matrix(1.00, 0.00, -0.00, -1.00, 528.1, 403.0)">e</text><text xml:space="preserve" font-family="Helvetica-LightOblique" font-style="italic" font-size="36.0" fill="#493445" transform="matrix(1.00, 0.00, -0.00, -1.00, 548.1, 403.0)">r</text><text xml:space="preserve" font-family="Helvetica-LightOblique" font-style="italic" font-size="36.0" fill="#493445" transform="matrix(1.00, 0.00, -0.00, -1.00, 559.4, 403.0)">e</text><text xml:space="preserve" font-family="Helvetica-LightOblique" font-style="italic" font-size="36.0" fill="#493445" transform="matrix(1.00, 0.00, -0.00, -1.00, 579.5, 403.0)">m</text><text xml:space="preserve" font-family="Helvetica-LightOblique" font-style="italic" font-size="36.0" fill="#493445" transform="matrix(1.00, 0.00, -0.00, -1.00, 609.4, 403.0)"> </text><text xml:space="preserve" font-family="Helvetica-LightOblique" font-style="italic" font-size="36.0" fill="#493445" transform="matrix(1.00, 0.00, -0.00, -1.00, 619.4, 403.0)">a</text><text xml:space="preserve" font-family="Helvetica-LightOblique" font-style="italic" font-size="36.0" fill="#493445" transform="matrix(1.00, 0.00, -0.00, -1.00, 639.5, 403.0)">p</text><text xml:space="preserve" font-family="Helvetica-LightOblique" font-style="italic" font-size="36.0" fill="#493445" transform="matrix(1.00, 0.00, -0.00, -1.00, 661.5, 403.0)">r</text><text xml:space="preserve" font-family="Helvetica-LightOblique" font-style="italic" font-size="36.0" fill="#493445" transform="matrix(1.00, 0.00, -0.00, -1.00, 672.8, 403.0)">e</text><text xml:space="preserve" font-family="Helvetica-LightOblique" font-style="italic" font-size="36.0" fill="#493445" transform="matrix(1.00, 0.00, -0.00, -1.00, 692.8, 403.0)">n</text><text xml:space="preserve" font-family="Helvetica-LightOblique" font-style="italic" font-size="36.0" fill="#493445" transform="matrix(1.00, 0.00, -0.00, -1.00, 712.8, 403.0)">d</text><text xml:space="preserve" font-family="Helvetica-LightOblique" font-style="italic" font-size="36.0" fill="#493445" transform="matrix(1.00, 0.00, -0.00, -1.00, 734.8, 403.0)">i</text><text xml:space="preserve" font-family="Helvetica-LightOblique" font-style="italic" font-size="36.0" fill="#493445" transform="matrix(1.00, 0.00, -0.00, -1.00, 742.8, 403.0)">d</text><text xml:space="preserve" font-family="Helvetica-LightOblique" font-style="italic" font-size="36.0" fill="#493445" transform="matrix(1.00, 0.00, -0.00, -1.00, 764.8, 403.0)">a</text><text xml:space="preserve" font-family="Helvetica-LightOblique" font-style="italic" font-size="36.0" fill="#493445" transform="matrix(1.00, 0.00, -0.00, -1.00, 784.8, 403.0)">s</text><text xml:space="preserve" font-family="Helvetica-LightOblique" font-style="italic" font-size="36.0" fill="#493445" transform="matrix(1.00, 0.00, -0.00, -1.00, 802.8, 403.0)">.</text><text xml:space="preserve" font-family="Helvetica-LightOblique" font-style="italic" font-size="24.0" fill="#493445" transform="matrix(1.00, 0.00, -0.00, -1.00, 371.0, 336.0)">O</text><text xml:space="preserve" font-family="Helvetica-LightOblique" font-style="italic" font-size="24.0" fill="#493445" transform="matrix(1.00, 0.00, -0.00, -1.00, 389.7, 336.0)">n</text><text xml:space="preserve" font-family="Helvetica-LightOblique" font-style="italic" font-size="24.0" fill="#493445" transform="matrix(1.00, 0.00, -0.00, -1.00, 403.0, 336.0)">d</text><text xml:space="preserve" font-family="Helvetica-LightOblique" font-style="italic" font-size="24.0" fill="#493445" transform="matrix(1.00, 0.00, -0.00, -1.00, 417.7, 336.0)">e</text><text xml:space="preserve" font-family="Helvetica-LightOblique" font-style="italic" font-size="24.0" fill="#493445" transform="matrix(1.00, 0.00, -0.00, -1.00, 431.0, 336.0)"> </text><text xml:space="preserve" font-family="Helvetica-LightOblique" font-style="italic" font-size="24.0" fill="#493445" transform="matrix(1.00, 0.00, -0.00, -1.00, 437.7, 336.0)">c</text><text xml:space="preserve" font-family="Helvetica-LightOblique" font-style="italic" font-size="24.0" fill="#493445" transform="matrix(1.00, 0.00, -0.00, -1.00, 451.0, 336.0)">o</text><text xml:space="preserve" font-family="Helvetica-LightOblique" font-style="italic" font-size="24.0" fill="#493445" transform="matrix(1.00, 0.00, -0.00, -1.00, 464.4, 336.0)">m</text><text xml:space="preserve" font-family="Helvetica-LightOblique" font-style="italic" font-size="24.0" fill="#493445" transform="matrix(1.00, 0.00, -0.00, -1.00, 484.4, 336.0)">e</text><text xml:space="preserve" font-family="Helvetica-LightOblique" font-style="italic" font-size="24.0" fill="#493445" transform="matrix(1.00, 0.00, -0.00, -1.00, 497.7, 336.0)">ç</text><text xml:space="preserve" font-family="Helvetica-LightOblique" font-style="italic" font-size="24.0" fill="#493445" transform="matrix(1.00, 0.00, -0.00, -1.00, 511.1, 336.0)">a</text><text xml:space="preserve" font-family="Helvetica-LightOblique" font-style="italic" font-size="24.0" fill="#493445" transform="matrix(1.00, 0.00, -0.00, -1.00, 524.4, 336.0)"> </text><text xml:space="preserve" font-family="Helvetica-LightOblique" font-style="italic" font-size="24.0" fill="#493445" transform="matrix(1.00, 0.00, -0.00, -1.00, 531.1, 336.0)">e</text><text xml:space="preserve" font-family="Helvetica-LightOblique" font-style="italic" font-size="24.0" fill="#493445" transform="matrix(1.00, 0.00, -0.00, -1.00, 544.4, 336.0)">s</text><text xml:space="preserve" font-family="Helvetica-LightOblique" font-style="italic" font-size="24.0" fill="#493445" transform="matrix(1.00, 0.00, -0.00, -1.00, 556.4, 336.0)">s</text><text xml:space="preserve" font-family="Helvetica-LightOblique" font-style="italic" font-size="24.0" fill="#493445" transform="matrix(1.00, 0.00, -0.00, -1.00, 568.4, 336.0)">a</text><text xml:space="preserve" font-family="Helvetica-LightOblique" font-style="italic" font-size="24.0" fill="#493445" transform="matrix(1.00, 0.00, -0.00, -1.00, 581.8, 336.0)"> </text><text xml:space="preserve" font-family="Helvetica-LightOblique" font-style="italic" font-size="24.0" fill="#493445" transform="matrix(1.00, 0.00, -0.00, -1.00, 588.4, 336.0)">a</text><text xml:space="preserve" font-family="Helvetica-LightOblique" font-style="italic" font-size="24.0" fill="#493445" transform="matrix(1.00, 0.00, -0.00, -1.00, 601.8, 336.0)">ç</text><text xml:space="preserve" font-family="Helvetica-LightOblique" font-style="italic" font-size="24.0" fill="#493445" transform="matrix(1.00, 0.00, -0.00, -1.00, 615.1, 336.0)">ã</text><text xml:space="preserve" font-family="Helvetica-LightOblique" font-style="italic" font-size="24.0" fill="#493445" transform="matrix(1.00, 0.00, -0.00, -1.00, 628.5, 336.0)">o</text><text xml:space="preserve" font-family="Helvetica-LightOblique" font-style="italic" font-size="24.0" fill="#493445" transform="matrix(1.00, 0.00, -0.00, -1.00, 641.8, 336.0)">?</text><text xml:space="preserve" font-family="Helvetica-LightOblique" font-style="italic" font-size="24.0" fill="#493445" transform="matrix(1.00, 0.00, -0.00, -1.00, 653.8, 336.0)"> </text><text xml:space="preserve" font-family="Helvetica-LightOblique" font-style="italic" font-size="24.0" fill="#493445" transform="matrix(1.00, 0.00, -0.00, -1.00, 377.0, 292.0)">O</text><text xml:space="preserve" font-family="Helvetica-LightOblique" font-style="italic" font-size="24.0" fill="#493445" transform="matrix(1.00, 0.00, -0.00, -1.00, 395.7, 292.0)"> </text><text xml:space="preserve" font-family="Helvetica-LightOblique" font-style="italic" font-size="24.0" fill="#493445" transform="matrix(1.00, 0.00, -0.00, -1.00, 402.3, 292.0)">q</text><text xml:space="preserve" font-family="Helvetica-LightOblique" font-style="italic" font-size="24.0" fill="#493445" transform="matrix(1.00, 0.00, -0.00, -1.00, 417.0, 292.0)">u</text><text xml:space="preserve" font-family="Helvetica-LightOblique" font-style="italic" font-size="24.0" fill="#493445" transform="matrix(1.00, 0.00, -0.00, -1.00, 430.4, 292.0)">e</text><text xml:space="preserve" font-family="Helvetica-LightOblique" font-style="italic" font-size="24.0" fill="#493445" transform="matrix(1.00, 0.00, -0.00, -1.00, 443.7, 292.0)"> </text><text xml:space="preserve" font-family="Helvetica-LightOblique" font-style="italic" font-size="24.0" fill="#493445" transform="matrix(1.00, 0.00, -0.00, -1.00, 450.4, 292.0)">e</text><text xml:space="preserve" font-family="Helvetica-LightOblique" font-style="italic" font-size="24.0" fill="#493445" transform="matrix(1.00, 0.00, -0.00, -1.00, 463.7, 292.0)">u</text><text xml:space="preserve" font-family="Helvetica-LightOblique" font-style="italic" font-size="24.0" fill="#493445" transform="matrix(1.00, 0.00, -0.00, -1.00, 477.1, 292.0)"> </text><text xml:space="preserve" font-family="Helvetica-LightOblique" font-style="italic" font-size="24.0" fill="#493445" transform="matrix(1.00, 0.00, -0.00, -1.00, 483.7, 292.0)">e</text><text xml:space="preserve" font-family="Helvetica-LightOblique" font-style="italic" font-size="24.0" fill="#493445" transform="matrix(1.00, 0.00, -0.00, -1.00, 497.1, 292.0)">s</text><text xml:space="preserve" font-family="Helvetica-LightOblique" font-style="italic" font-size="24.0" fill="#493445" transform="matrix(1.00, 0.00, -0.00, -1.00, 509.1, 292.0)">t</text><text xml:space="preserve" font-family="Helvetica-LightOblique" font-style="italic" font-size="24.0" fill="#493445" transform="matrix(1.00, 0.00, -0.00, -1.00, 515.7, 292.0)">o</text><text xml:space="preserve" font-family="Helvetica-LightOblique" font-style="italic" font-size="24.0" fill="#493445" transform="matrix(1.00, 0.00, -0.00, -1.00, 529.1, 292.0)">u</text><text xml:space="preserve" font-family="Helvetica-LightOblique" font-style="italic" font-size="24.0" fill="#493445" transform="matrix(1.00, 0.00, -0.00, -1.00, 542.4, 292.0)"> </text><text xml:space="preserve" font-family="Helvetica-LightOblique" font-style="italic" font-size="24.0" fill="#493445" transform="matrix(1.00, 0.00, -0.00, -1.00, 549.1, 292.0)">f</text><text xml:space="preserve" font-family="Helvetica-LightOblique" font-style="italic" font-size="24.0" fill="#493445" transform="matrix(1.00, 0.00, -0.00, -1.00, 555.8, 292.0)">a</text><text xml:space="preserve" font-family="Helvetica-LightOblique" font-style="italic" font-size="24.0" fill="#493445" transform="matrix(1.00, 0.00, -0.00, -1.00, 569.1, 292.0)">z</text><text xml:space="preserve" font-family="Helvetica-LightOblique" font-style="italic" font-size="24.0" fill="#493445" transform="matrix(1.00, 0.00, -0.00, -1.00, 581.1, 292.0)">e</text><text xml:space="preserve" font-family="Helvetica-LightOblique" font-style="italic" font-size="24.0" fill="#493445" transform="matrix(1.00, 0.00, -0.00, -1.00, 594.5, 292.0)">n</text><text xml:space="preserve" font-family="Helvetica-LightOblique" font-style="italic" font-size="24.0" fill="#493445" transform="matrix(1.00, 0.00, -0.00, -1.00, 607.8, 292.0)">d</text><text xml:space="preserve" font-family="Helvetica-LightOblique" font-style="italic" font-size="24.0" fill="#493445" transform="matrix(1.00, 0.00, -0.00, -1.00, 622.5, 292.0)">o</text><text xml:space="preserve" font-family="Helvetica-LightOblique" font-style="italic" font-size="24.0" fill="#493445" transform="matrix(1.00, 0.00, -0.00, -1.00, 635.8, 292.0)">?</text><g><clipPath id="clip-798"><path d="M 0.0 667.0 L 620.0 667.0 L 620.0 768.0 L 0.0 768.0 Z M 0.0 667.0 "></path></clipPath><g clip-path="url(#clip-798)"><text xml:space="preserve" font-family="SourceSansPro-Regular" font-size="24.0" fill="#5C4658" transform="matrix(1.00, 0.00, -0.00, -1.00, 130.0, 709.0)">C</text><text xml:space="preserve" font-family="SourceSansPro-Regular" font-size="24.0" fill="#5C4658" transform="matrix(1.00, 0.00, -0.00, -1.00, 143.7, 709.0)">r</text><text xml:space="preserve" font-family="SourceSansPro-Regular" font-size="24.0" fill="#5C4658" transform="matrix(1.00, 0.00, -0.00, -1.00, 152.0, 709.0)">i</text><text xml:space="preserve" font-family="SourceSansPro-Regular" font-size="24.0" fill="#5C4658" transform="matrix(1.00, 0.00, -0.00, -1.00, 157.9, 709.0)">a</text><text xml:space="preserve" font-family="SourceSansPro-Regular" font-size="24.0" fill="#5C4658" transform="matrix(1.00, 0.00, -0.00, -1.00, 170.2, 709.0)">n</text><text xml:space="preserve" font-family="SourceSansPro-Regular" font-size="24.0" fill="#5C4658" transform="matrix(1.00, 0.00, -0.00, -1.00, 183.4, 709.0)">d</text><text xml:space="preserve" font-family="SourceSansPro-Regular" font-size="24.0" fill="#5C4658" transform="matrix(1.00, 0.00, -0.00, -1.00, 196.7, 709.0)">o</text><text xml:space="preserve" font-family="SourceSansPro-Regular" font-size="24.0" fill="#5C4658" transform="matrix(1.00, 0.00, -0.00, -1.00, 209.7, 709.0)"> </text><text xml:space="preserve" font-family="SourceSansPro-Regular" font-size="24.0" fill="#5C4658" transform="matrix(1.00, 0.00, -0.00, -1.00, 214.5, 709.0)">m</text><text xml:space="preserve" font-family="SourceSansPro-Regular" font-size="24.0" fill="#5C4658" transform="matrix(1.00, 0.00, -0.00, -1.00, 234.4, 709.0)">i</text><text xml:space="preserve" font-family="SourceSansPro-Regular" font-size="24.0" fill="#5C4658" transform="matrix(1.00, 0.00, -0.00, -1.00, 240.3, 709.0)">c</text><text xml:space="preserve" font-family="SourceSansPro-Regular" font-size="24.0" fill="#5C4658" transform="matrix(1.00, 0.00, -0.00, -1.00, 251.3, 709.0)">r</text><text xml:space="preserve" font-family="SourceSansPro-Regular" font-size="24.0" fill="#5C4658" transform="matrix(1.00, 0.00, -0.00, -1.00, 259.6, 709.0)">o</text><text xml:space="preserve" font-family="SourceSansPro-Regular" font-size="24.0" fill="#5C4658" transform="matrix(1.00, 0.00, -0.00, -1.00, 272.6, 709.0)">i</text><text xml:space="preserve" font-family="SourceSansPro-Regular" font-size="24.0" fill="#5C4658" transform="matrix(1.00, 0.00, -0.00, -1.00, 278.5, 709.0)">n</text><text xml:space="preserve" font-family="SourceSansPro-Regular" font-size="24.0" fill="#5C4658" transform="matrix(1.00, 0.00, -0.00, -1.00, 291.6, 709.0)">t</text><text xml:space="preserve" font-family="SourceSansPro-Regular" font-size="24.0" fill="#5C4658" transform="matrix(1.00, 0.00, -0.00, -1.00, 299.8, 709.0)">e</text><text xml:space="preserve" font-family="SourceSansPro-Regular" font-size="24.0" fill="#5C4658" transform="matrix(1.00, 0.00, -0.00, -1.00, 311.7, 709.0)">r</text><text xml:space="preserve" font-family="SourceSansPro-Regular" font-size="24.0" fill="#5C4658" transform="matrix(1.00, 0.00, -0.00, -1.00, 320.0, 709.0)">a</text><text xml:space="preserve" font-family="SourceSansPro-Regular" font-size="24.0" fill="#5C4658" transform="matrix(1.00, 0.00, -0.00, -1.00, 332.3, 709.0)">ç</text><text xml:space="preserve" font-family="SourceSansPro-Regular" font-size="24.0" fill="#5C4658" transform="matrix(1.00, 0.00, -0.00, -1.00, 343.2, 709.0)">õ</text><text xml:space="preserve" font-family="SourceSansPro-Regular" font-size="24.0" fill="#5C4658" transform="matrix(1.00, 0.00, -0.00, -1.00, 356.2, 709.0)">e</text><text xml:space="preserve" font-family="SourceSansPro-Regular" font-size="24.0" fill="#5C4658" transform="matrix(1.00, 0.00, -0.00, -1.00, 368.1, 709.0)">s</text><text xml:space="preserve" font-family="SourceSansPro-Regular" font-size="24.0" fill="#5C4658" transform="matrix(1.00, 0.00, -0.00, -1.00, 378.2, 709.0)"> </text><text xml:space="preserve" font-family="SourceSansPro-Regular" font-size="24.0" fill="#5C4658" transform="matrix(1.00, 0.00, -0.00, -1.00, 383.0, 709.0)">c</text><text xml:space="preserve" font-family="SourceSansPro-Regular" font-size="24.0" fill="#5C4658" transform="matrix(1.00, 0.00, -0.00, -1.00, 394.0, 709.0)">o</text><text xml:space="preserve" font-family="SourceSansPro-Regular" font-size="24.0" fill="#5C4658" transform="matrix(1.00, 0.00, -0.00, -1.00, 407.0, 709.0)">m</text><text xml:space="preserve" font-family="SourceSansPro-Regular" font-size="24.0" fill="#5C4658" transform="matrix(1.00, 0.00, -0.00, -1.00, 426.9, 709.0)"> </text><text xml:space="preserve" font-family="SourceSansPro-Regular" font-size="24.0" fill="#5C4658" transform="matrix(1.00, 0.00, -0.00, -1.00, 431.7, 709.0)">J</text><text xml:space="preserve" font-family="SourceSansPro-Regular" font-size="24.0" fill="#5C4658" transform="matrix(1.00, 0.00, -0.00, -1.00, 443.2, 709.0)">a</text><text xml:space="preserve" font-family="SourceSansPro-Regular" font-size="24.0" fill="#5C4658" transform="matrix(1.00, 0.00, -0.00, -1.00, 455.5, 709.0)">v</text><text xml:space="preserve" font-family="SourceSansPro-Regular" font-size="24.0" fill="#5C4658" transform="matrix(1.00, 0.00, -0.00, -1.00, 466.7, 709.0)">a</text><text xml:space="preserve" font-family="SourceSansPro-Regular" font-size="24.0" fill="#5C4658" transform="matrix(1.00, 0.00, -0.00, -1.00, 479.0, 709.0)">S</text><text xml:space="preserve" font-family="SourceSansPro-Regular" font-size="24.0" fill="#5C4658" transform="matrix(1.00, 0.00, -0.00, -1.00, 491.8, 709.0)">c</text><text xml:space="preserve" font-family="SourceSansPro-Regular" font-size="24.0" fill="#5C4658" transform="matrix(1.00, 0.00, -0.00, -1.00, 502.8, 709.0)">r</text><text xml:space="preserve" font-family="SourceSansPro-Regular" font-size="24.0" fill="#5C4658" transform="matrix(1.00, 0.00, -0.00, -1.00, 511.1, 709.0)">i</text><text xml:space="preserve" font-family="SourceSansPro-Regular" font-size="24.0" fill="#5C4658" transform="matrix(1.00, 0.00, -0.00, -1.00, 517.0, 709.0)">p</text><text xml:space="preserve" font-family="SourceSansPro-Regular" font-size="24.0" fill="#5C4658" transform="matrix(1.00, 0.00, -0.00, -1.00, 530.3, 709.0)">t</text><text xml:space="preserve" font-family="SourceSansPro-Regular" font-size="24.0" fill="#5C4658" transform="matrix(1.00, 0.00, -0.00, -1.00, 538.5, 709.0)"> </text><text xml:space="preserve" font-family="SourceSansPro-Regular" font-size="24.0" fill="#5C4658" transform="matrix(1.00, 0.00, -0.00, -1.00, 543.3, 709.0)">s</text><text xml:space="preserve" font-family="SourceSansPro-Regular" font-size="24.0" fill="#5C4658" transform="matrix(1.00, 0.00, -0.00, -1.00, 553.4, 709.0)">i</text><text xml:space="preserve" font-family="SourceSansPro-Regular" font-size="24.0" fill="#5C4658" transform="matrix(1.00, 0.00, -0.00, -1.00, 559.3, 709.0)">m</text><text xml:space="preserve" font-family="SourceSansPro-Regular" font-size="24.0" fill="#5C4658" transform="matrix(1.00, 0.00, -0.00, -1.00, 579.2, 709.0)">p</text><text xml:space="preserve" font-family="SourceSansPro-Regular" font-size="24.0" fill="#5C4658" transform="matrix(1.00, 0.00, -0.00, -1.00, 592.5, 709.0)">l</text><text xml:space="preserve" font-family="SourceSansPro-Regular" font-size="24.0" fill="#5C4658" transform="matrix(1.00, 0.00, -0.00, -1.00, 598.6, 709.0)">e</text><text xml:space="preserve" font-family="SourceSansPro-Regular" font-size="24.0" fill="#5C4658" transform="matrix(1.00, 0.00, -0.00, -1.00, 610.5, 709.0)">s</text></g></g><g><clipPath id="clip-799"><path d="M 0.0 767.9 L 100.0 767.9 L 100.0 667.9 L 0.0 667.9 L 0.0 767.9 Z M 0.0 767.9 "></path></clipPath><g clip-path="url(#clip-799)"><g><clipPath id="clip-800"><path d="M 0.0 667.0 L 620.0 667.0 L 620.0 768.0 L 0.0 768.0 Z M 0.0 667.0 "></path></clipPath><g clip-path="url(#clip-800)"><path d="M -5.0 772.9 L 105.0 772.9 L 105.0 662.9 L -5.0 662.9 Z M -5.0 772.9 " fill="#2B8DFF"></path></g></g></g></g><g><clipPath id="clip-801"><path d="M 0.0 667.0 L 620.0 667.0 L 620.0 768.0 L 0.0 768.0 Z M 0.0 667.0 "></path></clipPath><g clip-path="url(#clip-801)"><text xml:space="preserve" font-family="HelveticaNeue-Bold" font-weight="bold" font-size="30.8" fill="#FEFFFF" transform="matrix(1.00, 0.00, -0.00, -1.00, 14.4, 706.5)">F</text><text xml:space="preserve" font-family="HelveticaNeue-Bold" font-weight="bold" font-size="30.8" fill="#FEFFFF" transform="matrix(1.00, 0.00, -0.00, -1.00, 30.9, 706.5)">r</text><text xml:space="preserve" font-family="HelveticaNeue-Bold" font-weight="bold" font-size="30.8" fill="#FEFFFF" transform="matrix(1.00, 0.00, -0.00, -1.00, 40.6, 706.5)">o</text><text xml:space="preserve" font-family="HelveticaNeue-Bold" font-weight="bold" font-size="30.8" fill="#FEFFFF" transform="matrix(1.00, 0.00, -0.00, -1.00, 57.7, 706.5)">n</text><text xml:space="preserve" font-family="HelveticaNeue-Bold" font-weight="bold" font-size="30.8" fill="#FEFFFF" transform="matrix(1.00, 0.00, -0.00, -1.00, 74.2, 706.5)">t</text><text xml:space="preserve" font-family="HelveticaNeue-Bold" font-weight="bold" font-size="30.8" fill="#FEFFFF" transform="matrix(1.00, 0.00, -0.00, -1.00, 83.4, 706.5)"> </text></g></g></g></svg>