<?xml version="1.0" encoding="UTF-8" standalone="no"?><svg xmlns="http://www.w3.org/2000/svg" xmlns:xlink="http://www.w3.org/1999/xlink" clip-rule="evenodd" stroke-miterlimit="4.00" viewBox="0 0 1024 768"><desc>SVG generated by Keynote</desc><defs></defs><g transform="matrix(1.00, 0.00, -0.00, -1.00, 0.0, 768.0)"><path d="M 0.0 768.0 L 1024.0 768.0 L 1024.0 0.0 L 0.0 0.0 Z M 0.0 768.0 " fill="#FEFFFF"></path><text xml:space="preserve" font-family="Helvetica-LightOblique" font-style="italic" font-size="36.0" fill="#493445" transform="matrix(1.00, 0.00, -0.00, -1.00, 222.0, 392.0)">E</text><text xml:space="preserve" font-family="Helvetica-LightOblique" font-style="italic" font-size="36.0" fill="#493445" transform="matrix(1.00, 0.00, -0.00, -1.00, 244.0, 392.0)">n</text><text xml:space="preserve" font-family="Helvetica-LightOblique" font-style="italic" font-size="36.0" fill="#493445" transform="matrix(1.00, 0.00, -0.00, -1.00, 264.0, 392.0)">t</text><text xml:space="preserve" font-family="Helvetica-LightOblique" font-style="italic" font-size="36.0" fill="#493445" transform="matrix(1.00, 0.00, -0.00, -1.00, 274.0, 392.0)">r</text><text xml:space="preserve" font-family="Helvetica-LightOblique" font-style="italic" font-size="36.0" fill="#493445" transform="matrix(1.00, 0.00, -0.00, -1.00, 285.4, 392.0)">e</text><text xml:space="preserve" font-family="Helvetica-LightOblique" font-style="italic" font-size="36.0" fill="#493445" transform="matrix(1.00, 0.00, -0.00, -1.00, 305.4, 392.0)">g</text><text xml:space="preserve" font-family="Helvetica-LightOblique" font-style="italic" font-size="36.0" fill="#493445" transform="matrix(1.00, 0.00, -0.00, -1.00, 327.4, 392.0)">u</text><text xml:space="preserve" font-family="Helvetica-LightOblique" font-style="italic" font-size="36.0" fill="#493445" transform="matrix(1.00, 0.00, -0.00, -1.00, 347.4, 392.0)">e</text><text xml:space="preserve" font-family="Helvetica-LightOblique" font-style="italic" font-size="36.0" fill="#493445" transform="matrix(1.00, 0.00, -0.00, -1.00, 367.4, 392.0)"> </text><text xml:space="preserve" font-family="Helvetica-LightOblique" font-style="italic" font-size="36.0" fill="#493445" transform="matrix(1.00, 0.00, -0.00, -1.00, 377.4, 392.0)">i</text><text xml:space="preserve" font-family="Helvetica-LightOblique" font-style="italic" font-size="36.0" fill="#493445" transform="matrix(1.00, 0.00, -0.00, -1.00, 385.4, 392.0)">n</text><text xml:space="preserve" font-family="Helvetica-LightOblique" font-style="italic" font-size="36.0" fill="#493445" transform="matrix(1.00, 0.00, -0.00, -1.00, 405.4, 392.0)">f</text><text xml:space="preserve" font-family="Helvetica-LightOblique" font-style="italic" font-size="36.0" fill="#493445" transform="matrix(1.00, 0.00, -0.00, -1.00, 415.4, 392.0)">o</text><text xml:space="preserve" font-family="Helvetica-LightOblique" font-style="italic" font-size="36.0" fill="#493445" transform="matrix(1.00, 0.00, -0.00, -1.00, 435.4, 392.0)">r</text><text xml:space="preserve" font-family="Helvetica-LightOblique" font-style="italic" font-size="36.0" fill="#493445" transform="matrix(1.00, 0.00, -0.00, -1.00, 448.1, 392.0)">m</text><text xml:space="preserve" font-family="Helvetica-LightOblique" font-style="italic" font-size="36.0" fill="#493445" transform="matrix(1.00, 0.00, -0.00, -1.00, 478.1, 392.0)">a</text><text xml:space="preserve" font-family="Helvetica-LightOblique" font-style="italic" font-size="36.0" fill="#493445" transform="matrix(1.00, 0.00, -0.00, -1.00, 498.1, 392.0)">ç</text><text xml:space="preserve" font-family="Helvetica-LightOblique" font-style="italic" font-size="36.0" fill="#493445" transform="matrix(1.00, 0.00, -0.00, -1.00, 518.1, 392.0)">õ</text><text xml:space="preserve" font-family="Helvetica-LightOblique" font-style="italic" font-size="36.0" fill="#493445" transform="matrix(1.00, 0.00, -0.00, -1.00, 538.1, 392.0)">e</text><text xml:space="preserve" font-family="Helvetica-LightOblique" font-style="italic" font-size="36.0" fill="#493445" transform="matrix(1.00, 0.00, -0.00, -1.00, 558.1, 392.0)">s</text><text xml:space="preserve" font-family="Helvetica-LightOblique" font-style="italic" font-size="36.0" fill="#493445" transform="matrix(1.00, 0.00, -0.00, -1.00, 576.1, 392.0)"> </text><text xml:space="preserve" font-family="Helvetica-LightOblique" font-style="italic" font-size="36.0" fill="#493445" transform="matrix(1.00, 0.00, -0.00, -1.00, 586.1, 392.0)">a</text><text xml:space="preserve" font-family="Helvetica-LightOblique" font-style="italic" font-size="36.0" fill="#493445" transform="matrix(1.00, 0.00, -0.00, -1.00, 606.2, 392.0)">n</text><text xml:space="preserve" font-family="Helvetica-LightOblique" font-style="italic" font-size="36.0" fill="#493445" transform="matrix(1.00, 0.00, -0.00, -1.00, 626.2, 392.0)">t</text><text xml:space="preserve" font-family="Helvetica-LightOblique" font-style="italic" font-size="36.0" fill="#493445" transform="matrix(1.00, 0.00, -0.00, -1.00, 636.2, 392.0)">e</text><text xml:space="preserve" font-family="Helvetica-LightOblique" font-style="italic" font-size="36.0" fill="#493445" transform="matrix(1.00, 0.00, -0.00, -1.00, 656.2, 392.0)">s</text><text xml:space="preserve" font-family="Helvetica-LightOblique" font-style="italic" font-size="36.0" fill="#493445" transform="matrix(1.00, 0.00, -0.00, -1.00, 674.2, 392.0)"> </text><text xml:space="preserve" font-family="Helvetica-LightOblique" font-style="italic" font-size="36.0" fill="#493445" transform="matrix(1.00, 0.00, -0.00, -1.00, 684.2, 392.0)">m</text><text xml:space="preserve" font-family="Helvetica-LightOblique" font-style="italic" font-size="36.0" fill="#493445" transform="matrix(1.00, 0.00, -0.00, -1.00, 714.2, 392.0)">e</text><text xml:space="preserve" font-family="Helvetica-LightOblique" font-style="italic" font-size="36.0" fill="#493445" transform="matrix(1.00, 0.00, -0.00, -1.00, 734.2, 392.0)">s</text><text xml:space="preserve" font-family="Helvetica-LightOblique" font-style="italic" font-size="36.0" fill="#493445" transform="matrix(1.00, 0.00, -0.00, -1.00, 752.2, 392.0)">m</text><text xml:space="preserve" font-family="Helvetica-LightOblique" font-style="italic" font-size="36.0" fill="#493445" transform="matrix(1.00, 0.00, -0.00, -1.00, 782.2, 392.0)">o</text><text xml:space="preserve" font-family="Helvetica-LightOblique" font-style="italic" font-size="36.0" fill="#493445" transform="matrix(1.00, 0.00, -0.00, -1.00, 802.2, 392.0)"> </text><text xml:space="preserve" font-family="Helvetica-LightOblique" font-style="italic" font-size="36.0" fill="#493445" transform="matrix(1.00, 0.00, -0.00, -1.00, 441.0, 349.0)">d</text><text xml:space="preserve" font-family="Helvetica-LightOblique" font-style="italic" font-size="36.0" fill="#493445" transform="matrix(1.00, 0.00, -0.00, -1.00, 463.0, 349.0)">a</text><text xml:space="preserve" font-family="Helvetica-LightOblique" font-style="italic" font-size="36.0" fill="#493445" transform="matrix(1.00, 0.00, -0.00, -1.00, 483.0, 349.0)"> </text><text xml:space="preserve" font-family="Helvetica-LightOblique" font-style="italic" font-size="36.0" fill="#493445" transform="matrix(1.00, 0.00, -0.00, -1.00, 493.0, 349.0)">a</text><text xml:space="preserve" font-family="Helvetica-LightOblique" font-style="italic" font-size="36.0" fill="#493445" transform="matrix(1.00, 0.00, -0.00, -1.00, 513.0, 349.0)">ç</text><text xml:space="preserve" font-family="Helvetica-LightOblique" font-style="italic" font-size="36.0" fill="#493445" transform="matrix(1.00, 0.00, -0.00, -1.00, 533.1, 349.0)">ã</text><text xml:space="preserve" font-family="Helvetica-LightOblique" font-style="italic" font-size="36.0" fill="#493445" transform="matrix(1.00, 0.00, -0.00, -1.00, 553.1, 349.0)">o</text><text xml:space="preserve" font-family="Helvetica-LightOblique" font-style="italic" font-size="36.0" fill="#493445" transform="matrix(1.00, 0.00, -0.00, -1.00, 573.1, 349.0)">.</text><g><clipPath id="clip-844"><path d="M 0.0 667.0 L 620.0 667.0 L 620.0 768.0 L 0.0 768.0 Z M 0.0 667.0 "></path></clipPath><g clip-path="url(#clip-844)"><text xml:space="preserve" font-family="SourceSansPro-Regular" font-size="24.0" fill="#5C4658" transform="matrix(1.00, 0.00, -0.00, -1.00, 130.0, 709.0)">C</text><text xml:space="preserve" font-family="SourceSansPro-Regular" font-size="24.0" fill="#5C4658" transform="matrix(1.00, 0.00, -0.00, -1.00, 143.7, 709.0)">r</text><text xml:space="preserve" font-family="SourceSansPro-Regular" font-size="24.0" fill="#5C4658" transform="matrix(1.00, 0.00, -0.00, -1.00, 152.0, 709.0)">i</text><text xml:space="preserve" font-family="SourceSansPro-Regular" font-size="24.0" fill="#5C4658" transform="matrix(1.00, 0.00, -0.00, -1.00, 157.9, 709.0)">a</text><text xml:space="preserve" font-family="SourceSansPro-Regular" font-size="24.0" fill="#5C4658" transform="matrix(1.00, 0.00, -0.00, -1.00, 170.2, 709.0)">n</text><text xml:space="preserve" font-family="SourceSansPro-Regular" font-size="24.0" fill="#5C4658" transform="matrix(1.00, 0.00, -0.00, -1.00, 183.4, 709.0)">d</text><text xml:space="preserve" font-family="SourceSansPro-Regular" font-size="24.0" fill="#5C4658" transform="matrix(1.00, 0.00, -0.00, -1.00, 196.7, 709.0)">o</text><text xml:space="preserve" font-family="SourceSansPro-Regular" font-size="24.0" fill="#5C4658" transform="matrix(1.00, 0.00, -0.00, -1.00, 209.7, 709.0)"> </text><text xml:space="preserve" font-family="SourceSansPro-Regular" font-size="24.0" fill="#5C4658" transform="matrix(1.00, 0.00, -0.00, -1.00, 214.5, 709.0)">m</text><text xml:space="preserve" font-family="SourceSansPro-Regular" font-size="24.0" fill="#5C4658" transform="matrix(1.00, 0.00, -0.00, -1.00, 234.4, 709.0)">i</text><text xml:space="preserve" font-family="SourceSansPro-Regular" font-size="24.0" fill="#5C4658" transform="matrix(1.00, 0.00, -0.00, -1.00, 240.3, 709.0)">c</text><text xml:space="preserve" font-family="SourceSansPro-Regular" font-size="24.0" fill="#5C4658" transform="matrix(1.00, 0.00, -0.00, -1.00, 251.3, 709.0)">r</text><text xml:space="preserve" font-family="SourceSansPro-Regular" font-size="24.0" fill="#5C4658" transform="matrix(1.00, 0.00, -0.00, -1.00, 259.6, 709.0)">o</text><text xml:space="preserve" font-family="SourceSansPro-Regular" font-size="24.0" fill="#5C4658" transform="matrix(1.00, 0.00, -0.00, -1.00, 272.6, 709.0)">i</text><text xml:space="preserve" font-family="SourceSansPro-Regular" font-size="24.0" fill="#5C4658" transform="matrix(1.00, 0.00, -0.00, -1.00, 278.5, 709.0)">n</text><text xml:space="preserve" font-family="SourceSansPro-Regular" font-size="24.0" fill="#5C4658" transform="matrix(1.00, 0.00, -0.00, -1.00, 291.6, 709.0)">t</text><text xml:space="preserve" font-family="SourceSansPro-Regular" font-size="24.0" fill="#5C4658" transform="matrix(1.00, 0.00, -0.00, -1.00, 299.8, 709.0)">e</text><text xml:space="preserve" font-family="SourceSansPro-Regular" font-size="24.0" fill="#5C4658" transform="matrix(1.00, 0.00, -0.00, -1.00, 311.7, 709.0)">r</text><text xml:space="preserve" font-family="SourceSansPro-Regular" font-size="24.0" fill="#5C4658" transform="matrix(1.00, 0.00, -0.00, -1.00, 320.0, 709.0)">a</text><text xml:space="preserve" font-family="SourceSansPro-Regular" font-size="24.0" fill="#5C4658" transform="matrix(1.00, 0.00, -0.00, -1.00, 332.3, 709.0)">ç</text><text xml:space="preserve" font-family="SourceSansPro-Regular" font-size="24.0" fill="#5C4658" transform="matrix(1.00, 0.00, -0.00, -1.00, 343.2, 709.0)">õ</text><text xml:space="preserve" font-family="SourceSansPro-Regular" font-size="24.0" fill="#5C4658" transform="matrix(1.00, 0.00, -0.00, -1.00, 356.2, 709.0)">e</text><text xml:space="preserve" font-family="SourceSansPro-Regular" font-size="24.0" fill="#5C4658" transform="matrix(1.00, 0.00, -0.00, -1.00, 368.1, 709.0)">s</text><text xml:space="preserve" font-family="SourceSansPro-Regular" font-size="24.0" fill="#5C4658" transform="matrix(1.00, 0.00, -0.00, -1.00, 378.2, 709.0)"> </text><text xml:space="preserve" font-family="SourceSansPro-Regular" font-size="24.0" fill="#5C4658" transform="matrix(1.00, 0.00, -0.00, -1.00, 383.0, 709.0)">c</text><text xml:space="preserve" font-family="SourceSansPro-Regular" font-size="24.0" fill="#5C4658" transform="matrix(1.00, 0.00, -0.00, -1.00, 394.0, 709.0)">o</text><text xml:space="preserve" font-family="SourceSansPro-Regular" font-size="24.0" fill="#5C4658" transform="matrix(1.00, 0.00, -0.00, -1.00, 407.0, 709.0)">m</text><text xml:space="preserve" font-family="SourceSansPro-Regular" font-size="24.0" fill="#5C4658" transform="matrix(1.00, 0.00, -0.00, -1.00, 426.9, 709.0)"> </text><text xml:space="preserve" font-family="SourceSansPro-Regular" font-size="24.0" fill="#5C4658" transform="matrix(1.00, 0.00, -0.00, -1.00, 431.7, 709.0)">J</text><text xml:space="preserve" font-family="SourceSansPro-Regular" font-size="24.0" fill="#5C4658" transform="matrix(1.00, 0.00, -0.00, -1.00, 443.2, 709.0)">a</text><text xml:space="preserve" font-family="SourceSansPro-Regular" font-size="24.0" fill="#5C4658" transform="matrix(1.00, 0.00, -0.00, -1.00, 455.5, 709.0)">v</text><text xml:space="preserve" font-family="SourceSansPro-Regular" font-size="24.0" fill="#5C4658" transform="matrix(1.00, 0.00, -0.00, -1.00, 466.7, 709.0)">a</text><text xml:space="preserve" font-family="SourceSansPro-Regular" font-size="24.0" fill="#5C4658" transform="matrix(1.00, 0.00, -0.00, -1.00, 479.0, 709.0)">S</text><text xml:space="preserve" font-family="SourceSansPro-Regular" font-size="24.0" fill="#5C4658" transform="matrix(1.00, 0.00, -0.00, -1.00, 491.8, 709.0)">c</text><text xml:space="preserve" font-family="SourceSansPro-Regular" font-size="24.0" fill="#5C4658" transform="matrix(1.00, 0.00, -0.00, -1.00, 502.8, 709.0)">r</text><text xml:space="preserve" font-family="SourceSansPro-Regular" font-size="24.0" fill="#5C4658" transform="matrix(1.00, 0.00, -0.00, -1.00, 511.1, 709.0)">i</text><text xml:space="preserve" font-family="SourceSansPro-Regular" font-size="24.0" fill="#5C4658" transform="matrix(1.00, 0.00, -0.00, -1.00, 517.0, 709.0)">p</text><text xml:space="preserve" font-family="SourceSansPro-Regular" font-size="24.0" fill="#5C4658" transform="matrix(1.00, 0.00, -0.00, -1.00, 530.3, 709.0)">t</text><text xml:space="preserve" font-family="SourceSansPro-Regular" font-size="24.0" fill="#5C4658" transform="matrix(1.00, 0.00, -0.00, -1.00, 538.5, 709.0)"> </text><text xml:space="preserve" font-family="SourceSansPro-Regular" font-size="24.0" fill="#5C4658" transform="matrix(1.00, 0.00, -0.00, -1.00, 543.3, 709.0)">s</text><text xml:space="preserve" font-family="SourceSansPro-Regular" font-size="24.0" fill="#5C4658" transform="matrix(1.00, 0.00, -0.00, -1.00, 553.4, 709.0)">i</text><text xml:space="preserve" font-family="SourceSansPro-Regular" font-size="24.0" fill="#5C4658" transform="matrix(1.00, 0.00, -0.00, -1.00, 559.3, 709.0)">m</text><text xml:space="preserve" font-family="SourceSansPro-Regular" font-size="24.0" fill="#5C4658" transform="matrix(1.00, 0.00, -0.00, -1.00, 579.2, 709.0)">p</text><text xml:space="preserve" font-family="SourceSansPro-Regular" font-size="24.0" fill="#5C4658" transform="matrix(1.00, 0.00, -0.00, -1.00, 592.5, 709.0)">l</text><text xml:space="preserve" font-family="SourceSansPro-Regular" font-size="24.0" fill="#5C4658" transform="matrix(1.00, 0.00, -0.00, -1.00, 598.6, 709.0)">e</text><text xml:space="preserve" font-family="SourceSansPro-Regular" font-size="24.0" fill="#5C4658" transform="matrix(1.00, 0.00, -0.00, -1.00, 610.5, 709.0)">s</text></g></g><g><clipPath id="clip-845"><path d="M 0.0 767.9 L 100.0 767.9 L 100.0 667.9 L 0.0 667.9 L 0.0 767.9 Z M 0.0 767.9 "></path></clipPath><g clip-path="url(#clip-845)"><g><clipPath id="clip-846"><path d="M 0.0 667.0 L 620.0 667.0 L 620.0 768.0 L 0.0 768.0 Z M 0.0 667.0 "></path></clipPath><g clip-path="url(#clip-846)"><path d="M -5.0 772.9 L 105.0 772.9 L 105.0 662.9 L -5.0 662.9 Z M -5.0 772.9 " fill="#2B8DFF"></path></g></g></g></g><g><clipPath id="clip-847"><path d="M 0.0 667.0 L 620.0 667.0 L 620.0 768.0 L 0.0 768.0 Z M 0.0 667.0 "></path></clipPath><g clip-path="url(#clip-847)"><text xml:space="preserve" font-family="HelveticaNeue-Bold" font-weight="bold" font-size="30.8" fill="#FEFFFF" transform="matrix(1.00, 0.00, -0.00, -1.00, 14.4, 706.5)">F</text><text xml:space="preserve" font-family="HelveticaNeue-Bold" font-weight="bold" font-size="30.8" fill="#FEFFFF" transform="matrix(1.00, 0.00, -0.00, -1.00, 30.9, 706.5)">r</text><text xml:space="preserve" font-family="HelveticaNeue-Bold" font-weight="bold" font-size="30.8" fill="#FEFFFF" transform="matrix(1.00, 0.00, -0.00, -1.00, 40.6, 706.5)">o</text><text xml:space="preserve" font-family="HelveticaNeue-Bold" font-weight="bold" font-size="30.8" fill="#FEFFFF" transform="matrix(1.00, 0.00, -0.00, -1.00, 57.7, 706.5)">n</text><text xml:space="preserve" font-family="HelveticaNeue-Bold" font-weight="bold" font-size="30.8" fill="#FEFFFF" transform="matrix(1.00, 0.00, -0.00, -1.00, 74.2, 706.5)">t</text><text xml:space="preserve" font-family="HelveticaNeue-Bold" font-weight="bold" font-size="30.8" fill="#FEFFFF" transform="matrix(1.00, 0.00, -0.00, -1.00, 83.4, 706.5)"> </text></g></g></g></svg>