<?xml version="1.0" encoding="UTF-8" standalone="no"?><svg xmlns="http://www.w3.org/2000/svg" xmlns:xlink="http://www.w3.org/1999/xlink" clip-rule="evenodd" stroke-miterlimit="4.00" viewBox="0 0 1024 768"><desc>SVG generated by Keynote</desc><defs></defs><g transform="matrix(1.00, 0.00, -0.00, -1.00, 0.0, 768.0)"><path d="M 0.0 768.0 L 1024.0 768.0 L 1024.0 0.0 L 0.0 0.0 Z M 0.0 768.0 " fill="#FEFFFF"></path><text xml:space="preserve" font-family="Helvetica-Light" font-size="36.0" fill="#493445" transform="matrix(1.00, 0.00, -0.00, -1.00, 121.0, 488.0)">T</text><text xml:space="preserve" font-family="Helvetica-Light" font-size="36.0" fill="#493445" transform="matrix(1.00, 0.00, -0.00, -1.00, 137.7, 488.0)">r</text><text xml:space="preserve" font-family="Helvetica-Light" font-size="36.0" fill="#493445" transform="matrix(1.00, 0.00, -0.00, -1.00, 149.7, 488.0)">i</text><text xml:space="preserve" font-family="Helvetica-Light" font-size="36.0" fill="#493445" transform="matrix(1.00, 0.00, -0.00, -1.00, 157.7, 488.0)">g</text><text xml:space="preserve" font-family="Helvetica-Light" font-size="36.0" fill="#493445" transform="matrix(1.00, 0.00, -0.00, -1.00, 179.7, 488.0)">g</text><text xml:space="preserve" font-family="Helvetica-Light" font-size="36.0" fill="#493445" transform="matrix(1.00, 0.00, -0.00, -1.00, 201.7, 488.0)">e</text><text xml:space="preserve" font-family="Helvetica-Light" font-size="36.0" fill="#493445" transform="matrix(1.00, 0.00, -0.00, -1.00, 221.7, 488.0)">r</text><text xml:space="preserve" font-family="Helvetica-Light" font-size="36.0" fill="#493445" transform="matrix(1.00, 0.00, -0.00, -1.00, 233.7, 488.0)"> </text><text xml:space="preserve" font-family="Helvetica-Light" font-size="36.0" fill="#493445" transform="matrix(1.00, 0.00, -0.00, -1.00, 243.7, 488.0)">é</text><text xml:space="preserve" font-family="Helvetica-Light" font-size="36.0" fill="#493445" transform="matrix(1.00, 0.00, -0.00, -1.00, 263.7, 488.0)"> </text><text xml:space="preserve" font-family="Helvetica-Light" font-size="36.0" fill="#493445" transform="matrix(1.00, 0.00, -0.00, -1.00, 273.7, 488.0)">o</text><text xml:space="preserve" font-family="Helvetica-Light" font-size="36.0" fill="#493445" transform="matrix(1.00, 0.00, -0.00, -1.00, 293.7, 488.0)"> </text><text xml:space="preserve" font-family="Helvetica-Light" font-size="36.0" fill="#493445" transform="matrix(1.00, 0.00, -0.00, -1.00, 303.7, 488.0)">p</text><text xml:space="preserve" font-family="Helvetica-Light" font-size="36.0" fill="#493445" transform="matrix(1.00, 0.00, -0.00, -1.00, 325.7, 488.0)">o</text><text xml:space="preserve" font-family="Helvetica-Light" font-size="36.0" fill="#493445" transform="matrix(1.00, 0.00, -0.00, -1.00, 345.7, 488.0)">n</text><text xml:space="preserve" font-family="Helvetica-Light" font-size="36.0" fill="#493445" transform="matrix(1.00, 0.00, -0.00, -1.00, 365.8, 488.0)">t</text><text xml:space="preserve" font-family="Helvetica-Light" font-size="36.0" fill="#493445" transform="matrix(1.00, 0.00, -0.00, -1.00, 375.8, 488.0)">o</text><text xml:space="preserve" font-family="Helvetica-Light" font-size="36.0" fill="#493445" transform="matrix(1.00, 0.00, -0.00, -1.00, 395.8, 488.0)"> </text><text xml:space="preserve" font-family="Helvetica-Light" font-size="36.0" fill="#493445" transform="matrix(1.00, 0.00, -0.00, -1.00, 405.8, 488.0)">o</text><text xml:space="preserve" font-family="Helvetica-Light" font-size="36.0" fill="#493445" transform="matrix(1.00, 0.00, -0.00, -1.00, 425.8, 488.0)">n</text><text xml:space="preserve" font-family="Helvetica-Light" font-size="36.0" fill="#493445" transform="matrix(1.00, 0.00, -0.00, -1.00, 445.8, 488.0)">d</text><text xml:space="preserve" font-family="Helvetica-Light" font-size="36.0" fill="#493445" transform="matrix(1.00, 0.00, -0.00, -1.00, 467.8, 488.0)">e</text><text xml:space="preserve" font-family="Helvetica-Light" font-size="36.0" fill="#493445" transform="matrix(1.00, 0.00, -0.00, -1.00, 487.8, 488.0)"> </text><text xml:space="preserve" font-family="Helvetica-Light" font-size="36.0" fill="#493445" transform="matrix(1.00, 0.00, -0.00, -1.00, 497.8, 488.0)">s</text><text xml:space="preserve" font-family="Helvetica-Light" font-size="36.0" fill="#493445" transform="matrix(1.00, 0.00, -0.00, -1.00, 515.8, 488.0)">e</text><text xml:space="preserve" font-family="Helvetica-Light" font-size="36.0" fill="#493445" transform="matrix(1.00, 0.00, -0.00, -1.00, 535.9, 488.0)"> </text><text xml:space="preserve" font-family="Helvetica-Light" font-size="36.0" fill="#493445" transform="matrix(1.00, 0.00, -0.00, -1.00, 545.9, 488.0)">i</text><text xml:space="preserve" font-family="Helvetica-Light" font-size="36.0" fill="#493445" transform="matrix(1.00, 0.00, -0.00, -1.00, 553.9, 488.0)">n</text><text xml:space="preserve" font-family="Helvetica-Light" font-size="36.0" fill="#493445" transform="matrix(1.00, 0.00, -0.00, -1.00, 573.9, 488.0)">i</text><text xml:space="preserve" font-family="Helvetica-Light" font-size="36.0" fill="#493445" transform="matrix(1.00, 0.00, -0.00, -1.00, 581.9, 488.0)">c</text><text xml:space="preserve" font-family="Helvetica-Light" font-size="36.0" fill="#493445" transform="matrix(1.00, 0.00, -0.00, -1.00, 601.9, 488.0)">i</text><text xml:space="preserve" font-family="Helvetica-Light" font-size="36.0" fill="#493445" transform="matrix(1.00, 0.00, -0.00, -1.00, 609.9, 488.0)">a</text><text xml:space="preserve" font-family="Helvetica-Light" font-size="36.0" fill="#493445" transform="matrix(1.00, 0.00, -0.00, -1.00, 629.9, 488.0)"> </text><text xml:space="preserve" font-family="Helvetica-Light" font-size="36.0" fill="#493445" transform="matrix(1.00, 0.00, -0.00, -1.00, 639.9, 488.0)">u</text><text xml:space="preserve" font-family="Helvetica-Light" font-size="36.0" fill="#493445" transform="matrix(1.00, 0.00, -0.00, -1.00, 659.9, 488.0)">m</text><text xml:space="preserve" font-family="Helvetica-Light" font-size="36.0" fill="#493445" transform="matrix(1.00, 0.00, -0.00, -1.00, 689.9, 488.0)">a</text><text xml:space="preserve" font-family="Helvetica-Light" font-size="36.0" fill="#493445" transform="matrix(1.00, 0.00, -0.00, -1.00, 709.9, 488.0)"> </text><text xml:space="preserve" font-family="Helvetica-Light" font-size="36.0" fill="#493445" transform="matrix(1.00, 0.00, -0.00, -1.00, 719.9, 488.0)">a</text><text xml:space="preserve" font-family="Helvetica-Light" font-size="36.0" fill="#493445" transform="matrix(1.00, 0.00, -0.00, -1.00, 739.9, 488.0)">ç</text><text xml:space="preserve" font-family="Helvetica-Light" font-size="36.0" fill="#493445" transform="matrix(1.00, 0.00, -0.00, -1.00, 760.0, 488.0)">ã</text><text xml:space="preserve" font-family="Helvetica-Light" font-size="36.0" fill="#493445" transform="matrix(1.00, 0.00, -0.00, -1.00, 780.0, 488.0)">o</text><text xml:space="preserve" font-family="Helvetica-Light" font-size="36.0" fill="#493445" transform="matrix(1.00, 0.00, -0.00, -1.00, 800.0, 488.0)">.</text><text xml:space="preserve" font-family="Helvetica-Light" font-size="21.6" fill="#493445" transform="matrix(1.00, 0.00, -0.00, -1.00, 125.6, 410.5)">•</text><text xml:space="preserve" font-family="Helvetica-Light" font-size="30.0" fill="#493445" transform="matrix(1.00, 0.00, -0.00, -1.00, 161.0, 407.0)">M</text><text xml:space="preserve" font-family="Helvetica-Light" font-size="30.0" fill="#493445" transform="matrix(1.00, 0.00, -0.00, -1.00, 186.0, 407.0)">a</text><text xml:space="preserve" font-family="Helvetica-Light" font-size="30.0" fill="#493445" transform="matrix(1.00, 0.00, -0.00, -1.00, 202.7, 407.0)">n</text><text xml:space="preserve" font-family="Helvetica-Light" font-size="30.0" fill="#493445" transform="matrix(1.00, 0.00, -0.00, -1.00, 219.3, 407.0)">u</text><text xml:space="preserve" font-family="Helvetica-Light" font-size="30.0" fill="#493445" transform="matrix(1.00, 0.00, -0.00, -1.00, 236.0, 407.0)">a</text><text xml:space="preserve" font-family="Helvetica-Light" font-size="30.0" fill="#493445" transform="matrix(1.00, 0.00, -0.00, -1.00, 252.7, 407.0)">l</text><text xml:space="preserve" font-family="Helvetica-Light" font-size="30.0" fill="#493445" transform="matrix(1.00, 0.00, -0.00, -1.00, 259.4, 407.0)"> </text><text xml:space="preserve" font-family="Helvetica-Light" font-size="30.0" fill="#493445" transform="matrix(1.00, 0.00, -0.00, -1.00, 267.7, 407.0)">T</text><text xml:space="preserve" font-family="Helvetica-Light" font-size="30.0" fill="#493445" transform="matrix(1.00, 0.00, -0.00, -1.00, 281.6, 407.0)">r</text><text xml:space="preserve" font-family="Helvetica-Light" font-size="30.0" fill="#493445" transform="matrix(1.00, 0.00, -0.00, -1.00, 291.6, 407.0)">i</text><text xml:space="preserve" font-family="Helvetica-Light" font-size="30.0" fill="#493445" transform="matrix(1.00, 0.00, -0.00, -1.00, 298.3, 407.0)">g</text><text xml:space="preserve" font-family="Helvetica-Light" font-size="30.0" fill="#493445" transform="matrix(1.00, 0.00, -0.00, -1.00, 316.6, 407.0)">g</text><text xml:space="preserve" font-family="Helvetica-Light" font-size="30.0" fill="#493445" transform="matrix(1.00, 0.00, -0.00, -1.00, 334.9, 407.0)">e</text><text xml:space="preserve" font-family="Helvetica-Light" font-size="30.0" fill="#493445" transform="matrix(1.00, 0.00, -0.00, -1.00, 351.6, 407.0)">r</text><text xml:space="preserve" font-family="Helvetica-Light" font-size="30.0" fill="#493445" transform="matrix(1.00, 0.00, -0.00, -1.00, 361.6, 407.0)">s</text><text xml:space="preserve" font-family="Helvetica-Light" font-size="30.0" fill="#493445" transform="matrix(1.00, 0.00, -0.00, -1.00, 376.6, 407.0)"> </text><text xml:space="preserve" font-family="Helvetica-Light" font-size="21.6" fill="#493445" transform="matrix(1.00, 0.00, -0.00, -1.00, 125.6, 356.5)">•</text><text xml:space="preserve" font-family="Helvetica-Light" font-size="30.0" fill="#493445" transform="matrix(1.00, 0.00, -0.00, -1.00, 161.0, 353.0)">S</text><text xml:space="preserve" font-family="Helvetica-Light" font-size="30.0" fill="#493445" transform="matrix(1.00, 0.00, -0.00, -1.00, 179.3, 353.0)">y</text><text xml:space="preserve" font-family="Helvetica-Light" font-size="30.0" fill="#493445" transform="matrix(1.00, 0.00, -0.00, -1.00, 194.3, 353.0)">s</text><text xml:space="preserve" font-family="Helvetica-Light" font-size="30.0" fill="#493445" transform="matrix(1.00, 0.00, -0.00, -1.00, 209.3, 353.0)">t</text><text xml:space="preserve" font-family="Helvetica-Light" font-size="30.0" fill="#493445" transform="matrix(1.00, 0.00, -0.00, -1.00, 217.7, 353.0)">e</text><text xml:space="preserve" font-family="Helvetica-Light" font-size="30.0" fill="#493445" transform="matrix(1.00, 0.00, -0.00, -1.00, 234.3, 353.0)">m</text><text xml:space="preserve" font-family="Helvetica-Light" font-size="30.0" fill="#493445" transform="matrix(1.00, 0.00, -0.00, -1.00, 259.3, 353.0)"> </text><text xml:space="preserve" font-family="Helvetica-Light" font-size="30.0" fill="#493445" transform="matrix(1.00, 0.00, -0.00, -1.00, 267.7, 353.0)">T</text><text xml:space="preserve" font-family="Helvetica-Light" font-size="30.0" fill="#493445" transform="matrix(1.00, 0.00, -0.00, -1.00, 281.6, 353.0)">r</text><text xml:space="preserve" font-family="Helvetica-Light" font-size="30.0" fill="#493445" transform="matrix(1.00, 0.00, -0.00, -1.00, 291.6, 353.0)">i</text><text xml:space="preserve" font-family="Helvetica-Light" font-size="30.0" fill="#493445" transform="matrix(1.00, 0.00, -0.00, -1.00, 298.2, 353.0)">g</text><text xml:space="preserve" font-family="Helvetica-Light" font-size="30.0" fill="#493445" transform="matrix(1.00, 0.00, -0.00, -1.00, 316.6, 353.0)">g</text><text xml:space="preserve" font-family="Helvetica-Light" font-size="30.0" fill="#493445" transform="matrix(1.00, 0.00, -0.00, -1.00, 334.9, 353.0)">e</text><text xml:space="preserve" font-family="Helvetica-Light" font-size="30.0" fill="#493445" transform="matrix(1.00, 0.00, -0.00, -1.00, 351.6, 353.0)">r</text><text xml:space="preserve" font-family="Helvetica-Light" font-size="30.0" fill="#493445" transform="matrix(1.00, 0.00, -0.00, -1.00, 361.6, 353.0)">s</text><text xml:space="preserve" font-family="Helvetica-Bold" font-weight="bold" font-size="60.0" fill="#493445" transform="matrix(1.00, 0.00, -0.00, -1.00, 122.0, 576.0)">T</text><text xml:space="preserve" font-family="Helvetica-Bold" font-weight="bold" font-size="60.0" fill="#493445" transform="matrix(1.00, 0.00, -0.00, -1.00, 155.4, 576.0)">r</text><text xml:space="preserve" font-family="Helvetica-Bold" font-weight="bold" font-size="60.0" fill="#493445" transform="matrix(1.00, 0.00, -0.00, -1.00, 178.7, 576.0)">i</text><text xml:space="preserve" font-family="Helvetica-Bold" font-weight="bold" font-size="60.0" fill="#493445" transform="matrix(1.00, 0.00, -0.00, -1.00, 195.4, 576.0)">g</text><text xml:space="preserve" font-family="Helvetica-Bold" font-weight="bold" font-size="60.0" fill="#493445" transform="matrix(1.00, 0.00, -0.00, -1.00, 232.1, 576.0)">g</text><text xml:space="preserve" font-family="Helvetica-Bold" font-weight="bold" font-size="60.0" fill="#493445" transform="matrix(1.00, 0.00, -0.00, -1.00, 268.7, 576.0)">e</text><text xml:space="preserve" font-family="Helvetica-Bold" font-weight="bold" font-size="60.0" fill="#493445" transform="matrix(1.00, 0.00, -0.00, -1.00, 302.1, 576.0)">r</text><g><clipPath id="clip-782"><path d="M 0.0 667.0 L 620.0 667.0 L 620.0 768.0 L 0.0 768.0 Z M 0.0 667.0 "></path></clipPath><g clip-path="url(#clip-782)"><text xml:space="preserve" font-family="SourceSansPro-Regular" font-size="24.0" fill="#5C4658" transform="matrix(1.00, 0.00, -0.00, -1.00, 130.0, 709.0)">C</text><text xml:space="preserve" font-family="SourceSansPro-Regular" font-size="24.0" fill="#5C4658" transform="matrix(1.00, 0.00, -0.00, -1.00, 143.7, 709.0)">r</text><text xml:space="preserve" font-family="SourceSansPro-Regular" font-size="24.0" fill="#5C4658" transform="matrix(1.00, 0.00, -0.00, -1.00, 152.0, 709.0)">i</text><text xml:space="preserve" font-family="SourceSansPro-Regular" font-size="24.0" fill="#5C4658" transform="matrix(1.00, 0.00, -0.00, -1.00, 157.9, 709.0)">a</text><text xml:space="preserve" font-family="SourceSansPro-Regular" font-size="24.0" fill="#5C4658" transform="matrix(1.00, 0.00, -0.00, -1.00, 170.2, 709.0)">n</text><text xml:space="preserve" font-family="SourceSansPro-Regular" font-size="24.0" fill="#5C4658" transform="matrix(1.00, 0.00, -0.00, -1.00, 183.4, 709.0)">d</text><text xml:space="preserve" font-family="SourceSansPro-Regular" font-size="24.0" fill="#5C4658" transform="matrix(1.00, 0.00, -0.00, -1.00, 196.7, 709.0)">o</text><text xml:space="preserve" font-family="SourceSansPro-Regular" font-size="24.0" fill="#5C4658" transform="matrix(1.00, 0.00, -0.00, -1.00, 209.7, 709.0)"> </text><text xml:space="preserve" font-family="SourceSansPro-Regular" font-size="24.0" fill="#5C4658" transform="matrix(1.00, 0.00, -0.00, -1.00, 214.5, 709.0)">m</text><text xml:space="preserve" font-family="SourceSansPro-Regular" font-size="24.0" fill="#5C4658" transform="matrix(1.00, 0.00, -0.00, -1.00, 234.4, 709.0)">i</text><text xml:space="preserve" font-family="SourceSansPro-Regular" font-size="24.0" fill="#5C4658" transform="matrix(1.00, 0.00, -0.00, -1.00, 240.3, 709.0)">c</text><text xml:space="preserve" font-family="SourceSansPro-Regular" font-size="24.0" fill="#5C4658" transform="matrix(1.00, 0.00, -0.00, -1.00, 251.3, 709.0)">r</text><text xml:space="preserve" font-family="SourceSansPro-Regular" font-size="24.0" fill="#5C4658" transform="matrix(1.00, 0.00, -0.00, -1.00, 259.6, 709.0)">o</text><text xml:space="preserve" font-family="SourceSansPro-Regular" font-size="24.0" fill="#5C4658" transform="matrix(1.00, 0.00, -0.00, -1.00, 272.6, 709.0)">i</text><text xml:space="preserve" font-family="SourceSansPro-Regular" font-size="24.0" fill="#5C4658" transform="matrix(1.00, 0.00, -0.00, -1.00, 278.5, 709.0)">n</text><text xml:space="preserve" font-family="SourceSansPro-Regular" font-size="24.0" fill="#5C4658" transform="matrix(1.00, 0.00, -0.00, -1.00, 291.6, 709.0)">t</text><text xml:space="preserve" font-family="SourceSansPro-Regular" font-size="24.0" fill="#5C4658" transform="matrix(1.00, 0.00, -0.00, -1.00, 299.8, 709.0)">e</text><text xml:space="preserve" font-family="SourceSansPro-Regular" font-size="24.0" fill="#5C4658" transform="matrix(1.00, 0.00, -0.00, -1.00, 311.7, 709.0)">r</text><text xml:space="preserve" font-family="SourceSansPro-Regular" font-size="24.0" fill="#5C4658" transform="matrix(1.00, 0.00, -0.00, -1.00, 320.0, 709.0)">a</text><text xml:space="preserve" font-family="SourceSansPro-Regular" font-size="24.0" fill="#5C4658" transform="matrix(1.00, 0.00, -0.00, -1.00, 332.3, 709.0)">ç</text><text xml:space="preserve" font-family="SourceSansPro-Regular" font-size="24.0" fill="#5C4658" transform="matrix(1.00, 0.00, -0.00, -1.00, 343.2, 709.0)">õ</text><text xml:space="preserve" font-family="SourceSansPro-Regular" font-size="24.0" fill="#5C4658" transform="matrix(1.00, 0.00, -0.00, -1.00, 356.2, 709.0)">e</text><text xml:space="preserve" font-family="SourceSansPro-Regular" font-size="24.0" fill="#5C4658" transform="matrix(1.00, 0.00, -0.00, -1.00, 368.1, 709.0)">s</text><text xml:space="preserve" font-family="SourceSansPro-Regular" font-size="24.0" fill="#5C4658" transform="matrix(1.00, 0.00, -0.00, -1.00, 378.2, 709.0)"> </text><text xml:space="preserve" font-family="SourceSansPro-Regular" font-size="24.0" fill="#5C4658" transform="matrix(1.00, 0.00, -0.00, -1.00, 383.0, 709.0)">c</text><text xml:space="preserve" font-family="SourceSansPro-Regular" font-size="24.0" fill="#5C4658" transform="matrix(1.00, 0.00, -0.00, -1.00, 394.0, 709.0)">o</text><text xml:space="preserve" font-family="SourceSansPro-Regular" font-size="24.0" fill="#5C4658" transform="matrix(1.00, 0.00, -0.00, -1.00, 407.0, 709.0)">m</text><text xml:space="preserve" font-family="SourceSansPro-Regular" font-size="24.0" fill="#5C4658" transform="matrix(1.00, 0.00, -0.00, -1.00, 426.9, 709.0)"> </text><text xml:space="preserve" font-family="SourceSansPro-Regular" font-size="24.0" fill="#5C4658" transform="matrix(1.00, 0.00, -0.00, -1.00, 431.7, 709.0)">J</text><text xml:space="preserve" font-family="SourceSansPro-Regular" font-size="24.0" fill="#5C4658" transform="matrix(1.00, 0.00, -0.00, -1.00, 443.2, 709.0)">a</text><text xml:space="preserve" font-family="SourceSansPro-Regular" font-size="24.0" fill="#5C4658" transform="matrix(1.00, 0.00, -0.00, -1.00, 455.5, 709.0)">v</text><text xml:space="preserve" font-family="SourceSansPro-Regular" font-size="24.0" fill="#5C4658" transform="matrix(1.00, 0.00, -0.00, -1.00, 466.7, 709.0)">a</text><text xml:space="preserve" font-family="SourceSansPro-Regular" font-size="24.0" fill="#5C4658" transform="matrix(1.00, 0.00, -0.00, -1.00, 479.0, 709.0)">S</text><text xml:space="preserve" font-family="SourceSansPro-Regular" font-size="24.0" fill="#5C4658" transform="matrix(1.00, 0.00, -0.00, -1.00, 491.8, 709.0)">c</text><text xml:space="preserve" font-family="SourceSansPro-Regular" font-size="24.0" fill="#5C4658" transform="matrix(1.00, 0.00, -0.00, -1.00, 502.8, 709.0)">r</text><text xml:space="preserve" font-family="SourceSansPro-Regular" font-size="24.0" fill="#5C4658" transform="matrix(1.00, 0.00, -0.00, -1.00, 511.1, 709.0)">i</text><text xml:space="preserve" font-family="SourceSansPro-Regular" font-size="24.0" fill="#5C4658" transform="matrix(1.00, 0.00, -0.00, -1.00, 517.0, 709.0)">p</text><text xml:space="preserve" font-family="SourceSansPro-Regular" font-size="24.0" fill="#5C4658" transform="matrix(1.00, 0.00, -0.00, -1.00, 530.3, 709.0)">t</text><text xml:space="preserve" font-family="SourceSansPro-Regular" font-size="24.0" fill="#5C4658" transform="matrix(1.00, 0.00, -0.00, -1.00, 538.5, 709.0)"> </text><text xml:space="preserve" font-family="SourceSansPro-Regular" font-size="24.0" fill="#5C4658" transform="matrix(1.00, 0.00, -0.00, -1.00, 543.3, 709.0)">s</text><text xml:space="preserve" font-family="SourceSansPro-Regular" font-size="24.0" fill="#5C4658" transform="matrix(1.00, 0.00, -0.00, -1.00, 553.4, 709.0)">i</text><text xml:space="preserve" font-family="SourceSansPro-Regular" font-size="24.0" fill="#5C4658" transform="matrix(1.00, 0.00, -0.00, -1.00, 559.3, 709.0)">m</text><text xml:space="preserve" font-family="SourceSansPro-Regular" font-size="24.0" fill="#5C4658" transform="matrix(1.00, 0.00, -0.00, -1.00, 579.2, 709.0)">p</text><text xml:space="preserve" font-family="SourceSansPro-Regular" font-size="24.0" fill="#5C4658" transform="matrix(1.00, 0.00, -0.00, -1.00, 592.5, 709.0)">l</text><text xml:space="preserve" font-family="SourceSansPro-Regular" font-size="24.0" fill="#5C4658" transform="matrix(1.00, 0.00, -0.00, -1.00, 598.6, 709.0)">e</text><text xml:space="preserve" font-family="SourceSansPro-Regular" font-size="24.0" fill="#5C4658" transform="matrix(1.00, 0.00, -0.00, -1.00, 610.5, 709.0)">s</text></g></g><g><clipPath id="clip-783"><path d="M 0.0 767.9 L 100.0 767.9 L 100.0 667.9 L 0.0 667.9 L 0.0 767.9 Z M 0.0 767.9 "></path></clipPath><g clip-path="url(#clip-783)"><g><clipPath id="clip-784"><path d="M 0.0 667.0 L 620.0 667.0 L 620.0 768.0 L 0.0 768.0 Z M 0.0 667.0 "></path></clipPath><g clip-path="url(#clip-784)"><path d="M -5.0 772.9 L 105.0 772.9 L 105.0 662.9 L -5.0 662.9 Z M -5.0 772.9 " fill="#2B8DFF"></path></g></g></g></g><g><clipPath id="clip-785"><path d="M 0.0 667.0 L 620.0 667.0 L 620.0 768.0 L 0.0 768.0 Z M 0.0 667.0 "></path></clipPath><g clip-path="url(#clip-785)"><text xml:space="preserve" font-family="HelveticaNeue-Bold" font-weight="bold" font-size="30.8" fill="#FEFFFF" transform="matrix(1.00, 0.00, -0.00, -1.00, 14.4, 706.5)">F</text><text xml:space="preserve" font-family="HelveticaNeue-Bold" font-weight="bold" font-size="30.8" fill="#FEFFFF" transform="matrix(1.00, 0.00, -0.00, -1.00, 30.9, 706.5)">r</text><text xml:space="preserve" font-family="HelveticaNeue-Bold" font-weight="bold" font-size="30.8" fill="#FEFFFF" transform="matrix(1.00, 0.00, -0.00, -1.00, 40.6, 706.5)">o</text><text xml:space="preserve" font-family="HelveticaNeue-Bold" font-weight="bold" font-size="30.8" fill="#FEFFFF" transform="matrix(1.00, 0.00, -0.00, -1.00, 57.7, 706.5)">n</text><text xml:space="preserve" font-family="HelveticaNeue-Bold" font-weight="bold" font-size="30.8" fill="#FEFFFF" transform="matrix(1.00, 0.00, -0.00, -1.00, 74.2, 706.5)">t</text><text xml:space="preserve" font-family="HelveticaNeue-Bold" font-weight="bold" font-size="30.8" fill="#FEFFFF" transform="matrix(1.00, 0.00, -0.00, -1.00, 83.4, 706.5)"> </text></g></g></g></svg>