<?xml version="1.0" encoding="UTF-8" standalone="no"?><svg xmlns="http://www.w3.org/2000/svg" xmlns:xlink="http://www.w3.org/1999/xlink" clip-rule="evenodd" stroke-miterlimit="4.00" viewBox="0 0 1024 768"><desc>SVG generated by Keynote</desc><defs></defs><g transform="matrix(1.00, 0.00, -0.00, -1.00, 0.0, 768.0)"><path d="M 0.0 768.0 L 1024.0 768.0 L 1024.0 0.0 L 0.0 0.0 Z M 0.0 768.0 " fill="#FEFFFF"></path><text xml:space="preserve" font-family="Helvetica-Bold" font-weight="bold" font-size="60.0" fill="#493445" transform="matrix(1.00, 0.00, -0.00, -1.00, 119.0, 576.0)">R</text><text xml:space="preserve" font-family="Helvetica-Bold" font-weight="bold" font-size="60.0" fill="#493445" transform="matrix(1.00, 0.00, -0.00, -1.00, 162.3, 576.0)">u</text><text xml:space="preserve" font-family="Helvetica-Bold" font-weight="bold" font-size="60.0" fill="#493445" transform="matrix(1.00, 0.00, -0.00, -1.00, 199.0, 576.0)">l</text><text xml:space="preserve" font-family="Helvetica-Bold" font-weight="bold" font-size="60.0" fill="#493445" transform="matrix(1.00, 0.00, -0.00, -1.00, 215.7, 576.0)">e</text><text xml:space="preserve" font-family="Helvetica-Bold" font-weight="bold" font-size="60.0" fill="#493445" transform="matrix(1.00, 0.00, -0.00, -1.00, 249.1, 576.0)">s</text><text xml:space="preserve" font-family="Helvetica-Light" font-size="36.0" fill="#493445" transform="matrix(1.00, 0.00, -0.00, -1.00, 118.0, 490.0)">U</text><text xml:space="preserve" font-family="Helvetica-Light" font-size="36.0" fill="#493445" transform="matrix(1.00, 0.00, -0.00, -1.00, 144.0, 490.0)">m</text><text xml:space="preserve" font-family="Helvetica-Light" font-size="36.0" fill="#493445" transform="matrix(1.00, 0.00, -0.00, -1.00, 174.0, 490.0)">a</text><text xml:space="preserve" font-family="Helvetica-Light" font-size="36.0" fill="#493445" transform="matrix(1.00, 0.00, -0.00, -1.00, 194.0, 490.0)"> </text><text xml:space="preserve" font-family="Helvetica-Light" font-size="36.0" fill="#493445" transform="matrix(1.00, 0.00, -0.00, -1.00, 204.0, 490.0)">r</text><text xml:space="preserve" font-family="Helvetica-Light" font-size="36.0" fill="#493445" transform="matrix(1.00, 0.00, -0.00, -1.00, 216.0, 490.0)">u</text><text xml:space="preserve" font-family="Helvetica-Light" font-size="36.0" fill="#493445" transform="matrix(1.00, 0.00, -0.00, -1.00, 236.0, 490.0)">l</text><text xml:space="preserve" font-family="Helvetica-Light" font-size="36.0" fill="#493445" transform="matrix(1.00, 0.00, -0.00, -1.00, 244.0, 490.0)">e</text><text xml:space="preserve" font-family="Helvetica-Light" font-size="36.0" fill="#493445" transform="matrix(1.00, 0.00, -0.00, -1.00, 264.0, 490.0)"> </text><text xml:space="preserve" font-family="Helvetica-Light" font-size="36.0" fill="#493445" transform="matrix(1.00, 0.00, -0.00, -1.00, 274.0, 490.0)">d</text><text xml:space="preserve" font-family="Helvetica-Light" font-size="36.0" fill="#493445" transform="matrix(1.00, 0.00, -0.00, -1.00, 296.0, 490.0)">e</text><text xml:space="preserve" font-family="Helvetica-Light" font-size="36.0" fill="#493445" transform="matrix(1.00, 0.00, -0.00, -1.00, 316.0, 490.0)">ﬁ</text><text xml:space="preserve" font-family="Helvetica-Light" font-size="36.0" fill="#493445" transform="matrix(1.00, 0.00, -0.00, -1.00, 334.0, 490.0)">n</text><text xml:space="preserve" font-family="Helvetica-Light" font-size="36.0" fill="#493445" transform="matrix(1.00, 0.00, -0.00, -1.00, 354.1, 490.0)">e</text><text xml:space="preserve" font-family="Helvetica-Light" font-size="36.0" fill="#493445" transform="matrix(1.00, 0.00, -0.00, -1.00, 374.1, 490.0)"> </text><text xml:space="preserve" font-family="Helvetica-Light" font-size="36.0" fill="#493445" transform="matrix(1.00, 0.00, -0.00, -1.00, 384.1, 490.0)">c</text><text xml:space="preserve" font-family="Helvetica-Light" font-size="36.0" fill="#493445" transform="matrix(1.00, 0.00, -0.00, -1.00, 404.1, 490.0)">o</text><text xml:space="preserve" font-family="Helvetica-Light" font-size="36.0" fill="#493445" transform="matrix(1.00, 0.00, -0.00, -1.00, 424.1, 490.0)">m</text><text xml:space="preserve" font-family="Helvetica-Light" font-size="36.0" fill="#493445" transform="matrix(1.00, 0.00, -0.00, -1.00, 454.1, 490.0)">o</text><text xml:space="preserve" font-family="Helvetica-Light" font-size="36.0" fill="#493445" transform="matrix(1.00, 0.00, -0.00, -1.00, 474.1, 490.0)"> </text><text xml:space="preserve" font-family="Helvetica-Light" font-size="36.0" fill="#493445" transform="matrix(1.00, 0.00, -0.00, -1.00, 484.1, 490.0)">o</text><text xml:space="preserve" font-family="Helvetica-Light" font-size="36.0" fill="#493445" transform="matrix(1.00, 0.00, -0.00, -1.00, 504.1, 490.0)">c</text><text xml:space="preserve" font-family="Helvetica-Light" font-size="36.0" fill="#493445" transform="matrix(1.00, 0.00, -0.00, -1.00, 524.2, 490.0)">o</text><text xml:space="preserve" font-family="Helvetica-Light" font-size="36.0" fill="#493445" transform="matrix(1.00, 0.00, -0.00, -1.00, 544.2, 490.0)">r</text><text xml:space="preserve" font-family="Helvetica-Light" font-size="36.0" fill="#493445" transform="matrix(1.00, 0.00, -0.00, -1.00, 556.2, 490.0)">r</text><text xml:space="preserve" font-family="Helvetica-Light" font-size="36.0" fill="#493445" transform="matrix(1.00, 0.00, -0.00, -1.00, 567.5, 490.0)">e</text><text xml:space="preserve" font-family="Helvetica-Light" font-size="36.0" fill="#493445" transform="matrix(1.00, 0.00, -0.00, -1.00, 587.5, 490.0)">r</text><text xml:space="preserve" font-family="Helvetica-Light" font-size="36.0" fill="#493445" transform="matrix(1.00, 0.00, -0.00, -1.00, 599.5, 490.0)">á</text><text xml:space="preserve" font-family="Helvetica-Light" font-size="36.0" fill="#493445" transform="matrix(1.00, 0.00, -0.00, -1.00, 619.5, 490.0)"> </text><text xml:space="preserve" font-family="Helvetica-Light" font-size="36.0" fill="#493445" transform="matrix(1.00, 0.00, -0.00, -1.00, 629.5, 490.0)">o</text><text xml:space="preserve" font-family="Helvetica-Light" font-size="36.0" fill="#493445" transform="matrix(1.00, 0.00, -0.00, -1.00, 649.5, 490.0)"> </text><text xml:space="preserve" font-family="Helvetica-Light" font-size="36.0" fill="#493445" transform="matrix(1.00, 0.00, -0.00, -1.00, 118.0, 447.0)">ﬂ</text><text xml:space="preserve" font-family="Helvetica-Light" font-size="36.0" fill="#493445" transform="matrix(1.00, 0.00, -0.00, -1.00, 136.0, 447.0)">u</text><text xml:space="preserve" font-family="Helvetica-Light" font-size="36.0" fill="#493445" transform="matrix(1.00, 0.00, -0.00, -1.00, 156.0, 447.0)">x</text><text xml:space="preserve" font-family="Helvetica-Light" font-size="36.0" fill="#493445" transform="matrix(1.00, 0.00, -0.00, -1.00, 174.0, 447.0)">o</text><text xml:space="preserve" font-family="Helvetica-Light" font-size="36.0" fill="#493445" transform="matrix(1.00, 0.00, -0.00, -1.00, 194.0, 447.0)"> </text><text xml:space="preserve" font-family="Helvetica-Light" font-size="36.0" fill="#493445" transform="matrix(1.00, 0.00, -0.00, -1.00, 204.0, 447.0)">d</text><text xml:space="preserve" font-family="Helvetica-Light" font-size="36.0" fill="#493445" transform="matrix(1.00, 0.00, -0.00, -1.00, 226.0, 447.0)">a</text><text xml:space="preserve" font-family="Helvetica-Light" font-size="36.0" fill="#493445" transform="matrix(1.00, 0.00, -0.00, -1.00, 246.1, 447.0)"> </text><text xml:space="preserve" font-family="Helvetica-Light" font-size="36.0" fill="#493445" transform="matrix(1.00, 0.00, -0.00, -1.00, 256.1, 447.0)">i</text><text xml:space="preserve" font-family="Helvetica-Light" font-size="36.0" fill="#493445" transform="matrix(1.00, 0.00, -0.00, -1.00, 264.1, 447.0)">n</text><text xml:space="preserve" font-family="Helvetica-Light" font-size="36.0" fill="#493445" transform="matrix(1.00, 0.00, -0.00, -1.00, 284.1, 447.0)">t</text><text xml:space="preserve" font-family="Helvetica-Light" font-size="36.0" fill="#493445" transform="matrix(1.00, 0.00, -0.00, -1.00, 294.1, 447.0)">e</text><text xml:space="preserve" font-family="Helvetica-Light" font-size="36.0" fill="#493445" transform="matrix(1.00, 0.00, -0.00, -1.00, 314.1, 447.0)">r</text><text xml:space="preserve" font-family="Helvetica-Light" font-size="36.0" fill="#493445" transform="matrix(1.00, 0.00, -0.00, -1.00, 326.1, 447.0)">a</text><text xml:space="preserve" font-family="Helvetica-Light" font-size="36.0" fill="#493445" transform="matrix(1.00, 0.00, -0.00, -1.00, 346.1, 447.0)">ç</text><text xml:space="preserve" font-family="Helvetica-Light" font-size="36.0" fill="#493445" transform="matrix(1.00, 0.00, -0.00, -1.00, 366.1, 447.0)">ã</text><text xml:space="preserve" font-family="Helvetica-Light" font-size="36.0" fill="#493445" transform="matrix(1.00, 0.00, -0.00, -1.00, 386.1, 447.0)">o</text><text xml:space="preserve" font-family="Helvetica-Light" font-size="36.0" fill="#493445" transform="matrix(1.00, 0.00, -0.00, -1.00, 406.1, 447.0)">.</text><text xml:space="preserve" font-family="Helvetica-Light" font-size="21.6" fill="#493445" transform="matrix(1.00, 0.00, -0.00, -1.00, 125.3, 375.0)">•</text><text xml:space="preserve" font-family="Helvetica-Light" font-size="30.0" fill="#493445" transform="matrix(1.00, 0.00, -0.00, -1.00, 160.0, 372.0)">C</text><text xml:space="preserve" font-family="Helvetica-Light" font-size="30.0" fill="#493445" transform="matrix(1.00, 0.00, -0.00, -1.00, 181.7, 372.0)">o</text><text xml:space="preserve" font-family="Helvetica-Light" font-size="30.0" fill="#493445" transform="matrix(1.00, 0.00, -0.00, -1.00, 198.3, 372.0)">m</text><text xml:space="preserve" font-family="Helvetica-Light" font-size="30.0" fill="#493445" transform="matrix(1.00, 0.00, -0.00, -1.00, 223.3, 372.0)">o</text><text xml:space="preserve" font-family="Helvetica-Light" font-size="30.0" fill="#493445" transform="matrix(1.00, 0.00, -0.00, -1.00, 240.0, 372.0)"> </text><text xml:space="preserve" font-family="Helvetica-Light" font-size="21.6" fill="#493445" transform="matrix(1.00, 0.00, -0.00, -1.00, 125.3, 321.0)">•</text><text xml:space="preserve" font-family="Helvetica-Light" font-size="30.0" fill="#493445" transform="matrix(1.00, 0.00, -0.00, -1.00, 160.0, 318.0)">Q</text><text xml:space="preserve" font-family="Helvetica-Light" font-size="30.0" fill="#493445" transform="matrix(1.00, 0.00, -0.00, -1.00, 183.3, 318.0)">u</text><text xml:space="preserve" font-family="Helvetica-Light" font-size="30.0" fill="#493445" transform="matrix(1.00, 0.00, -0.00, -1.00, 200.0, 318.0)">a</text><text xml:space="preserve" font-family="Helvetica-Light" font-size="30.0" fill="#493445" transform="matrix(1.00, 0.00, -0.00, -1.00, 216.7, 318.0)">n</text><text xml:space="preserve" font-family="Helvetica-Light" font-size="30.0" fill="#493445" transform="matrix(1.00, 0.00, -0.00, -1.00, 233.4, 318.0)">d</text><text xml:space="preserve" font-family="Helvetica-Light" font-size="30.0" fill="#493445" transform="matrix(1.00, 0.00, -0.00, -1.00, 251.7, 318.0)">o</text><text xml:space="preserve" font-family="Helvetica-Light" font-size="30.0" fill="#493445" transform="matrix(1.00, 0.00, -0.00, -1.00, 268.4, 318.0)"> </text><text xml:space="preserve" font-family="Helvetica-Light" font-size="21.6" fill="#493445" transform="matrix(1.00, 0.00, -0.00, -1.00, 125.3, 267.0)">•</text><text xml:space="preserve" font-family="Helvetica-Light" font-size="30.0" fill="#493445" transform="matrix(1.00, 0.00, -0.00, -1.00, 160.0, 264.0)">P</text><text xml:space="preserve" font-family="Helvetica-Light" font-size="30.0" fill="#493445" transform="matrix(1.00, 0.00, -0.00, -1.00, 178.3, 264.0)">o</text><text xml:space="preserve" font-family="Helvetica-Light" font-size="30.0" fill="#493445" transform="matrix(1.00, 0.00, -0.00, -1.00, 195.0, 264.0)">r</text><text xml:space="preserve" font-family="Helvetica-Light" font-size="30.0" fill="#493445" transform="matrix(1.00, 0.00, -0.00, -1.00, 205.0, 264.0)"> </text><text xml:space="preserve" font-family="Helvetica-Light" font-size="30.0" fill="#493445" transform="matrix(1.00, 0.00, -0.00, -1.00, 213.3, 264.0)">q</text><text xml:space="preserve" font-family="Helvetica-Light" font-size="30.0" fill="#493445" transform="matrix(1.00, 0.00, -0.00, -1.00, 231.7, 264.0)">u</text><text xml:space="preserve" font-family="Helvetica-Light" font-size="30.0" fill="#493445" transform="matrix(1.00, 0.00, -0.00, -1.00, 248.3, 264.0)">e</text><text xml:space="preserve" font-family="Helvetica-Light" font-size="30.0" fill="#493445" transform="matrix(1.00, 0.00, -0.00, -1.00, 265.0, 264.0)">?</text><g><clipPath id="clip-908"><path d="M 0.0 667.0 L 620.0 667.0 L 620.0 768.0 L 0.0 768.0 Z M 0.0 667.0 "></path></clipPath><g clip-path="url(#clip-908)"><text xml:space="preserve" font-family="SourceSansPro-Regular" font-size="24.0" fill="#5C4658" transform="matrix(1.00, 0.00, -0.00, -1.00, 130.0, 709.0)">C</text><text xml:space="preserve" font-family="SourceSansPro-Regular" font-size="24.0" fill="#5C4658" transform="matrix(1.00, 0.00, -0.00, -1.00, 143.7, 709.0)">r</text><text xml:space="preserve" font-family="SourceSansPro-Regular" font-size="24.0" fill="#5C4658" transform="matrix(1.00, 0.00, -0.00, -1.00, 152.0, 709.0)">i</text><text xml:space="preserve" font-family="SourceSansPro-Regular" font-size="24.0" fill="#5C4658" transform="matrix(1.00, 0.00, -0.00, -1.00, 157.9, 709.0)">a</text><text xml:space="preserve" font-family="SourceSansPro-Regular" font-size="24.0" fill="#5C4658" transform="matrix(1.00, 0.00, -0.00, -1.00, 170.2, 709.0)">n</text><text xml:space="preserve" font-family="SourceSansPro-Regular" font-size="24.0" fill="#5C4658" transform="matrix(1.00, 0.00, -0.00, -1.00, 183.4, 709.0)">d</text><text xml:space="preserve" font-family="SourceSansPro-Regular" font-size="24.0" fill="#5C4658" transform="matrix(1.00, 0.00, -0.00, -1.00, 196.7, 709.0)">o</text><text xml:space="preserve" font-family="SourceSansPro-Regular" font-size="24.0" fill="#5C4658" transform="matrix(1.00, 0.00, -0.00, -1.00, 209.7, 709.0)"> </text><text xml:space="preserve" font-family="SourceSansPro-Regular" font-size="24.0" fill="#5C4658" transform="matrix(1.00, 0.00, -0.00, -1.00, 214.5, 709.0)">m</text><text xml:space="preserve" font-family="SourceSansPro-Regular" font-size="24.0" fill="#5C4658" transform="matrix(1.00, 0.00, -0.00, -1.00, 234.4, 709.0)">i</text><text xml:space="preserve" font-family="SourceSansPro-Regular" font-size="24.0" fill="#5C4658" transform="matrix(1.00, 0.00, -0.00, -1.00, 240.3, 709.0)">c</text><text xml:space="preserve" font-family="SourceSansPro-Regular" font-size="24.0" fill="#5C4658" transform="matrix(1.00, 0.00, -0.00, -1.00, 251.3, 709.0)">r</text><text xml:space="preserve" font-family="SourceSansPro-Regular" font-size="24.0" fill="#5C4658" transform="matrix(1.00, 0.00, -0.00, -1.00, 259.6, 709.0)">o</text><text xml:space="preserve" font-family="SourceSansPro-Regular" font-size="24.0" fill="#5C4658" transform="matrix(1.00, 0.00, -0.00, -1.00, 272.6, 709.0)">i</text><text xml:space="preserve" font-family="SourceSansPro-Regular" font-size="24.0" fill="#5C4658" transform="matrix(1.00, 0.00, -0.00, -1.00, 278.5, 709.0)">n</text><text xml:space="preserve" font-family="SourceSansPro-Regular" font-size="24.0" fill="#5C4658" transform="matrix(1.00, 0.00, -0.00, -1.00, 291.6, 709.0)">t</text><text xml:space="preserve" font-family="SourceSansPro-Regular" font-size="24.0" fill="#5C4658" transform="matrix(1.00, 0.00, -0.00, -1.00, 299.8, 709.0)">e</text><text xml:space="preserve" font-family="SourceSansPro-Regular" font-size="24.0" fill="#5C4658" transform="matrix(1.00, 0.00, -0.00, -1.00, 311.7, 709.0)">r</text><text xml:space="preserve" font-family="SourceSansPro-Regular" font-size="24.0" fill="#5C4658" transform="matrix(1.00, 0.00, -0.00, -1.00, 320.0, 709.0)">a</text><text xml:space="preserve" font-family="SourceSansPro-Regular" font-size="24.0" fill="#5C4658" transform="matrix(1.00, 0.00, -0.00, -1.00, 332.3, 709.0)">ç</text><text xml:space="preserve" font-family="SourceSansPro-Regular" font-size="24.0" fill="#5C4658" transform="matrix(1.00, 0.00, -0.00, -1.00, 343.2, 709.0)">õ</text><text xml:space="preserve" font-family="SourceSansPro-Regular" font-size="24.0" fill="#5C4658" transform="matrix(1.00, 0.00, -0.00, -1.00, 356.2, 709.0)">e</text><text xml:space="preserve" font-family="SourceSansPro-Regular" font-size="24.0" fill="#5C4658" transform="matrix(1.00, 0.00, -0.00, -1.00, 368.1, 709.0)">s</text><text xml:space="preserve" font-family="SourceSansPro-Regular" font-size="24.0" fill="#5C4658" transform="matrix(1.00, 0.00, -0.00, -1.00, 378.2, 709.0)"> </text><text xml:space="preserve" font-family="SourceSansPro-Regular" font-size="24.0" fill="#5C4658" transform="matrix(1.00, 0.00, -0.00, -1.00, 383.0, 709.0)">c</text><text xml:space="preserve" font-family="SourceSansPro-Regular" font-size="24.0" fill="#5C4658" transform="matrix(1.00, 0.00, -0.00, -1.00, 394.0, 709.0)">o</text><text xml:space="preserve" font-family="SourceSansPro-Regular" font-size="24.0" fill="#5C4658" transform="matrix(1.00, 0.00, -0.00, -1.00, 407.0, 709.0)">m</text><text xml:space="preserve" font-family="SourceSansPro-Regular" font-size="24.0" fill="#5C4658" transform="matrix(1.00, 0.00, -0.00, -1.00, 426.9, 709.0)"> </text><text xml:space="preserve" font-family="SourceSansPro-Regular" font-size="24.0" fill="#5C4658" transform="matrix(1.00, 0.00, -0.00, -1.00, 431.7, 709.0)">J</text><text xml:space="preserve" font-family="SourceSansPro-Regular" font-size="24.0" fill="#5C4658" transform="matrix(1.00, 0.00, -0.00, -1.00, 443.2, 709.0)">a</text><text xml:space="preserve" font-family="SourceSansPro-Regular" font-size="24.0" fill="#5C4658" transform="matrix(1.00, 0.00, -0.00, -1.00, 455.5, 709.0)">v</text><text xml:space="preserve" font-family="SourceSansPro-Regular" font-size="24.0" fill="#5C4658" transform="matrix(1.00, 0.00, -0.00, -1.00, 466.7, 709.0)">a</text><text xml:space="preserve" font-family="SourceSansPro-Regular" font-size="24.0" fill="#5C4658" transform="matrix(1.00, 0.00, -0.00, -1.00, 479.0, 709.0)">S</text><text xml:space="preserve" font-family="SourceSansPro-Regular" font-size="24.0" fill="#5C4658" transform="matrix(1.00, 0.00, -0.00, -1.00, 491.8, 709.0)">c</text><text xml:space="preserve" font-family="SourceSansPro-Regular" font-size="24.0" fill="#5C4658" transform="matrix(1.00, 0.00, -0.00, -1.00, 502.8, 709.0)">r</text><text xml:space="preserve" font-family="SourceSansPro-Regular" font-size="24.0" fill="#5C4658" transform="matrix(1.00, 0.00, -0.00, -1.00, 511.1, 709.0)">i</text><text xml:space="preserve" font-family="SourceSansPro-Regular" font-size="24.0" fill="#5C4658" transform="matrix(1.00, 0.00, -0.00, -1.00, 517.0, 709.0)">p</text><text xml:space="preserve" font-family="SourceSansPro-Regular" font-size="24.0" fill="#5C4658" transform="matrix(1.00, 0.00, -0.00, -1.00, 530.3, 709.0)">t</text><text xml:space="preserve" font-family="SourceSansPro-Regular" font-size="24.0" fill="#5C4658" transform="matrix(1.00, 0.00, -0.00, -1.00, 538.5, 709.0)"> </text><text xml:space="preserve" font-family="SourceSansPro-Regular" font-size="24.0" fill="#5C4658" transform="matrix(1.00, 0.00, -0.00, -1.00, 543.3, 709.0)">s</text><text xml:space="preserve" font-family="SourceSansPro-Regular" font-size="24.0" fill="#5C4658" transform="matrix(1.00, 0.00, -0.00, -1.00, 553.4, 709.0)">i</text><text xml:space="preserve" font-family="SourceSansPro-Regular" font-size="24.0" fill="#5C4658" transform="matrix(1.00, 0.00, -0.00, -1.00, 559.3, 709.0)">m</text><text xml:space="preserve" font-family="SourceSansPro-Regular" font-size="24.0" fill="#5C4658" transform="matrix(1.00, 0.00, -0.00, -1.00, 579.2, 709.0)">p</text><text xml:space="preserve" font-family="SourceSansPro-Regular" font-size="24.0" fill="#5C4658" transform="matrix(1.00, 0.00, -0.00, -1.00, 592.5, 709.0)">l</text><text xml:space="preserve" font-family="SourceSansPro-Regular" font-size="24.0" fill="#5C4658" transform="matrix(1.00, 0.00, -0.00, -1.00, 598.6, 709.0)">e</text><text xml:space="preserve" font-family="SourceSansPro-Regular" font-size="24.0" fill="#5C4658" transform="matrix(1.00, 0.00, -0.00, -1.00, 610.5, 709.0)">s</text></g></g><g><clipPath id="clip-909"><path d="M 0.0 767.9 L 100.0 767.9 L 100.0 667.9 L 0.0 667.9 L 0.0 767.9 Z M 0.0 767.9 "></path></clipPath><g clip-path="url(#clip-909)"><g><clipPath id="clip-910"><path d="M 0.0 667.0 L 620.0 667.0 L 620.0 768.0 L 0.0 768.0 Z M 0.0 667.0 "></path></clipPath><g clip-path="url(#clip-910)"><path d="M -5.0 772.9 L 105.0 772.9 L 105.0 662.9 L -5.0 662.9 Z M -5.0 772.9 " fill="#2B8DFF"></path></g></g></g></g><g><clipPath id="clip-911"><path d="M 0.0 667.0 L 620.0 667.0 L 620.0 768.0 L 0.0 768.0 Z M 0.0 667.0 "></path></clipPath><g clip-path="url(#clip-911)"><text xml:space="preserve" font-family="HelveticaNeue-Bold" font-weight="bold" font-size="30.8" fill="#FEFFFF" transform="matrix(1.00, 0.00, -0.00, -1.00, 14.4, 706.5)">F</text><text xml:space="preserve" font-family="HelveticaNeue-Bold" font-weight="bold" font-size="30.8" fill="#FEFFFF" transform="matrix(1.00, 0.00, -0.00, -1.00, 30.9, 706.5)">r</text><text xml:space="preserve" font-family="HelveticaNeue-Bold" font-weight="bold" font-size="30.8" fill="#FEFFFF" transform="matrix(1.00, 0.00, -0.00, -1.00, 40.6, 706.5)">o</text><text xml:space="preserve" font-family="HelveticaNeue-Bold" font-weight="bold" font-size="30.8" fill="#FEFFFF" transform="matrix(1.00, 0.00, -0.00, -1.00, 57.7, 706.5)">n</text><text xml:space="preserve" font-family="HelveticaNeue-Bold" font-weight="bold" font-size="30.8" fill="#FEFFFF" transform="matrix(1.00, 0.00, -0.00, -1.00, 74.2, 706.5)">t</text><text xml:space="preserve" font-family="HelveticaNeue-Bold" font-weight="bold" font-size="30.8" fill="#FEFFFF" transform="matrix(1.00, 0.00, -0.00, -1.00, 83.4, 706.5)"> </text></g></g></g></svg>