<?xml version="1.0" encoding="UTF-8" standalone="no"?><svg xmlns="http://www.w3.org/2000/svg" xmlns:xlink="http://www.w3.org/1999/xlink" clip-rule="evenodd" stroke-miterlimit="4.00" viewBox="0 0 1024 768"><desc>SVG generated by Keynote</desc><defs></defs><g transform="matrix(1.00, 0.00, -0.00, -1.00, 0.0, 768.0)"><path d="M 0.0 768.0 L 1024.0 768.0 L 1024.0 0.0 L 0.0 0.0 Z M 0.0 768.0 " fill="#FEFFFF"></path><text xml:space="preserve" font-family="Helvetica-Light" font-size="36.0" fill="#493445" transform="matrix(1.00, 0.00, -0.00, -1.00, 127.0, 490.0)">F</text><text xml:space="preserve" font-family="Helvetica-Light" font-size="36.0" fill="#493445" transform="matrix(1.00, 0.00, -0.00, -1.00, 147.0, 490.0)">e</text><text xml:space="preserve" font-family="Helvetica-Light" font-size="36.0" fill="#493445" transform="matrix(1.00, 0.00, -0.00, -1.00, 167.0, 490.0)">e</text><text xml:space="preserve" font-family="Helvetica-Light" font-size="36.0" fill="#493445" transform="matrix(1.00, 0.00, -0.00, -1.00, 187.0, 490.0)">d</text><text xml:space="preserve" font-family="Helvetica-Light" font-size="36.0" fill="#493445" transform="matrix(1.00, 0.00, -0.00, -1.00, 209.0, 490.0)">b</text><text xml:space="preserve" font-family="Helvetica-Light" font-size="36.0" fill="#493445" transform="matrix(1.00, 0.00, -0.00, -1.00, 231.0, 490.0)">a</text><text xml:space="preserve" font-family="Helvetica-Light" font-size="36.0" fill="#493445" transform="matrix(1.00, 0.00, -0.00, -1.00, 251.1, 490.0)">c</text><text xml:space="preserve" font-family="Helvetica-Light" font-size="36.0" fill="#493445" transform="matrix(1.00, 0.00, -0.00, -1.00, 271.1, 490.0)">k</text><text xml:space="preserve" font-family="Helvetica-Light" font-size="36.0" fill="#493445" transform="matrix(1.00, 0.00, -0.00, -1.00, 289.1, 490.0)">’</text><text xml:space="preserve" font-family="Helvetica-Light" font-size="36.0" fill="#493445" transform="matrix(1.00, 0.00, -0.00, -1.00, 294.4, 490.0)">s</text><text xml:space="preserve" font-family="Helvetica-Light" font-size="36.0" fill="#493445" transform="matrix(1.00, 0.00, -0.00, -1.00, 312.4, 490.0)"> </text><text xml:space="preserve" font-family="Helvetica-Light" font-size="36.0" fill="#493445" transform="matrix(1.00, 0.00, -0.00, -1.00, 322.4, 490.0)">d</text><text xml:space="preserve" font-family="Helvetica-Light" font-size="36.0" fill="#493445" transform="matrix(1.00, 0.00, -0.00, -1.00, 344.4, 490.0)">e</text><text xml:space="preserve" font-family="Helvetica-Light" font-size="36.0" fill="#493445" transform="matrix(1.00, 0.00, -0.00, -1.00, 364.4, 490.0)">v</text><text xml:space="preserve" font-family="Helvetica-Light" font-size="36.0" fill="#493445" transform="matrix(1.00, 0.00, -0.00, -1.00, 382.4, 490.0)">e</text><text xml:space="preserve" font-family="Helvetica-Light" font-size="36.0" fill="#493445" transform="matrix(1.00, 0.00, -0.00, -1.00, 402.4, 490.0)">m</text><text xml:space="preserve" font-family="Helvetica-Light" font-size="36.0" fill="#493445" transform="matrix(1.00, 0.00, -0.00, -1.00, 432.4, 490.0)"> </text><text xml:space="preserve" font-family="Helvetica-Light" font-size="36.0" fill="#493445" transform="matrix(1.00, 0.00, -0.00, -1.00, 442.4, 490.0)">p</text><text xml:space="preserve" font-family="Helvetica-Light" font-size="36.0" fill="#493445" transform="matrix(1.00, 0.00, -0.00, -1.00, 464.4, 490.0)">a</text><text xml:space="preserve" font-family="Helvetica-Light" font-size="36.0" fill="#493445" transform="matrix(1.00, 0.00, -0.00, -1.00, 484.4, 490.0)">s</text><text xml:space="preserve" font-family="Helvetica-Light" font-size="36.0" fill="#493445" transform="matrix(1.00, 0.00, -0.00, -1.00, 502.4, 490.0)">s</text><text xml:space="preserve" font-family="Helvetica-Light" font-size="36.0" fill="#493445" transform="matrix(1.00, 0.00, -0.00, -1.00, 520.4, 490.0)">a</text><text xml:space="preserve" font-family="Helvetica-Light" font-size="36.0" fill="#493445" transform="matrix(1.00, 0.00, -0.00, -1.00, 540.5, 490.0)">r</text><text xml:space="preserve" font-family="Helvetica-Light" font-size="36.0" fill="#493445" transform="matrix(1.00, 0.00, -0.00, -1.00, 552.4, 490.0)"> </text><text xml:space="preserve" font-family="Helvetica-Light" font-size="36.0" fill="#493445" transform="matrix(1.00, 0.00, -0.00, -1.00, 562.5, 490.0)">a</text><text xml:space="preserve" font-family="Helvetica-Light" font-size="36.0" fill="#493445" transform="matrix(1.00, 0.00, -0.00, -1.00, 582.5, 490.0)"> </text><text xml:space="preserve" font-family="Helvetica-Light" font-size="36.0" fill="#493445" transform="matrix(1.00, 0.00, -0.00, -1.00, 592.5, 490.0)">m</text><text xml:space="preserve" font-family="Helvetica-Light" font-size="36.0" fill="#493445" transform="matrix(1.00, 0.00, -0.00, -1.00, 622.5, 490.0)">e</text><text xml:space="preserve" font-family="Helvetica-Light" font-size="36.0" fill="#493445" transform="matrix(1.00, 0.00, -0.00, -1.00, 642.5, 490.0)">n</text><text xml:space="preserve" font-family="Helvetica-Light" font-size="36.0" fill="#493445" transform="matrix(1.00, 0.00, -0.00, -1.00, 662.5, 490.0)">s</text><text xml:space="preserve" font-family="Helvetica-Light" font-size="36.0" fill="#493445" transform="matrix(1.00, 0.00, -0.00, -1.00, 680.5, 490.0)">a</text><text xml:space="preserve" font-family="Helvetica-Light" font-size="36.0" fill="#493445" transform="matrix(1.00, 0.00, -0.00, -1.00, 700.5, 490.0)">g</text><text xml:space="preserve" font-family="Helvetica-Light" font-size="36.0" fill="#493445" transform="matrix(1.00, 0.00, -0.00, -1.00, 722.5, 490.0)">e</text><text xml:space="preserve" font-family="Helvetica-Light" font-size="36.0" fill="#493445" transform="matrix(1.00, 0.00, -0.00, -1.00, 742.5, 490.0)">m</text><text xml:space="preserve" font-family="Helvetica-Light" font-size="36.0" fill="#493445" transform="matrix(1.00, 0.00, -0.00, -1.00, 772.5, 490.0)"> </text><text xml:space="preserve" font-family="Helvetica-Light" font-size="36.0" fill="#493445" transform="matrix(1.00, 0.00, -0.00, -1.00, 127.0, 447.0)">p</text><text xml:space="preserve" font-family="Helvetica-Light" font-size="36.0" fill="#493445" transform="matrix(1.00, 0.00, -0.00, -1.00, 149.0, 447.0)">r</text><text xml:space="preserve" font-family="Helvetica-Light" font-size="36.0" fill="#493445" transform="matrix(1.00, 0.00, -0.00, -1.00, 160.3, 447.0)">e</text><text xml:space="preserve" font-family="Helvetica-Light" font-size="36.0" fill="#493445" transform="matrix(1.00, 0.00, -0.00, -1.00, 180.4, 447.0)">s</text><text xml:space="preserve" font-family="Helvetica-Light" font-size="36.0" fill="#493445" transform="matrix(1.00, 0.00, -0.00, -1.00, 198.4, 447.0)">e</text><text xml:space="preserve" font-family="Helvetica-Light" font-size="36.0" fill="#493445" transform="matrix(1.00, 0.00, -0.00, -1.00, 218.4, 447.0)">n</text><text xml:space="preserve" font-family="Helvetica-Light" font-size="36.0" fill="#493445" transform="matrix(1.00, 0.00, -0.00, -1.00, 238.4, 447.0)">t</text><text xml:space="preserve" font-family="Helvetica-Light" font-size="36.0" fill="#493445" transform="matrix(1.00, 0.00, -0.00, -1.00, 248.4, 447.0)">e</text><text xml:space="preserve" font-family="Helvetica-Light" font-size="36.0" fill="#493445" transform="matrix(1.00, 0.00, -0.00, -1.00, 268.4, 447.0)">s</text><text xml:space="preserve" font-family="Helvetica-Light" font-size="36.0" fill="#493445" transform="matrix(1.00, 0.00, -0.00, -1.00, 286.4, 447.0)"> </text><text xml:space="preserve" font-family="Helvetica-Light" font-size="36.0" fill="#493445" transform="matrix(1.00, 0.00, -0.00, -1.00, 296.4, 447.0)">n</text><text xml:space="preserve" font-family="Helvetica-Light" font-size="36.0" fill="#493445" transform="matrix(1.00, 0.00, -0.00, -1.00, 316.4, 447.0)">a</text><text xml:space="preserve" font-family="Helvetica-Light" font-size="36.0" fill="#493445" transform="matrix(1.00, 0.00, -0.00, -1.00, 336.4, 447.0)">s</text><text xml:space="preserve" font-family="Helvetica-Light" font-size="36.0" fill="#493445" transform="matrix(1.00, 0.00, -0.00, -1.00, 354.4, 447.0)"> </text><text xml:space="preserve" font-family="Helvetica-Light" font-size="36.0" fill="#493445" transform="matrix(1.00, 0.00, -0.00, -1.00, 364.5, 447.0)">r</text><text xml:space="preserve" font-family="Helvetica-Light" font-size="36.0" fill="#493445" transform="matrix(1.00, 0.00, -0.00, -1.00, 375.8, 447.0)">e</text><text xml:space="preserve" font-family="Helvetica-Light" font-size="36.0" fill="#493445" transform="matrix(1.00, 0.00, -0.00, -1.00, 395.8, 447.0)">g</text><text xml:space="preserve" font-family="Helvetica-Light" font-size="36.0" fill="#493445" transform="matrix(1.00, 0.00, -0.00, -1.00, 417.8, 447.0)">r</text><text xml:space="preserve" font-family="Helvetica-Light" font-size="36.0" fill="#493445" transform="matrix(1.00, 0.00, -0.00, -1.00, 429.8, 447.0)">a</text><text xml:space="preserve" font-family="Helvetica-Light" font-size="36.0" fill="#493445" transform="matrix(1.00, 0.00, -0.00, -1.00, 449.8, 447.0)">s</text><text xml:space="preserve" font-family="Helvetica-Light" font-size="36.0" fill="#493445" transform="matrix(1.00, 0.00, -0.00, -1.00, 467.8, 447.0)">.</text><text xml:space="preserve" font-family="Helvetica-Bold" font-weight="bold" font-size="60.0" fill="#493445" transform="matrix(1.00, 0.00, -0.00, -1.00, 124.0, 576.0)">F</text><text xml:space="preserve" font-family="Helvetica-Bold" font-weight="bold" font-size="60.0" fill="#493445" transform="matrix(1.00, 0.00, -0.00, -1.00, 160.6, 576.0)">e</text><text xml:space="preserve" font-family="Helvetica-Bold" font-weight="bold" font-size="60.0" fill="#493445" transform="matrix(1.00, 0.00, -0.00, -1.00, 194.0, 576.0)">e</text><text xml:space="preserve" font-family="Helvetica-Bold" font-weight="bold" font-size="60.0" fill="#493445" transform="matrix(1.00, 0.00, -0.00, -1.00, 227.4, 576.0)">d</text><text xml:space="preserve" font-family="Helvetica-Bold" font-weight="bold" font-size="60.0" fill="#493445" transform="matrix(1.00, 0.00, -0.00, -1.00, 264.0, 576.0)">b</text><text xml:space="preserve" font-family="Helvetica-Bold" font-weight="bold" font-size="60.0" fill="#493445" transform="matrix(1.00, 0.00, -0.00, -1.00, 300.6, 576.0)">a</text><text xml:space="preserve" font-family="Helvetica-Bold" font-weight="bold" font-size="60.0" fill="#493445" transform="matrix(1.00, 0.00, -0.00, -1.00, 334.0, 576.0)">c</text><text xml:space="preserve" font-family="Helvetica-Bold" font-weight="bold" font-size="60.0" fill="#493445" transform="matrix(1.00, 0.00, -0.00, -1.00, 367.3, 576.0)">k</text><text xml:space="preserve" font-family="Helvetica-Light" font-size="21.6" fill="#493445" transform="matrix(1.00, 0.00, -0.00, -1.00, 170.3, 383.0)">•</text><text xml:space="preserve" font-family="Helvetica-Light" font-size="30.0" fill="#493445" transform="matrix(1.00, 0.00, -0.00, -1.00, 205.0, 380.0)">V</text><text xml:space="preserve" font-family="Helvetica-Light" font-size="30.0" fill="#493445" transform="matrix(1.00, 0.00, -0.00, -1.00, 222.8, 380.0)">i</text><text xml:space="preserve" font-family="Helvetica-Light" font-size="30.0" fill="#493445" transform="matrix(1.00, 0.00, -0.00, -1.00, 229.4, 380.0)">s</text><text xml:space="preserve" font-family="Helvetica-Light" font-size="30.0" fill="#493445" transform="matrix(1.00, 0.00, -0.00, -1.00, 244.4, 380.0)">u</text><text xml:space="preserve" font-family="Helvetica-Light" font-size="30.0" fill="#493445" transform="matrix(1.00, 0.00, -0.00, -1.00, 261.1, 380.0)">a</text><text xml:space="preserve" font-family="Helvetica-Light" font-size="30.0" fill="#493445" transform="matrix(1.00, 0.00, -0.00, -1.00, 277.8, 380.0)">i</text><text xml:space="preserve" font-family="Helvetica-Light" font-size="30.0" fill="#493445" transform="matrix(1.00, 0.00, -0.00, -1.00, 284.5, 380.0)">s</text><text xml:space="preserve" font-family="Helvetica-Light" font-size="30.0" fill="#493445" transform="matrix(1.00, 0.00, -0.00, -1.00, 299.5, 380.0)"> </text><text xml:space="preserve" font-family="Helvetica-Light" font-size="21.6" fill="#493445" transform="matrix(1.00, 0.00, -0.00, -1.00, 170.3, 329.0)">•</text><text xml:space="preserve" font-family="Helvetica-Light" font-size="30.0" fill="#493445" transform="matrix(1.00, 0.00, -0.00, -1.00, 205.0, 326.0)">A</text><text xml:space="preserve" font-family="Helvetica-Light" font-size="30.0" fill="#493445" transform="matrix(1.00, 0.00, -0.00, -1.00, 225.0, 326.0)">u</text><text xml:space="preserve" font-family="Helvetica-Light" font-size="30.0" fill="#493445" transform="matrix(1.00, 0.00, -0.00, -1.00, 241.7, 326.0)">d</text><text xml:space="preserve" font-family="Helvetica-Light" font-size="30.0" fill="#493445" transform="matrix(1.00, 0.00, -0.00, -1.00, 260.0, 326.0)">í</text><text xml:space="preserve" font-family="Helvetica-Light" font-size="30.0" fill="#493445" transform="matrix(1.00, 0.00, -0.00, -1.00, 266.7, 326.0)">v</text><text xml:space="preserve" font-family="Helvetica-Light" font-size="30.0" fill="#493445" transform="matrix(1.00, 0.00, -0.00, -1.00, 281.7, 326.0)">e</text><text xml:space="preserve" font-family="Helvetica-Light" font-size="30.0" fill="#493445" transform="matrix(1.00, 0.00, -0.00, -1.00, 298.4, 326.0)">i</text><text xml:space="preserve" font-family="Helvetica-Light" font-size="30.0" fill="#493445" transform="matrix(1.00, 0.00, -0.00, -1.00, 305.0, 326.0)">s</text><text xml:space="preserve" font-family="Helvetica-Light" font-size="30.0" fill="#493445" transform="matrix(1.00, 0.00, -0.00, -1.00, 320.0, 326.0)"> </text><text xml:space="preserve" font-family="Helvetica-Light" font-size="21.6" fill="#493445" transform="matrix(1.00, 0.00, -0.00, -1.00, 170.3, 275.0)">•</text><text xml:space="preserve" font-family="Helvetica-Light" font-size="30.0" fill="#493445" transform="matrix(1.00, 0.00, -0.00, -1.00, 205.0, 272.0)">T</text><text xml:space="preserve" font-family="Helvetica-Light" font-size="30.0" fill="#493445" transform="matrix(1.00, 0.00, -0.00, -1.00, 218.3, 272.0)">o</text><text xml:space="preserve" font-family="Helvetica-Light" font-size="30.0" fill="#493445" transform="matrix(1.00, 0.00, -0.00, -1.00, 235.0, 272.0)">q</text><text xml:space="preserve" font-family="Helvetica-Light" font-size="30.0" fill="#493445" transform="matrix(1.00, 0.00, -0.00, -1.00, 253.4, 272.0)">u</text><text xml:space="preserve" font-family="Helvetica-Light" font-size="30.0" fill="#493445" transform="matrix(1.00, 0.00, -0.00, -1.00, 270.0, 272.0)">e</text><text xml:space="preserve" font-family="Helvetica-Light" font-size="30.0" fill="#493445" transform="matrix(1.00, 0.00, -0.00, -1.00, 286.7, 272.0)"> </text><text xml:space="preserve" font-family="Helvetica-Light" font-size="30.0" fill="#493445" transform="matrix(1.00, 0.00, -0.00, -1.00, 295.1, 272.0)">(</text><text xml:space="preserve" font-family="Helvetica-Light" font-size="30.0" fill="#493445" transform="matrix(1.00, 0.00, -0.00, -1.00, 305.1, 272.0)">V</text><text xml:space="preserve" font-family="Helvetica-Light" font-size="30.0" fill="#493445" transform="matrix(1.00, 0.00, -0.00, -1.00, 322.8, 272.0)">i</text><text xml:space="preserve" font-family="Helvetica-Light" font-size="30.0" fill="#493445" transform="matrix(1.00, 0.00, -0.00, -1.00, 329.5, 272.0)">b</text><text xml:space="preserve" font-family="Helvetica-Light" font-size="30.0" fill="#493445" transform="matrix(1.00, 0.00, -0.00, -1.00, 347.8, 272.0)">r</text><text xml:space="preserve" font-family="Helvetica-Light" font-size="30.0" fill="#493445" transform="matrix(1.00, 0.00, -0.00, -1.00, 357.8, 272.0)">a</text><text xml:space="preserve" font-family="Helvetica-Light" font-size="30.0" fill="#493445" transform="matrix(1.00, 0.00, -0.00, -1.00, 374.5, 272.0)">ç</text><text xml:space="preserve" font-family="Helvetica-Light" font-size="30.0" fill="#493445" transform="matrix(1.00, 0.00, -0.00, -1.00, 391.2, 272.0)">ã</text><text xml:space="preserve" font-family="Helvetica-Light" font-size="30.0" fill="#493445" transform="matrix(1.00, 0.00, -0.00, -1.00, 407.9, 272.0)">o</text><text xml:space="preserve" font-family="Helvetica-Light" font-size="30.0" fill="#493445" transform="matrix(1.00, 0.00, -0.00, -1.00, 424.5, 272.0)"> </text><text xml:space="preserve" font-family="Helvetica-Light" font-size="30.0" fill="#493445" transform="matrix(1.00, 0.00, -0.00, -1.00, 432.9, 272.0)">d</text><text xml:space="preserve" font-family="Helvetica-Light" font-size="30.0" fill="#493445" transform="matrix(1.00, 0.00, -0.00, -1.00, 451.2, 272.0)">o</text><text xml:space="preserve" font-family="Helvetica-Light" font-size="30.0" fill="#493445" transform="matrix(1.00, 0.00, -0.00, -1.00, 467.9, 272.0)"> </text><text xml:space="preserve" font-family="Helvetica-Light" font-size="30.0" fill="#493445" transform="matrix(1.00, 0.00, -0.00, -1.00, 476.2, 272.0)">c</text><text xml:space="preserve" font-family="Helvetica-Light" font-size="30.0" fill="#493445" transform="matrix(1.00, 0.00, -0.00, -1.00, 492.9, 272.0)">e</text><text xml:space="preserve" font-family="Helvetica-Light" font-size="30.0" fill="#493445" transform="matrix(1.00, 0.00, -0.00, -1.00, 509.6, 272.0)">l</text><text xml:space="preserve" font-family="Helvetica-Light" font-size="30.0" fill="#493445" transform="matrix(1.00, 0.00, -0.00, -1.00, 516.2, 272.0)">u</text><text xml:space="preserve" font-family="Helvetica-Light" font-size="30.0" fill="#493445" transform="matrix(1.00, 0.00, -0.00, -1.00, 532.9, 272.0)">l</text><text xml:space="preserve" font-family="Helvetica-Light" font-size="30.0" fill="#493445" transform="matrix(1.00, 0.00, -0.00, -1.00, 539.6, 272.0)">a</text><text xml:space="preserve" font-family="Helvetica-Light" font-size="30.0" fill="#493445" transform="matrix(1.00, 0.00, -0.00, -1.00, 556.3, 272.0)">r</text><text xml:space="preserve" font-family="Helvetica-Light" font-size="30.0" fill="#493445" transform="matrix(1.00, 0.00, -0.00, -1.00, 566.3, 272.0)">)</text><g><clipPath id="clip-970"><path d="M 0.0 667.0 L 620.0 667.0 L 620.0 768.0 L 0.0 768.0 Z M 0.0 667.0 "></path></clipPath><g clip-path="url(#clip-970)"><text xml:space="preserve" font-family="SourceSansPro-Regular" font-size="24.0" fill="#5C4658" transform="matrix(1.00, 0.00, -0.00, -1.00, 130.0, 709.0)">C</text><text xml:space="preserve" font-family="SourceSansPro-Regular" font-size="24.0" fill="#5C4658" transform="matrix(1.00, 0.00, -0.00, -1.00, 143.7, 709.0)">r</text><text xml:space="preserve" font-family="SourceSansPro-Regular" font-size="24.0" fill="#5C4658" transform="matrix(1.00, 0.00, -0.00, -1.00, 152.0, 709.0)">i</text><text xml:space="preserve" font-family="SourceSansPro-Regular" font-size="24.0" fill="#5C4658" transform="matrix(1.00, 0.00, -0.00, -1.00, 157.9, 709.0)">a</text><text xml:space="preserve" font-family="SourceSansPro-Regular" font-size="24.0" fill="#5C4658" transform="matrix(1.00, 0.00, -0.00, -1.00, 170.2, 709.0)">n</text><text xml:space="preserve" font-family="SourceSansPro-Regular" font-size="24.0" fill="#5C4658" transform="matrix(1.00, 0.00, -0.00, -1.00, 183.4, 709.0)">d</text><text xml:space="preserve" font-family="SourceSansPro-Regular" font-size="24.0" fill="#5C4658" transform="matrix(1.00, 0.00, -0.00, -1.00, 196.7, 709.0)">o</text><text xml:space="preserve" font-family="SourceSansPro-Regular" font-size="24.0" fill="#5C4658" transform="matrix(1.00, 0.00, -0.00, -1.00, 209.7, 709.0)"> </text><text xml:space="preserve" font-family="SourceSansPro-Regular" font-size="24.0" fill="#5C4658" transform="matrix(1.00, 0.00, -0.00, -1.00, 214.5, 709.0)">m</text><text xml:space="preserve" font-family="SourceSansPro-Regular" font-size="24.0" fill="#5C4658" transform="matrix(1.00, 0.00, -0.00, -1.00, 234.4, 709.0)">i</text><text xml:space="preserve" font-family="SourceSansPro-Regular" font-size="24.0" fill="#5C4658" transform="matrix(1.00, 0.00, -0.00, -1.00, 240.3, 709.0)">c</text><text xml:space="preserve" font-family="SourceSansPro-Regular" font-size="24.0" fill="#5C4658" transform="matrix(1.00, 0.00, -0.00, -1.00, 251.3, 709.0)">r</text><text xml:space="preserve" font-family="SourceSansPro-Regular" font-size="24.0" fill="#5C4658" transform="matrix(1.00, 0.00, -0.00, -1.00, 259.6, 709.0)">o</text><text xml:space="preserve" font-family="SourceSansPro-Regular" font-size="24.0" fill="#5C4658" transform="matrix(1.00, 0.00, -0.00, -1.00, 272.6, 709.0)">i</text><text xml:space="preserve" font-family="SourceSansPro-Regular" font-size="24.0" fill="#5C4658" transform="matrix(1.00, 0.00, -0.00, -1.00, 278.5, 709.0)">n</text><text xml:space="preserve" font-family="SourceSansPro-Regular" font-size="24.0" fill="#5C4658" transform="matrix(1.00, 0.00, -0.00, -1.00, 291.6, 709.0)">t</text><text xml:space="preserve" font-family="SourceSansPro-Regular" font-size="24.0" fill="#5C4658" transform="matrix(1.00, 0.00, -0.00, -1.00, 299.8, 709.0)">e</text><text xml:space="preserve" font-family="SourceSansPro-Regular" font-size="24.0" fill="#5C4658" transform="matrix(1.00, 0.00, -0.00, -1.00, 311.7, 709.0)">r</text><text xml:space="preserve" font-family="SourceSansPro-Regular" font-size="24.0" fill="#5C4658" transform="matrix(1.00, 0.00, -0.00, -1.00, 320.0, 709.0)">a</text><text xml:space="preserve" font-family="SourceSansPro-Regular" font-size="24.0" fill="#5C4658" transform="matrix(1.00, 0.00, -0.00, -1.00, 332.3, 709.0)">ç</text><text xml:space="preserve" font-family="SourceSansPro-Regular" font-size="24.0" fill="#5C4658" transform="matrix(1.00, 0.00, -0.00, -1.00, 343.2, 709.0)">õ</text><text xml:space="preserve" font-family="SourceSansPro-Regular" font-size="24.0" fill="#5C4658" transform="matrix(1.00, 0.00, -0.00, -1.00, 356.2, 709.0)">e</text><text xml:space="preserve" font-family="SourceSansPro-Regular" font-size="24.0" fill="#5C4658" transform="matrix(1.00, 0.00, -0.00, -1.00, 368.1, 709.0)">s</text><text xml:space="preserve" font-family="SourceSansPro-Regular" font-size="24.0" fill="#5C4658" transform="matrix(1.00, 0.00, -0.00, -1.00, 378.2, 709.0)"> </text><text xml:space="preserve" font-family="SourceSansPro-Regular" font-size="24.0" fill="#5C4658" transform="matrix(1.00, 0.00, -0.00, -1.00, 383.0, 709.0)">c</text><text xml:space="preserve" font-family="SourceSansPro-Regular" font-size="24.0" fill="#5C4658" transform="matrix(1.00, 0.00, -0.00, -1.00, 394.0, 709.0)">o</text><text xml:space="preserve" font-family="SourceSansPro-Regular" font-size="24.0" fill="#5C4658" transform="matrix(1.00, 0.00, -0.00, -1.00, 407.0, 709.0)">m</text><text xml:space="preserve" font-family="SourceSansPro-Regular" font-size="24.0" fill="#5C4658" transform="matrix(1.00, 0.00, -0.00, -1.00, 426.9, 709.0)"> </text><text xml:space="preserve" font-family="SourceSansPro-Regular" font-size="24.0" fill="#5C4658" transform="matrix(1.00, 0.00, -0.00, -1.00, 431.7, 709.0)">J</text><text xml:space="preserve" font-family="SourceSansPro-Regular" font-size="24.0" fill="#5C4658" transform="matrix(1.00, 0.00, -0.00, -1.00, 443.2, 709.0)">a</text><text xml:space="preserve" font-family="SourceSansPro-Regular" font-size="24.0" fill="#5C4658" transform="matrix(1.00, 0.00, -0.00, -1.00, 455.5, 709.0)">v</text><text xml:space="preserve" font-family="SourceSansPro-Regular" font-size="24.0" fill="#5C4658" transform="matrix(1.00, 0.00, -0.00, -1.00, 466.7, 709.0)">a</text><text xml:space="preserve" font-family="SourceSansPro-Regular" font-size="24.0" fill="#5C4658" transform="matrix(1.00, 0.00, -0.00, -1.00, 479.0, 709.0)">S</text><text xml:space="preserve" font-family="SourceSansPro-Regular" font-size="24.0" fill="#5C4658" transform="matrix(1.00, 0.00, -0.00, -1.00, 491.8, 709.0)">c</text><text xml:space="preserve" font-family="SourceSansPro-Regular" font-size="24.0" fill="#5C4658" transform="matrix(1.00, 0.00, -0.00, -1.00, 502.8, 709.0)">r</text><text xml:space="preserve" font-family="SourceSansPro-Regular" font-size="24.0" fill="#5C4658" transform="matrix(1.00, 0.00, -0.00, -1.00, 511.1, 709.0)">i</text><text xml:space="preserve" font-family="SourceSansPro-Regular" font-size="24.0" fill="#5C4658" transform="matrix(1.00, 0.00, -0.00, -1.00, 517.0, 709.0)">p</text><text xml:space="preserve" font-family="SourceSansPro-Regular" font-size="24.0" fill="#5C4658" transform="matrix(1.00, 0.00, -0.00, -1.00, 530.3, 709.0)">t</text><text xml:space="preserve" font-family="SourceSansPro-Regular" font-size="24.0" fill="#5C4658" transform="matrix(1.00, 0.00, -0.00, -1.00, 538.5, 709.0)"> </text><text xml:space="preserve" font-family="SourceSansPro-Regular" font-size="24.0" fill="#5C4658" transform="matrix(1.00, 0.00, -0.00, -1.00, 543.3, 709.0)">s</text><text xml:space="preserve" font-family="SourceSansPro-Regular" font-size="24.0" fill="#5C4658" transform="matrix(1.00, 0.00, -0.00, -1.00, 553.4, 709.0)">i</text><text xml:space="preserve" font-family="SourceSansPro-Regular" font-size="24.0" fill="#5C4658" transform="matrix(1.00, 0.00, -0.00, -1.00, 559.3, 709.0)">m</text><text xml:space="preserve" font-family="SourceSansPro-Regular" font-size="24.0" fill="#5C4658" transform="matrix(1.00, 0.00, -0.00, -1.00, 579.2, 709.0)">p</text><text xml:space="preserve" font-family="SourceSansPro-Regular" font-size="24.0" fill="#5C4658" transform="matrix(1.00, 0.00, -0.00, -1.00, 592.5, 709.0)">l</text><text xml:space="preserve" font-family="SourceSansPro-Regular" font-size="24.0" fill="#5C4658" transform="matrix(1.00, 0.00, -0.00, -1.00, 598.6, 709.0)">e</text><text xml:space="preserve" font-family="SourceSansPro-Regular" font-size="24.0" fill="#5C4658" transform="matrix(1.00, 0.00, -0.00, -1.00, 610.5, 709.0)">s</text></g></g><g><clipPath id="clip-971"><path d="M 0.0 767.9 L 100.0 767.9 L 100.0 667.9 L 0.0 667.9 L 0.0 767.9 Z M 0.0 767.9 "></path></clipPath><g clip-path="url(#clip-971)"><g><clipPath id="clip-972"><path d="M 0.0 667.0 L 620.0 667.0 L 620.0 768.0 L 0.0 768.0 Z M 0.0 667.0 "></path></clipPath><g clip-path="url(#clip-972)"><path d="M -5.0 772.9 L 105.0 772.9 L 105.0 662.9 L -5.0 662.9 Z M -5.0 772.9 " fill="#2B8DFF"></path></g></g></g></g><g><clipPath id="clip-973"><path d="M 0.0 667.0 L 620.0 667.0 L 620.0 768.0 L 0.0 768.0 Z M 0.0 667.0 "></path></clipPath><g clip-path="url(#clip-973)"><text xml:space="preserve" font-family="HelveticaNeue-Bold" font-weight="bold" font-size="30.8" fill="#FEFFFF" transform="matrix(1.00, 0.00, -0.00, -1.00, 14.4, 706.5)">F</text><text xml:space="preserve" font-family="HelveticaNeue-Bold" font-weight="bold" font-size="30.8" fill="#FEFFFF" transform="matrix(1.00, 0.00, -0.00, -1.00, 30.9, 706.5)">r</text><text xml:space="preserve" font-family="HelveticaNeue-Bold" font-weight="bold" font-size="30.8" fill="#FEFFFF" transform="matrix(1.00, 0.00, -0.00, -1.00, 40.6, 706.5)">o</text><text xml:space="preserve" font-family="HelveticaNeue-Bold" font-weight="bold" font-size="30.8" fill="#FEFFFF" transform="matrix(1.00, 0.00, -0.00, -1.00, 57.7, 706.5)">n</text><text xml:space="preserve" font-family="HelveticaNeue-Bold" font-weight="bold" font-size="30.8" fill="#FEFFFF" transform="matrix(1.00, 0.00, -0.00, -1.00, 74.2, 706.5)">t</text><text xml:space="preserve" font-family="HelveticaNeue-Bold" font-weight="bold" font-size="30.8" fill="#FEFFFF" transform="matrix(1.00, 0.00, -0.00, -1.00, 83.4, 706.5)"> </text></g></g></g></svg>