<?xml version="1.0" encoding="UTF-8" standalone="no"?><svg xmlns="http://www.w3.org/2000/svg" xmlns:xlink="http://www.w3.org/1999/xlink" clip-rule="evenodd" stroke-miterlimit="4.00" viewBox="0 0 1024 768"><desc>SVG generated by Keynote</desc><defs></defs><g transform="matrix(1.00, 0.00, -0.00, -1.00, 0.0, 768.0)"><path d="M 0.0 768.0 L 1024.0 768.0 L 1024.0 0.0 L 0.0 0.0 Z M 0.0 768.0 " fill="#FEFFFF"></path><image xlink:href="../../E40E09E1-5D29-4DA1-A1FE-F5FA29F2179F/assets/5774AE15C52C5DA839FD223E61DD2405.png" width="696.00" height="516.00" transform="matrix(1.00, 0.00, -0.00, -1.00, 164.0, 622.0)"></image><image xlink:href="../../14F44D83-7413-4F1B-81CB-6800615350D1/assets/8D615457468E8AAC06D49AACB7A7384A.png" width="202.00" height="62.00" transform="matrix(1.00, 0.00, -0.00, -1.00, 715.7, 525.6)" opacity="0.50"></image><path d="M 737.5 522.6 C 734.7 522.6 732.5 520.3 732.5 517.6 L 732.5 506.2 L 720.7 496.1 L 732.5 486.1 L 732.5 475.7 C 732.5 472.9 734.7 470.7 737.5 470.7 L 907.4 470.7 C 910.2 470.7 912.4 472.9 912.4 475.7 L 912.4 517.6 C 912.4 520.3 910.2 522.6 907.4 522.6 L 737.5 522.6 Z M 737.5 522.6 " fill="#FEFFFF"></path><g><clipPath id="clip-931"><path d="M 732.0 470.7 L 912.9 470.7 L 912.9 522.6 L 732.0 522.6 Z M 732.0 470.7 "></path></clipPath><g clip-path="url(#clip-931)"><text xml:space="preserve" font-family="Helvetica-Light" font-size="18.0" fill="#000000" transform="matrix(1.00, 0.00, -0.00, -1.00, 743.0, 490.0)">S</text><text xml:space="preserve" font-family="Helvetica-Light" font-size="18.0" fill="#000000" transform="matrix(1.00, 0.00, -0.00, -1.00, 754.0, 490.0)">e</text><text xml:space="preserve" font-family="Helvetica-Light" font-size="18.0" fill="#000000" transform="matrix(1.00, 0.00, -0.00, -1.00, 764.0, 490.0)"> </text><text xml:space="preserve" font-family="Helvetica-Light" font-size="18.0" fill="#000000" transform="matrix(1.00, 0.00, -0.00, -1.00, 769.0, 490.0)">e</text><text xml:space="preserve" font-family="Helvetica-Light" font-size="18.0" fill="#000000" transform="matrix(1.00, 0.00, -0.00, -1.00, 779.0, 490.0)">s</text><text xml:space="preserve" font-family="Helvetica-Light" font-size="18.0" fill="#000000" transform="matrix(1.00, 0.00, -0.00, -1.00, 788.0, 490.0)">t</text><text xml:space="preserve" font-family="Helvetica-Light" font-size="18.0" fill="#000000" transform="matrix(1.00, 0.00, -0.00, -1.00, 793.0, 490.0)">i</text><text xml:space="preserve" font-family="Helvetica-Light" font-size="18.0" fill="#000000" transform="matrix(1.00, 0.00, -0.00, -1.00, 797.0, 490.0)">v</text><text xml:space="preserve" font-family="Helvetica-Light" font-size="18.0" fill="#000000" transform="matrix(1.00, 0.00, -0.00, -1.00, 806.0, 490.0)">e</text><text xml:space="preserve" font-family="Helvetica-Light" font-size="18.0" fill="#000000" transform="matrix(1.00, 0.00, -0.00, -1.00, 816.0, 490.0)">r</text><text xml:space="preserve" font-family="Helvetica-Light" font-size="18.0" fill="#000000" transform="matrix(1.00, 0.00, -0.00, -1.00, 822.0, 490.0)"> </text><text xml:space="preserve" font-family="Helvetica-Light" font-size="18.0" fill="#000000" transform="matrix(1.00, 0.00, -0.00, -1.00, 827.0, 490.0)">s</text><text xml:space="preserve" font-family="Helvetica-Light" font-size="18.0" fill="#000000" transform="matrix(1.00, 0.00, -0.00, -1.00, 836.0, 490.0)">e</text><text xml:space="preserve" font-family="Helvetica-Light" font-size="18.0" fill="#000000" transform="matrix(1.00, 0.00, -0.00, -1.00, 846.0, 490.0)">g</text><text xml:space="preserve" font-family="Helvetica-Light" font-size="18.0" fill="#000000" transform="matrix(1.00, 0.00, -0.00, -1.00, 857.0, 490.0)">u</text><text xml:space="preserve" font-family="Helvetica-Light" font-size="18.0" fill="#000000" transform="matrix(1.00, 0.00, -0.00, -1.00, 867.0, 490.0)">i</text><text xml:space="preserve" font-family="Helvetica-Light" font-size="18.0" fill="#000000" transform="matrix(1.00, 0.00, -0.00, -1.00, 871.0, 490.0)">n</text><text xml:space="preserve" font-family="Helvetica-Light" font-size="18.0" fill="#000000" transform="matrix(1.00, 0.00, -0.00, -1.00, 881.0, 490.0)">d</text><text xml:space="preserve" font-family="Helvetica-Light" font-size="18.0" fill="#000000" transform="matrix(1.00, 0.00, -0.00, -1.00, 892.0, 490.0)">o</text></g></g><image xlink:href="../../14F44D83-7413-4F1B-81CB-6800615350D1/assets/1A539A36F4D7E4225E8650EE364B5BC6.png" width="232.00" height="73.00" transform="matrix(1.00, 0.00, -0.00, -0.99, 714.7, 442.6)" opacity="0.50"></image><path d="M 736.5 439.6 C 733.7 439.6 731.5 437.3 731.5 434.6 L 731.5 416.9 L 719.7 406.9 L 731.5 396.8 L 731.5 382.0 C 731.5 379.3 733.7 377.0 736.5 377.0 L 937.0 377.0 C 939.8 377.0 942.0 379.3 942.0 382.0 L 942.0 434.6 C 942.0 437.3 939.8 439.6 937.0 439.6 L 736.5 439.6 Z M 736.5 439.6 " fill="#FEFFFF"></path><g><clipPath id="clip-932"><path d="M 731.0 377.0 L 942.5 377.0 L 942.5 439.6 L 731.0 439.6 Z M 731.0 377.0 "></path></clipPath><g clip-path="url(#clip-932)"><text xml:space="preserve" font-family="Helvetica-Light" font-size="18.0" fill="#000000" transform="matrix(1.00, 0.00, -0.00, -1.00, 751.0, 413.0)">S</text><text xml:space="preserve" font-family="Helvetica-Light" font-size="18.0" fill="#000000" transform="matrix(1.00, 0.00, -0.00, -1.00, 762.0, 413.0)">e</text><text xml:space="preserve" font-family="Helvetica-Light" font-size="18.0" fill="#000000" transform="matrix(1.00, 0.00, -0.00, -1.00, 772.0, 413.0)"> </text><text xml:space="preserve" font-family="Helvetica-Light" font-size="18.0" fill="#000000" transform="matrix(1.00, 0.00, -0.00, -1.00, 777.0, 413.0)">e</text><text xml:space="preserve" font-family="Helvetica-Light" font-size="18.0" fill="#000000" transform="matrix(1.00, 0.00, -0.00, -1.00, 787.0, 413.0)">s</text><text xml:space="preserve" font-family="Helvetica-Light" font-size="18.0" fill="#000000" transform="matrix(1.00, 0.00, -0.00, -1.00, 796.0, 413.0)">t</text><text xml:space="preserve" font-family="Helvetica-Light" font-size="18.0" fill="#000000" transform="matrix(1.00, 0.00, -0.00, -1.00, 801.0, 413.0)">i</text><text xml:space="preserve" font-family="Helvetica-Light" font-size="18.0" fill="#000000" transform="matrix(1.00, 0.00, -0.00, -1.00, 805.0, 413.0)">v</text><text xml:space="preserve" font-family="Helvetica-Light" font-size="18.0" fill="#000000" transform="matrix(1.00, 0.00, -0.00, -1.00, 814.0, 413.0)">e</text><text xml:space="preserve" font-family="Helvetica-Light" font-size="18.0" fill="#000000" transform="matrix(1.00, 0.00, -0.00, -1.00, 824.0, 413.0)">r</text><text xml:space="preserve" font-family="Helvetica-Light" font-size="18.0" fill="#000000" transform="matrix(1.00, 0.00, -0.00, -1.00, 830.0, 413.0)"> </text><text xml:space="preserve" font-family="Helvetica-Light" font-size="18.0" fill="#000000" transform="matrix(1.00, 0.00, -0.00, -1.00, 835.0, 413.0)">e</text><text xml:space="preserve" font-family="Helvetica-Light" font-size="18.0" fill="#000000" transform="matrix(1.00, 0.00, -0.00, -1.00, 845.0, 413.0)">s</text><text xml:space="preserve" font-family="Helvetica-Light" font-size="18.0" fill="#000000" transform="matrix(1.00, 0.00, -0.00, -1.00, 854.0, 413.0)">p</text><text xml:space="preserve" font-family="Helvetica-Light" font-size="18.0" fill="#000000" transform="matrix(1.00, 0.00, -0.00, -1.00, 865.0, 413.0)">e</text><text xml:space="preserve" font-family="Helvetica-Light" font-size="18.0" fill="#000000" transform="matrix(1.00, 0.00, -0.00, -1.00, 875.0, 413.0)">r</text><text xml:space="preserve" font-family="Helvetica-Light" font-size="18.0" fill="#000000" transform="matrix(1.00, 0.00, -0.00, -1.00, 881.0, 413.0)">a</text><text xml:space="preserve" font-family="Helvetica-Light" font-size="18.0" fill="#000000" transform="matrix(1.00, 0.00, -0.00, -1.00, 891.0, 413.0)">n</text><text xml:space="preserve" font-family="Helvetica-Light" font-size="18.0" fill="#000000" transform="matrix(1.00, 0.00, -0.00, -1.00, 901.0, 413.0)">d</text><text xml:space="preserve" font-family="Helvetica-Light" font-size="18.0" fill="#000000" transform="matrix(1.00, 0.00, -0.00, -1.00, 912.0, 413.0)">o</text><text xml:space="preserve" font-family="Helvetica-Light" font-size="18.0" fill="#000000" transform="matrix(1.00, 0.00, -0.00, -1.00, 922.1, 413.0)"> </text><text xml:space="preserve" font-family="Helvetica-Light" font-size="18.0" fill="#000000" transform="matrix(1.00, 0.00, -0.00, -1.00, 794.0, 391.0)">a</text><text xml:space="preserve" font-family="Helvetica-Light" font-size="18.0" fill="#000000" transform="matrix(1.00, 0.00, -0.00, -1.00, 804.0, 391.0)">p</text><text xml:space="preserve" font-family="Helvetica-Light" font-size="18.0" fill="#000000" transform="matrix(1.00, 0.00, -0.00, -1.00, 815.0, 391.0)">r</text><text xml:space="preserve" font-family="Helvetica-Light" font-size="18.0" fill="#000000" transform="matrix(1.00, 0.00, -0.00, -1.00, 820.7, 391.0)">o</text><text xml:space="preserve" font-family="Helvetica-Light" font-size="18.0" fill="#000000" transform="matrix(1.00, 0.00, -0.00, -1.00, 830.7, 391.0)">v</text><text xml:space="preserve" font-family="Helvetica-Light" font-size="18.0" fill="#000000" transform="matrix(1.00, 0.00, -0.00, -1.00, 839.7, 391.0)">a</text><text xml:space="preserve" font-family="Helvetica-Light" font-size="18.0" fill="#000000" transform="matrix(1.00, 0.00, -0.00, -1.00, 849.7, 391.0)">ç</text><text xml:space="preserve" font-family="Helvetica-Light" font-size="18.0" fill="#000000" transform="matrix(1.00, 0.00, -0.00, -1.00, 859.7, 391.0)">ã</text><text xml:space="preserve" font-family="Helvetica-Light" font-size="18.0" fill="#000000" transform="matrix(1.00, 0.00, -0.00, -1.00, 869.7, 391.0)">o</text></g></g><image xlink:href="../../14F44D83-7413-4F1B-81CB-6800615350D1/assets/1A539A36F4D7E4225E8650EE364B5BC6.png" width="232.00" height="73.00" transform="matrix(1.00, 0.00, -0.00, -0.99, 714.7, 263.6)" opacity="0.50"></image><path d="M 736.5 260.6 C 733.7 260.6 731.5 258.3 731.5 255.6 L 731.5 237.9 L 719.7 227.9 L 731.5 217.8 L 731.5 203.0 C 731.5 200.3 733.7 198.0 736.5 198.0 L 937.0 198.0 C 939.8 198.0 942.0 200.3 942.0 203.0 L 942.0 255.6 C 942.0 258.3 939.8 260.6 937.0 260.6 L 736.5 260.6 Z M 736.5 260.6 " fill="#FEFFFF"></path><g><clipPath id="clip-933"><path d="M 731.0 198.0 L 942.5 198.0 L 942.5 260.6 L 731.0 260.6 Z M 731.0 198.0 "></path></clipPath><g clip-path="url(#clip-933)"><text xml:space="preserve" font-family="Helvetica-Light" font-size="18.0" fill="#000000" transform="matrix(1.00, 0.00, -0.00, -1.00, 764.0, 234.0)">S</text><text xml:space="preserve" font-family="Helvetica-Light" font-size="18.0" fill="#000000" transform="matrix(1.00, 0.00, -0.00, -1.00, 775.0, 234.0)">e</text><text xml:space="preserve" font-family="Helvetica-Light" font-size="18.0" fill="#000000" transform="matrix(1.00, 0.00, -0.00, -1.00, 785.0, 234.0)"> </text><text xml:space="preserve" font-family="Helvetica-Light" font-size="18.0" fill="#000000" transform="matrix(1.00, 0.00, -0.00, -1.00, 790.0, 234.0)">a</text><text xml:space="preserve" font-family="Helvetica-Light" font-size="18.0" fill="#000000" transform="matrix(1.00, 0.00, -0.00, -1.00, 800.0, 234.0)">i</text><text xml:space="preserve" font-family="Helvetica-Light" font-size="18.0" fill="#000000" transform="matrix(1.00, 0.00, -0.00, -1.00, 804.0, 234.0)">n</text><text xml:space="preserve" font-family="Helvetica-Light" font-size="18.0" fill="#000000" transform="matrix(1.00, 0.00, -0.00, -1.00, 814.0, 234.0)">d</text><text xml:space="preserve" font-family="Helvetica-Light" font-size="18.0" fill="#000000" transform="matrix(1.00, 0.00, -0.00, -1.00, 825.0, 234.0)">a</text><text xml:space="preserve" font-family="Helvetica-Light" font-size="18.0" fill="#000000" transform="matrix(1.00, 0.00, -0.00, -1.00, 835.0, 234.0)"> </text><text xml:space="preserve" font-family="Helvetica-Light" font-size="18.0" fill="#000000" transform="matrix(1.00, 0.00, -0.00, -1.00, 840.0, 234.0)">n</text><text xml:space="preserve" font-family="Helvetica-Light" font-size="18.0" fill="#000000" transform="matrix(1.00, 0.00, -0.00, -1.00, 850.0, 234.0)">ã</text><text xml:space="preserve" font-family="Helvetica-Light" font-size="18.0" fill="#000000" transform="matrix(1.00, 0.00, -0.00, -1.00, 860.0, 234.0)">o</text><text xml:space="preserve" font-family="Helvetica-Light" font-size="18.0" fill="#000000" transform="matrix(1.00, 0.00, -0.00, -1.00, 870.1, 234.0)"> </text><text xml:space="preserve" font-family="Helvetica-Light" font-size="18.0" fill="#000000" transform="matrix(1.00, 0.00, -0.00, -1.00, 875.1, 234.0)">e</text><text xml:space="preserve" font-family="Helvetica-Light" font-size="18.0" fill="#000000" transform="matrix(1.00, 0.00, -0.00, -1.00, 885.1, 234.0)">s</text><text xml:space="preserve" font-family="Helvetica-Light" font-size="18.0" fill="#000000" transform="matrix(1.00, 0.00, -0.00, -1.00, 894.1, 234.0)">t</text><text xml:space="preserve" font-family="Helvetica-Light" font-size="18.0" fill="#000000" transform="matrix(1.00, 0.00, -0.00, -1.00, 899.1, 234.0)">á</text><text xml:space="preserve" font-family="Helvetica-Light" font-size="18.0" fill="#000000" transform="matrix(1.00, 0.00, -0.00, -1.00, 909.1, 234.0)"> </text><text xml:space="preserve" font-family="Helvetica-Light" font-size="18.0" fill="#000000" transform="matrix(1.00, 0.00, -0.00, -1.00, 799.0, 212.0)">s</text><text xml:space="preserve" font-family="Helvetica-Light" font-size="18.0" fill="#000000" transform="matrix(1.00, 0.00, -0.00, -1.00, 808.0, 212.0)">e</text><text xml:space="preserve" font-family="Helvetica-Light" font-size="18.0" fill="#000000" transform="matrix(1.00, 0.00, -0.00, -1.00, 818.0, 212.0)">g</text><text xml:space="preserve" font-family="Helvetica-Light" font-size="18.0" fill="#000000" transform="matrix(1.00, 0.00, -0.00, -1.00, 829.0, 212.0)">u</text><text xml:space="preserve" font-family="Helvetica-Light" font-size="18.0" fill="#000000" transform="matrix(1.00, 0.00, -0.00, -1.00, 839.0, 212.0)">i</text><text xml:space="preserve" font-family="Helvetica-Light" font-size="18.0" fill="#000000" transform="matrix(1.00, 0.00, -0.00, -1.00, 843.0, 212.0)">n</text><text xml:space="preserve" font-family="Helvetica-Light" font-size="18.0" fill="#000000" transform="matrix(1.00, 0.00, -0.00, -1.00, 853.0, 212.0)">d</text><text xml:space="preserve" font-family="Helvetica-Light" font-size="18.0" fill="#000000" transform="matrix(1.00, 0.00, -0.00, -1.00, 864.0, 212.0)">o</text></g></g><g><clipPath id="clip-934"><path d="M 0.0 667.0 L 620.0 667.0 L 620.0 768.0 L 0.0 768.0 Z M 0.0 667.0 "></path></clipPath><g clip-path="url(#clip-934)"><text xml:space="preserve" font-family="SourceSansPro-Regular" font-size="24.0" fill="#5C4658" transform="matrix(1.00, 0.00, -0.00, -1.00, 130.0, 709.0)">C</text><text xml:space="preserve" font-family="SourceSansPro-Regular" font-size="24.0" fill="#5C4658" transform="matrix(1.00, 0.00, -0.00, -1.00, 143.7, 709.0)">r</text><text xml:space="preserve" font-family="SourceSansPro-Regular" font-size="24.0" fill="#5C4658" transform="matrix(1.00, 0.00, -0.00, -1.00, 152.0, 709.0)">i</text><text xml:space="preserve" font-family="SourceSansPro-Regular" font-size="24.0" fill="#5C4658" transform="matrix(1.00, 0.00, -0.00, -1.00, 157.9, 709.0)">a</text><text xml:space="preserve" font-family="SourceSansPro-Regular" font-size="24.0" fill="#5C4658" transform="matrix(1.00, 0.00, -0.00, -1.00, 170.2, 709.0)">n</text><text xml:space="preserve" font-family="SourceSansPro-Regular" font-size="24.0" fill="#5C4658" transform="matrix(1.00, 0.00, -0.00, -1.00, 183.4, 709.0)">d</text><text xml:space="preserve" font-family="SourceSansPro-Regular" font-size="24.0" fill="#5C4658" transform="matrix(1.00, 0.00, -0.00, -1.00, 196.7, 709.0)">o</text><text xml:space="preserve" font-family="SourceSansPro-Regular" font-size="24.0" fill="#5C4658" transform="matrix(1.00, 0.00, -0.00, -1.00, 209.7, 709.0)"> </text><text xml:space="preserve" font-family="SourceSansPro-Regular" font-size="24.0" fill="#5C4658" transform="matrix(1.00, 0.00, -0.00, -1.00, 214.5, 709.0)">m</text><text xml:space="preserve" font-family="SourceSansPro-Regular" font-size="24.0" fill="#5C4658" transform="matrix(1.00, 0.00, -0.00, -1.00, 234.4, 709.0)">i</text><text xml:space="preserve" font-family="SourceSansPro-Regular" font-size="24.0" fill="#5C4658" transform="matrix(1.00, 0.00, -0.00, -1.00, 240.3, 709.0)">c</text><text xml:space="preserve" font-family="SourceSansPro-Regular" font-size="24.0" fill="#5C4658" transform="matrix(1.00, 0.00, -0.00, -1.00, 251.3, 709.0)">r</text><text xml:space="preserve" font-family="SourceSansPro-Regular" font-size="24.0" fill="#5C4658" transform="matrix(1.00, 0.00, -0.00, -1.00, 259.6, 709.0)">o</text><text xml:space="preserve" font-family="SourceSansPro-Regular" font-size="24.0" fill="#5C4658" transform="matrix(1.00, 0.00, -0.00, -1.00, 272.6, 709.0)">i</text><text xml:space="preserve" font-family="SourceSansPro-Regular" font-size="24.0" fill="#5C4658" transform="matrix(1.00, 0.00, -0.00, -1.00, 278.5, 709.0)">n</text><text xml:space="preserve" font-family="SourceSansPro-Regular" font-size="24.0" fill="#5C4658" transform="matrix(1.00, 0.00, -0.00, -1.00, 291.6, 709.0)">t</text><text xml:space="preserve" font-family="SourceSansPro-Regular" font-size="24.0" fill="#5C4658" transform="matrix(1.00, 0.00, -0.00, -1.00, 299.8, 709.0)">e</text><text xml:space="preserve" font-family="SourceSansPro-Regular" font-size="24.0" fill="#5C4658" transform="matrix(1.00, 0.00, -0.00, -1.00, 311.7, 709.0)">r</text><text xml:space="preserve" font-family="SourceSansPro-Regular" font-size="24.0" fill="#5C4658" transform="matrix(1.00, 0.00, -0.00, -1.00, 320.0, 709.0)">a</text><text xml:space="preserve" font-family="SourceSansPro-Regular" font-size="24.0" fill="#5C4658" transform="matrix(1.00, 0.00, -0.00, -1.00, 332.3, 709.0)">ç</text><text xml:space="preserve" font-family="SourceSansPro-Regular" font-size="24.0" fill="#5C4658" transform="matrix(1.00, 0.00, -0.00, -1.00, 343.2, 709.0)">õ</text><text xml:space="preserve" font-family="SourceSansPro-Regular" font-size="24.0" fill="#5C4658" transform="matrix(1.00, 0.00, -0.00, -1.00, 356.2, 709.0)">e</text><text xml:space="preserve" font-family="SourceSansPro-Regular" font-size="24.0" fill="#5C4658" transform="matrix(1.00, 0.00, -0.00, -1.00, 368.1, 709.0)">s</text><text xml:space="preserve" font-family="SourceSansPro-Regular" font-size="24.0" fill="#5C4658" transform="matrix(1.00, 0.00, -0.00, -1.00, 378.2, 709.0)"> </text><text xml:space="preserve" font-family="SourceSansPro-Regular" font-size="24.0" fill="#5C4658" transform="matrix(1.00, 0.00, -0.00, -1.00, 383.0, 709.0)">c</text><text xml:space="preserve" font-family="SourceSansPro-Regular" font-size="24.0" fill="#5C4658" transform="matrix(1.00, 0.00, -0.00, -1.00, 394.0, 709.0)">o</text><text xml:space="preserve" font-family="SourceSansPro-Regular" font-size="24.0" fill="#5C4658" transform="matrix(1.00, 0.00, -0.00, -1.00, 407.0, 709.0)">m</text><text xml:space="preserve" font-family="SourceSansPro-Regular" font-size="24.0" fill="#5C4658" transform="matrix(1.00, 0.00, -0.00, -1.00, 426.9, 709.0)"> </text><text xml:space="preserve" font-family="SourceSansPro-Regular" font-size="24.0" fill="#5C4658" transform="matrix(1.00, 0.00, -0.00, -1.00, 431.7, 709.0)">J</text><text xml:space="preserve" font-family="SourceSansPro-Regular" font-size="24.0" fill="#5C4658" transform="matrix(1.00, 0.00, -0.00, -1.00, 443.2, 709.0)">a</text><text xml:space="preserve" font-family="SourceSansPro-Regular" font-size="24.0" fill="#5C4658" transform="matrix(1.00, 0.00, -0.00, -1.00, 455.5, 709.0)">v</text><text xml:space="preserve" font-family="SourceSansPro-Regular" font-size="24.0" fill="#5C4658" transform="matrix(1.00, 0.00, -0.00, -1.00, 466.7, 709.0)">a</text><text xml:space="preserve" font-family="SourceSansPro-Regular" font-size="24.0" fill="#5C4658" transform="matrix(1.00, 0.00, -0.00, -1.00, 479.0, 709.0)">S</text><text xml:space="preserve" font-family="SourceSansPro-Regular" font-size="24.0" fill="#5C4658" transform="matrix(1.00, 0.00, -0.00, -1.00, 491.8, 709.0)">c</text><text xml:space="preserve" font-family="SourceSansPro-Regular" font-size="24.0" fill="#5C4658" transform="matrix(1.00, 0.00, -0.00, -1.00, 502.8, 709.0)">r</text><text xml:space="preserve" font-family="SourceSansPro-Regular" font-size="24.0" fill="#5C4658" transform="matrix(1.00, 0.00, -0.00, -1.00, 511.1, 709.0)">i</text><text xml:space="preserve" font-family="SourceSansPro-Regular" font-size="24.0" fill="#5C4658" transform="matrix(1.00, 0.00, -0.00, -1.00, 517.0, 709.0)">p</text><text xml:space="preserve" font-family="SourceSansPro-Regular" font-size="24.0" fill="#5C4658" transform="matrix(1.00, 0.00, -0.00, -1.00, 530.3, 709.0)">t</text><text xml:space="preserve" font-family="SourceSansPro-Regular" font-size="24.0" fill="#5C4658" transform="matrix(1.00, 0.00, -0.00, -1.00, 538.5, 709.0)"> </text><text xml:space="preserve" font-family="SourceSansPro-Regular" font-size="24.0" fill="#5C4658" transform="matrix(1.00, 0.00, -0.00, -1.00, 543.3, 709.0)">s</text><text xml:space="preserve" font-family="SourceSansPro-Regular" font-size="24.0" fill="#5C4658" transform="matrix(1.00, 0.00, -0.00, -1.00, 553.4, 709.0)">i</text><text xml:space="preserve" font-family="SourceSansPro-Regular" font-size="24.0" fill="#5C4658" transform="matrix(1.00, 0.00, -0.00, -1.00, 559.3, 709.0)">m</text><text xml:space="preserve" font-family="SourceSansPro-Regular" font-size="24.0" fill="#5C4658" transform="matrix(1.00, 0.00, -0.00, -1.00, 579.2, 709.0)">p</text><text xml:space="preserve" font-family="SourceSansPro-Regular" font-size="24.0" fill="#5C4658" transform="matrix(1.00, 0.00, -0.00, -1.00, 592.5, 709.0)">l</text><text xml:space="preserve" font-family="SourceSansPro-Regular" font-size="24.0" fill="#5C4658" transform="matrix(1.00, 0.00, -0.00, -1.00, 598.6, 709.0)">e</text><text xml:space="preserve" font-family="SourceSansPro-Regular" font-size="24.0" fill="#5C4658" transform="matrix(1.00, 0.00, -0.00, -1.00, 610.5, 709.0)">s</text></g></g><g><clipPath id="clip-935"><path d="M 0.0 767.9 L 100.0 767.9 L 100.0 667.9 L 0.0 667.9 L 0.0 767.9 Z M 0.0 767.9 "></path></clipPath><g clip-path="url(#clip-935)"><g><clipPath id="clip-936"><path d="M 0.0 667.0 L 620.0 667.0 L 620.0 768.0 L 0.0 768.0 Z M 0.0 667.0 "></path></clipPath><g clip-path="url(#clip-936)"><path d="M -5.0 772.9 L 105.0 772.9 L 105.0 662.9 L -5.0 662.9 Z M -5.0 772.9 " fill="#2B8DFF"></path></g></g></g></g><g><clipPath id="clip-937"><path d="M 0.0 667.0 L 620.0 667.0 L 620.0 768.0 L 0.0 768.0 Z M 0.0 667.0 "></path></clipPath><g clip-path="url(#clip-937)"><text xml:space="preserve" font-family="HelveticaNeue-Bold" font-weight="bold" font-size="30.8" fill="#FEFFFF" transform="matrix(1.00, 0.00, -0.00, -1.00, 14.4, 706.5)">F</text><text xml:space="preserve" font-family="HelveticaNeue-Bold" font-weight="bold" font-size="30.8" fill="#FEFFFF" transform="matrix(1.00, 0.00, -0.00, -1.00, 30.9, 706.5)">r</text><text xml:space="preserve" font-family="HelveticaNeue-Bold" font-weight="bold" font-size="30.8" fill="#FEFFFF" transform="matrix(1.00, 0.00, -0.00, -1.00, 40.6, 706.5)">o</text><text xml:space="preserve" font-family="HelveticaNeue-Bold" font-weight="bold" font-size="30.8" fill="#FEFFFF" transform="matrix(1.00, 0.00, -0.00, -1.00, 57.7, 706.5)">n</text><text xml:space="preserve" font-family="HelveticaNeue-Bold" font-weight="bold" font-size="30.8" fill="#FEFFFF" transform="matrix(1.00, 0.00, -0.00, -1.00, 74.2, 706.5)">t</text><text xml:space="preserve" font-family="HelveticaNeue-Bold" font-weight="bold" font-size="30.8" fill="#FEFFFF" transform="matrix(1.00, 0.00, -0.00, -1.00, 83.4, 706.5)"> </text></g></g></g></svg>