<?xml version="1.0" encoding="UTF-8" standalone="no"?><svg xmlns="http://www.w3.org/2000/svg" xmlns:xlink="http://www.w3.org/1999/xlink" clip-rule="evenodd" stroke-miterlimit="4.00" viewBox="0 0 1024 768"><desc>SVG generated by Keynote</desc><defs></defs><g transform="matrix(1.00, 0.00, -0.00, -1.00, 0.0, 768.0)"><path d="M 0.0 768.0 L 1024.0 768.0 L 1024.0 0.0 L 0.0 0.0 Z M 0.0 768.0 " fill="#FEFFFF"></path><text xml:space="preserve" font-family="Helvetica-Bold" font-weight="bold" font-size="60.0" fill="#493445" transform="matrix(1.00, 0.00, -0.00, -1.00, 126.0, 576.0)">S</text><text xml:space="preserve" font-family="Helvetica-Bold" font-weight="bold" font-size="60.0" fill="#493445" transform="matrix(1.00, 0.00, -0.00, -1.00, 166.0, 576.0)">o</text><text xml:space="preserve" font-family="Helvetica-Bold" font-weight="bold" font-size="60.0" fill="#493445" transform="matrix(1.00, 0.00, -0.00, -1.00, 202.7, 576.0)">b</text><text xml:space="preserve" font-family="Helvetica-Bold" font-weight="bold" font-size="60.0" fill="#493445" transform="matrix(1.00, 0.00, -0.00, -1.00, 239.3, 576.0)">r</text><text xml:space="preserve" font-family="Helvetica-Bold" font-weight="bold" font-size="60.0" fill="#493445" transform="matrix(1.00, 0.00, -0.00, -1.00, 262.7, 576.0)">e</text><text xml:space="preserve" font-family="Helvetica-Bold" font-weight="bold" font-size="60.0" fill="#493445" transform="matrix(1.00, 0.00, -0.00, -1.00, 296.0, 576.0)"> </text><text xml:space="preserve" font-family="Helvetica-Bold" font-weight="bold" font-size="60.0" fill="#493445" transform="matrix(1.00, 0.00, -0.00, -1.00, 312.7, 576.0)">m</text><text xml:space="preserve" font-family="Helvetica-Bold" font-weight="bold" font-size="60.0" fill="#493445" transform="matrix(1.00, 0.00, -0.00, -1.00, 366.0, 576.0)">i</text><text xml:space="preserve" font-family="Helvetica-Bold" font-weight="bold" font-size="60.0" fill="#493445" transform="matrix(1.00, 0.00, -0.00, -1.00, 382.7, 576.0)">m</text><text xml:space="preserve" font-family="Helvetica-Light" font-size="36.0" fill="#493445" transform="matrix(1.00, 0.00, -0.00, -1.00, 121.0, 490.0)">T</text><text xml:space="preserve" font-family="Helvetica-Light" font-size="36.0" fill="#493445" transform="matrix(1.00, 0.00, -0.00, -1.00, 137.0, 490.0)">é</text><text xml:space="preserve" font-family="Helvetica-Light" font-size="36.0" fill="#493445" transform="matrix(1.00, 0.00, -0.00, -1.00, 157.0, 490.0)">c</text><text xml:space="preserve" font-family="Helvetica-Light" font-size="36.0" fill="#493445" transform="matrix(1.00, 0.00, -0.00, -1.00, 177.1, 490.0)">n</text><text xml:space="preserve" font-family="Helvetica-Light" font-size="36.0" fill="#493445" transform="matrix(1.00, 0.00, -0.00, -1.00, 197.1, 490.0)">i</text><text xml:space="preserve" font-family="Helvetica-Light" font-size="36.0" fill="#493445" transform="matrix(1.00, 0.00, -0.00, -1.00, 205.1, 490.0)">c</text><text xml:space="preserve" font-family="Helvetica-Light" font-size="36.0" fill="#493445" transform="matrix(1.00, 0.00, -0.00, -1.00, 225.1, 490.0)">o</text><text xml:space="preserve" font-family="Helvetica-Light" font-size="36.0" fill="#493445" transform="matrix(1.00, 0.00, -0.00, -1.00, 245.1, 490.0)"> </text><text xml:space="preserve" font-family="Helvetica-Light" font-size="36.0" fill="#493445" transform="matrix(1.00, 0.00, -0.00, -1.00, 255.1, 490.0)">e</text><text xml:space="preserve" font-family="Helvetica-Light" font-size="36.0" fill="#493445" transform="matrix(1.00, 0.00, -0.00, -1.00, 275.1, 490.0)">m</text><text xml:space="preserve" font-family="Helvetica-Light" font-size="36.0" fill="#493445" transform="matrix(1.00, 0.00, -0.00, -1.00, 305.1, 490.0)"> </text><text xml:space="preserve" font-family="Helvetica-Light" font-size="36.0" fill="#493445" transform="matrix(1.00, 0.00, -0.00, -1.00, 315.1, 490.0)">e</text><text xml:space="preserve" font-family="Helvetica-Light" font-size="36.0" fill="#493445" transform="matrix(1.00, 0.00, -0.00, -1.00, 335.1, 490.0)">l</text><text xml:space="preserve" font-family="Helvetica-Light" font-size="36.0" fill="#493445" transform="matrix(1.00, 0.00, -0.00, -1.00, 343.1, 490.0)">e</text><text xml:space="preserve" font-family="Helvetica-Light" font-size="36.0" fill="#493445" transform="matrix(1.00, 0.00, -0.00, -1.00, 363.1, 490.0)">t</text><text xml:space="preserve" font-family="Helvetica-Light" font-size="36.0" fill="#493445" transform="matrix(1.00, 0.00, -0.00, -1.00, 373.1, 490.0)">r</text><text xml:space="preserve" font-family="Helvetica-Light" font-size="36.0" fill="#493445" transform="matrix(1.00, 0.00, -0.00, -1.00, 384.5, 490.0)">ô</text><text xml:space="preserve" font-family="Helvetica-Light" font-size="36.0" fill="#493445" transform="matrix(1.00, 0.00, -0.00, -1.00, 404.5, 490.0)">n</text><text xml:space="preserve" font-family="Helvetica-Light" font-size="36.0" fill="#493445" transform="matrix(1.00, 0.00, -0.00, -1.00, 424.5, 490.0)">i</text><text xml:space="preserve" font-family="Helvetica-Light" font-size="36.0" fill="#493445" transform="matrix(1.00, 0.00, -0.00, -1.00, 432.5, 490.0)">c</text><text xml:space="preserve" font-family="Helvetica-Light" font-size="36.0" fill="#493445" transform="matrix(1.00, 0.00, -0.00, -1.00, 452.5, 490.0)">a</text><text xml:space="preserve" font-family="Helvetica-Light" font-size="36.0" fill="#493445" transform="matrix(1.00, 0.00, -0.00, -1.00, 121.0, 427.0)">D</text><text xml:space="preserve" font-family="Helvetica-Light" font-size="36.0" fill="#493445" transform="matrix(1.00, 0.00, -0.00, -1.00, 147.0, 427.0)">e</text><text xml:space="preserve" font-family="Helvetica-Light" font-size="36.0" fill="#493445" transform="matrix(1.00, 0.00, -0.00, -1.00, 167.0, 427.0)">s</text><text xml:space="preserve" font-family="Helvetica-Light" font-size="36.0" fill="#493445" transform="matrix(1.00, 0.00, -0.00, -1.00, 185.0, 427.0)">e</text><text xml:space="preserve" font-family="Helvetica-Light" font-size="36.0" fill="#493445" transform="matrix(1.00, 0.00, -0.00, -1.00, 205.0, 427.0)">n</text><text xml:space="preserve" font-family="Helvetica-Light" font-size="36.0" fill="#493445" transform="matrix(1.00, 0.00, -0.00, -1.00, 225.0, 427.0)">v</text><text xml:space="preserve" font-family="Helvetica-Light" font-size="36.0" fill="#493445" transform="matrix(1.00, 0.00, -0.00, -1.00, 243.0, 427.0)">o</text><text xml:space="preserve" font-family="Helvetica-Light" font-size="36.0" fill="#493445" transform="matrix(1.00, 0.00, -0.00, -1.00, 263.1, 427.0)">l</text><text xml:space="preserve" font-family="Helvetica-Light" font-size="36.0" fill="#493445" transform="matrix(1.00, 0.00, -0.00, -1.00, 271.0, 427.0)">v</text><text xml:space="preserve" font-family="Helvetica-Light" font-size="36.0" fill="#493445" transform="matrix(1.00, 0.00, -0.00, -1.00, 289.0, 427.0)">e</text><text xml:space="preserve" font-family="Helvetica-Light" font-size="36.0" fill="#493445" transform="matrix(1.00, 0.00, -0.00, -1.00, 309.1, 427.0)">d</text><text xml:space="preserve" font-family="Helvetica-Light" font-size="36.0" fill="#493445" transform="matrix(1.00, 0.00, -0.00, -1.00, 331.1, 427.0)">o</text><text xml:space="preserve" font-family="Helvetica-Light" font-size="36.0" fill="#493445" transform="matrix(1.00, 0.00, -0.00, -1.00, 351.1, 427.0)">r</text><text xml:space="preserve" font-family="Helvetica-Light" font-size="36.0" fill="#493445" transform="matrix(1.00, 0.00, -0.00, -1.00, 363.1, 427.0)"> </text><text xml:space="preserve" font-family="Helvetica-Light" font-size="36.0" fill="#493445" transform="matrix(1.00, 0.00, -0.00, -1.00, 373.1, 427.0)">h</text><text xml:space="preserve" font-family="Helvetica-Light" font-size="36.0" fill="#493445" transform="matrix(1.00, 0.00, -0.00, -1.00, 393.1, 427.0)">á</text><text xml:space="preserve" font-family="Helvetica-Light" font-size="36.0" fill="#493445" transform="matrix(1.00, 0.00, -0.00, -1.00, 413.1, 427.0)"> </text><text xml:space="preserve" font-family="Helvetica-Light" font-size="36.0" fill="#493445" transform="matrix(1.00, 0.00, -0.00, -1.00, 423.1, 427.0)">m</text><text xml:space="preserve" font-family="Helvetica-Light" font-size="36.0" fill="#493445" transform="matrix(1.00, 0.00, -0.00, -1.00, 453.1, 427.0)">a</text><text xml:space="preserve" font-family="Helvetica-Light" font-size="36.0" fill="#493445" transform="matrix(1.00, 0.00, -0.00, -1.00, 473.1, 427.0)">i</text><text xml:space="preserve" font-family="Helvetica-Light" font-size="36.0" fill="#493445" transform="matrix(1.00, 0.00, -0.00, -1.00, 481.1, 427.0)">s</text><text xml:space="preserve" font-family="Helvetica-Light" font-size="36.0" fill="#493445" transform="matrix(1.00, 0.00, -0.00, -1.00, 499.1, 427.0)"> </text><text xml:space="preserve" font-family="Helvetica-Light" font-size="36.0" fill="#493445" transform="matrix(1.00, 0.00, -0.00, -1.00, 509.1, 427.0)">d</text><text xml:space="preserve" font-family="Helvetica-Light" font-size="36.0" fill="#493445" transform="matrix(1.00, 0.00, -0.00, -1.00, 531.1, 427.0)">e</text><text xml:space="preserve" font-family="Helvetica-Light" font-size="36.0" fill="#493445" transform="matrix(1.00, 0.00, -0.00, -1.00, 551.1, 427.0)"> </text><text xml:space="preserve" font-family="Helvetica-Light" font-size="36.0" fill="#493445" transform="matrix(1.00, 0.00, -0.00, -1.00, 561.1, 427.0)">4</text><text xml:space="preserve" font-family="Helvetica-Light" font-size="36.0" fill="#493445" transform="matrix(1.00, 0.00, -0.00, -1.00, 581.2, 427.0)"> </text><text xml:space="preserve" font-family="Helvetica-Light" font-size="36.0" fill="#493445" transform="matrix(1.00, 0.00, -0.00, -1.00, 591.2, 427.0)">a</text><text xml:space="preserve" font-family="Helvetica-Light" font-size="36.0" fill="#493445" transform="matrix(1.00, 0.00, -0.00, -1.00, 611.2, 427.0)">n</text><text xml:space="preserve" font-family="Helvetica-Light" font-size="36.0" fill="#493445" transform="matrix(1.00, 0.00, -0.00, -1.00, 631.2, 427.0)">o</text><text xml:space="preserve" font-family="Helvetica-Light" font-size="36.0" fill="#493445" transform="matrix(1.00, 0.00, -0.00, -1.00, 651.2, 427.0)">s</text><text xml:space="preserve" font-family="Helvetica-Light" font-size="36.0" fill="#493445" transform="matrix(1.00, 0.00, -0.00, -1.00, 121.0, 364.0)">P</text><text xml:space="preserve" font-family="Helvetica-Light" font-size="36.0" fill="#493445" transform="matrix(1.00, 0.00, -0.00, -1.00, 143.0, 364.0)">r</text><text xml:space="preserve" font-family="Helvetica-Light" font-size="36.0" fill="#493445" transform="matrix(1.00, 0.00, -0.00, -1.00, 154.3, 364.0)">e</text><text xml:space="preserve" font-family="Helvetica-Light" font-size="36.0" fill="#493445" transform="matrix(1.00, 0.00, -0.00, -1.00, 174.4, 364.0)">s</text><text xml:space="preserve" font-family="Helvetica-Light" font-size="36.0" fill="#493445" transform="matrix(1.00, 0.00, -0.00, -1.00, 192.4, 364.0)">t</text><text xml:space="preserve" font-family="Helvetica-Light" font-size="36.0" fill="#493445" transform="matrix(1.00, 0.00, -0.00, -1.00, 202.4, 364.0)">e</text><text xml:space="preserve" font-family="Helvetica-Light" font-size="36.0" fill="#493445" transform="matrix(1.00, 0.00, -0.00, -1.00, 222.4, 364.0)">i</text><text xml:space="preserve" font-family="Helvetica-Light" font-size="36.0" fill="#493445" transform="matrix(1.00, 0.00, -0.00, -1.00, 230.4, 364.0)"> </text><text xml:space="preserve" font-family="Helvetica-Light" font-size="36.0" fill="#493445" transform="matrix(1.00, 0.00, -0.00, -1.00, 240.4, 364.0)">a</text><text xml:space="preserve" font-family="Helvetica-Light" font-size="36.0" fill="#493445" transform="matrix(1.00, 0.00, -0.00, -1.00, 260.4, 364.0)">l</text><text xml:space="preserve" font-family="Helvetica-Light" font-size="36.0" fill="#493445" transform="matrix(1.00, 0.00, -0.00, -1.00, 268.4, 364.0)">g</text><text xml:space="preserve" font-family="Helvetica-Light" font-size="36.0" fill="#493445" transform="matrix(1.00, 0.00, -0.00, -1.00, 290.4, 364.0)">u</text><text xml:space="preserve" font-family="Helvetica-Light" font-size="36.0" fill="#493445" transform="matrix(1.00, 0.00, -0.00, -1.00, 310.4, 364.0)">m</text><text xml:space="preserve" font-family="Helvetica-Light" font-size="36.0" fill="#493445" transform="matrix(1.00, 0.00, -0.00, -1.00, 340.4, 364.0)">a</text><text xml:space="preserve" font-family="Helvetica-Light" font-size="36.0" fill="#493445" transform="matrix(1.00, 0.00, -0.00, -1.00, 360.4, 364.0)">s</text><text xml:space="preserve" font-family="Helvetica-Light" font-size="36.0" fill="#493445" transform="matrix(1.00, 0.00, -0.00, -1.00, 378.4, 364.0)"> </text><text xml:space="preserve" font-family="Helvetica-Light" font-size="36.0" fill="#493445" transform="matrix(1.00, 0.00, -0.00, -1.00, 388.4, 364.0)">c</text><text xml:space="preserve" font-family="Helvetica-Light" font-size="36.0" fill="#493445" transform="matrix(1.00, 0.00, -0.00, -1.00, 408.4, 364.0)">o</text><text xml:space="preserve" font-family="Helvetica-Light" font-size="36.0" fill="#493445" transform="matrix(1.00, 0.00, -0.00, -1.00, 428.4, 364.0)">n</text><text xml:space="preserve" font-family="Helvetica-Light" font-size="36.0" fill="#493445" transform="matrix(1.00, 0.00, -0.00, -1.00, 448.5, 364.0)">s</text><text xml:space="preserve" font-family="Helvetica-Light" font-size="36.0" fill="#493445" transform="matrix(1.00, 0.00, -0.00, -1.00, 466.5, 364.0)">u</text><text xml:space="preserve" font-family="Helvetica-Light" font-size="36.0" fill="#493445" transform="matrix(1.00, 0.00, -0.00, -1.00, 486.5, 364.0)">l</text><text xml:space="preserve" font-family="Helvetica-Light" font-size="36.0" fill="#493445" transform="matrix(1.00, 0.00, -0.00, -1.00, 494.5, 364.0)">t</text><text xml:space="preserve" font-family="Helvetica-Light" font-size="36.0" fill="#493445" transform="matrix(1.00, 0.00, -0.00, -1.00, 504.5, 364.0)">o</text><text xml:space="preserve" font-family="Helvetica-Light" font-size="36.0" fill="#493445" transform="matrix(1.00, 0.00, -0.00, -1.00, 524.5, 364.0)">r</text><text xml:space="preserve" font-family="Helvetica-Light" font-size="36.0" fill="#493445" transform="matrix(1.00, 0.00, -0.00, -1.00, 536.5, 364.0)">i</text><text xml:space="preserve" font-family="Helvetica-Light" font-size="36.0" fill="#493445" transform="matrix(1.00, 0.00, -0.00, -1.00, 544.5, 364.0)">a</text><text xml:space="preserve" font-family="Helvetica-Light" font-size="36.0" fill="#493445" transform="matrix(1.00, 0.00, -0.00, -1.00, 564.5, 364.0)">s</text><text xml:space="preserve" font-family="Helvetica-Light" font-size="36.0" fill="#493445" transform="matrix(1.00, 0.00, -0.00, -1.00, 121.0, 302.0)">A</text><text xml:space="preserve" font-family="Helvetica-Light" font-size="36.0" fill="#493445" transform="matrix(1.00, 0.00, -0.00, -1.00, 145.0, 302.0)">t</text><text xml:space="preserve" font-family="Helvetica-Light" font-size="36.0" fill="#493445" transform="matrix(1.00, 0.00, -0.00, -1.00, 155.0, 302.0)">u</text><text xml:space="preserve" font-family="Helvetica-Light" font-size="36.0" fill="#493445" transform="matrix(1.00, 0.00, -0.00, -1.00, 175.0, 302.0)">a</text><text xml:space="preserve" font-family="Helvetica-Light" font-size="36.0" fill="#493445" transform="matrix(1.00, 0.00, -0.00, -1.00, 195.1, 302.0)">l</text><text xml:space="preserve" font-family="Helvetica-Light" font-size="36.0" fill="#493445" transform="matrix(1.00, 0.00, -0.00, -1.00, 203.0, 302.0)">m</text><text xml:space="preserve" font-family="Helvetica-Light" font-size="36.0" fill="#493445" transform="matrix(1.00, 0.00, -0.00, -1.00, 233.0, 302.0)">e</text><text xml:space="preserve" font-family="Helvetica-Light" font-size="36.0" fill="#493445" transform="matrix(1.00, 0.00, -0.00, -1.00, 253.0, 302.0)">n</text><text xml:space="preserve" font-family="Helvetica-Light" font-size="36.0" fill="#493445" transform="matrix(1.00, 0.00, -0.00, -1.00, 273.1, 302.0)">t</text><text xml:space="preserve" font-family="Helvetica-Light" font-size="36.0" fill="#493445" transform="matrix(1.00, 0.00, -0.00, -1.00, 283.1, 302.0)">e</text><text xml:space="preserve" font-family="Helvetica-Light" font-size="36.0" fill="#493445" transform="matrix(1.00, 0.00, -0.00, -1.00, 303.1, 302.0)"> </text><text xml:space="preserve" font-family="Helvetica-Light" font-size="36.0" fill="#493445" transform="matrix(1.00, 0.00, -0.00, -1.00, 313.1, 302.0)">s</text><text xml:space="preserve" font-family="Helvetica-Light" font-size="36.0" fill="#493445" transform="matrix(1.00, 0.00, -0.00, -1.00, 331.1, 302.0)">o</text><text xml:space="preserve" font-family="Helvetica-Light" font-size="36.0" fill="#493445" transform="matrix(1.00, 0.00, -0.00, -1.00, 351.1, 302.0)">u</text><text xml:space="preserve" font-family="Helvetica-Light" font-size="36.0" fill="#493445" transform="matrix(1.00, 0.00, -0.00, -1.00, 371.1, 302.0)"> </text><text xml:space="preserve" font-family="Helvetica-Light" font-size="36.0" fill="#493445" transform="matrix(1.00, 0.00, -0.00, -1.00, 381.1, 302.0)">a</text><text xml:space="preserve" font-family="Helvetica-Light" font-size="36.0" fill="#493445" transform="matrix(1.00, 0.00, -0.00, -1.00, 401.2, 302.0)">t</text><text xml:space="preserve" font-family="Helvetica-Light" font-size="36.0" fill="#493445" transform="matrix(1.00, 0.00, -0.00, -1.00, 411.2, 302.0)">u</text><text xml:space="preserve" font-family="Helvetica-Light" font-size="36.0" fill="#493445" transform="matrix(1.00, 0.00, -0.00, -1.00, 431.2, 302.0)">o</text><text xml:space="preserve" font-family="Helvetica-Light" font-size="36.0" fill="#493445" transform="matrix(1.00, 0.00, -0.00, -1.00, 451.2, 302.0)"> </text><text xml:space="preserve" font-family="Helvetica-Light" font-size="36.0" fill="#493445" transform="matrix(1.00, 0.00, -0.00, -1.00, 461.2, 302.0)">c</text><text xml:space="preserve" font-family="Helvetica-Light" font-size="36.0" fill="#493445" transform="matrix(1.00, 0.00, -0.00, -1.00, 481.2, 302.0)">o</text><text xml:space="preserve" font-family="Helvetica-Light" font-size="36.0" fill="#493445" transform="matrix(1.00, 0.00, -0.00, -1.00, 501.2, 302.0)">m</text><text xml:space="preserve" font-family="Helvetica-Light" font-size="36.0" fill="#493445" transform="matrix(1.00, 0.00, -0.00, -1.00, 531.2, 302.0)">o</text><text xml:space="preserve" font-family="Helvetica-Light" font-size="36.0" fill="#493445" transform="matrix(1.00, 0.00, -0.00, -1.00, 551.2, 302.0)"> </text><text xml:space="preserve" font-family="Helvetica-Light" font-size="36.0" fill="#493445" transform="matrix(1.00, 0.00, -0.00, -1.00, 561.2, 302.0)">f</text><text xml:space="preserve" font-family="Helvetica-Light" font-size="36.0" fill="#493445" transform="matrix(1.00, 0.00, -0.00, -1.00, 571.3, 302.0)">u</text><text xml:space="preserve" font-family="Helvetica-Light" font-size="36.0" fill="#493445" transform="matrix(1.00, 0.00, -0.00, -1.00, 591.3, 302.0)">l</text><text xml:space="preserve" font-family="Helvetica-Light" font-size="36.0" fill="#493445" transform="matrix(1.00, 0.00, -0.00, -1.00, 599.3, 302.0)">l</text><text xml:space="preserve" font-family="Helvetica-Light" font-size="36.0" fill="#493445" transform="matrix(1.00, 0.00, -0.00, -1.00, 607.3, 302.0)"> </text><text xml:space="preserve" font-family="Helvetica-Light" font-size="36.0" fill="#493445" transform="matrix(1.00, 0.00, -0.00, -1.00, 617.3, 302.0)">s</text><text xml:space="preserve" font-family="Helvetica-Light" font-size="36.0" fill="#493445" transform="matrix(1.00, 0.00, -0.00, -1.00, 635.3, 302.0)">t</text><text xml:space="preserve" font-family="Helvetica-Light" font-size="36.0" fill="#493445" transform="matrix(1.00, 0.00, -0.00, -1.00, 645.3, 302.0)">a</text><text xml:space="preserve" font-family="Helvetica-Light" font-size="36.0" fill="#493445" transform="matrix(1.00, 0.00, -0.00, -1.00, 665.3, 302.0)">c</text><text xml:space="preserve" font-family="Helvetica-Light" font-size="36.0" fill="#493445" transform="matrix(1.00, 0.00, -0.00, -1.00, 685.3, 302.0)">k</text><g><clipPath id="clip-611"><path d="M 0.0 667.0 L 620.0 667.0 L 620.0 768.0 L 0.0 768.0 Z M 0.0 667.0 "></path></clipPath><g clip-path="url(#clip-611)"><text xml:space="preserve" font-family="SourceSansPro-Regular" font-size="24.0" fill="#5C4658" transform="matrix(1.00, 0.00, -0.00, -1.00, 130.0, 709.0)">C</text><text xml:space="preserve" font-family="SourceSansPro-Regular" font-size="24.0" fill="#5C4658" transform="matrix(1.00, 0.00, -0.00, -1.00, 143.7, 709.0)">r</text><text xml:space="preserve" font-family="SourceSansPro-Regular" font-size="24.0" fill="#5C4658" transform="matrix(1.00, 0.00, -0.00, -1.00, 152.0, 709.0)">i</text><text xml:space="preserve" font-family="SourceSansPro-Regular" font-size="24.0" fill="#5C4658" transform="matrix(1.00, 0.00, -0.00, -1.00, 157.9, 709.0)">a</text><text xml:space="preserve" font-family="SourceSansPro-Regular" font-size="24.0" fill="#5C4658" transform="matrix(1.00, 0.00, -0.00, -1.00, 170.2, 709.0)">n</text><text xml:space="preserve" font-family="SourceSansPro-Regular" font-size="24.0" fill="#5C4658" transform="matrix(1.00, 0.00, -0.00, -1.00, 183.4, 709.0)">d</text><text xml:space="preserve" font-family="SourceSansPro-Regular" font-size="24.0" fill="#5C4658" transform="matrix(1.00, 0.00, -0.00, -1.00, 196.7, 709.0)">o</text><text xml:space="preserve" font-family="SourceSansPro-Regular" font-size="24.0" fill="#5C4658" transform="matrix(1.00, 0.00, -0.00, -1.00, 209.7, 709.0)"> </text><text xml:space="preserve" font-family="SourceSansPro-Regular" font-size="24.0" fill="#5C4658" transform="matrix(1.00, 0.00, -0.00, -1.00, 214.5, 709.0)">m</text><text xml:space="preserve" font-family="SourceSansPro-Regular" font-size="24.0" fill="#5C4658" transform="matrix(1.00, 0.00, -0.00, -1.00, 234.4, 709.0)">i</text><text xml:space="preserve" font-family="SourceSansPro-Regular" font-size="24.0" fill="#5C4658" transform="matrix(1.00, 0.00, -0.00, -1.00, 240.3, 709.0)">c</text><text xml:space="preserve" font-family="SourceSansPro-Regular" font-size="24.0" fill="#5C4658" transform="matrix(1.00, 0.00, -0.00, -1.00, 251.3, 709.0)">r</text><text xml:space="preserve" font-family="SourceSansPro-Regular" font-size="24.0" fill="#5C4658" transform="matrix(1.00, 0.00, -0.00, -1.00, 259.6, 709.0)">o</text><text xml:space="preserve" font-family="SourceSansPro-Regular" font-size="24.0" fill="#5C4658" transform="matrix(1.00, 0.00, -0.00, -1.00, 272.6, 709.0)">i</text><text xml:space="preserve" font-family="SourceSansPro-Regular" font-size="24.0" fill="#5C4658" transform="matrix(1.00, 0.00, -0.00, -1.00, 278.5, 709.0)">n</text><text xml:space="preserve" font-family="SourceSansPro-Regular" font-size="24.0" fill="#5C4658" transform="matrix(1.00, 0.00, -0.00, -1.00, 291.6, 709.0)">t</text><text xml:space="preserve" font-family="SourceSansPro-Regular" font-size="24.0" fill="#5C4658" transform="matrix(1.00, 0.00, -0.00, -1.00, 299.8, 709.0)">e</text><text xml:space="preserve" font-family="SourceSansPro-Regular" font-size="24.0" fill="#5C4658" transform="matrix(1.00, 0.00, -0.00, -1.00, 311.7, 709.0)">r</text><text xml:space="preserve" font-family="SourceSansPro-Regular" font-size="24.0" fill="#5C4658" transform="matrix(1.00, 0.00, -0.00, -1.00, 320.0, 709.0)">a</text><text xml:space="preserve" font-family="SourceSansPro-Regular" font-size="24.0" fill="#5C4658" transform="matrix(1.00, 0.00, -0.00, -1.00, 332.3, 709.0)">ç</text><text xml:space="preserve" font-family="SourceSansPro-Regular" font-size="24.0" fill="#5C4658" transform="matrix(1.00, 0.00, -0.00, -1.00, 343.2, 709.0)">õ</text><text xml:space="preserve" font-family="SourceSansPro-Regular" font-size="24.0" fill="#5C4658" transform="matrix(1.00, 0.00, -0.00, -1.00, 356.2, 709.0)">e</text><text xml:space="preserve" font-family="SourceSansPro-Regular" font-size="24.0" fill="#5C4658" transform="matrix(1.00, 0.00, -0.00, -1.00, 368.1, 709.0)">s</text><text xml:space="preserve" font-family="SourceSansPro-Regular" font-size="24.0" fill="#5C4658" transform="matrix(1.00, 0.00, -0.00, -1.00, 378.2, 709.0)"> </text><text xml:space="preserve" font-family="SourceSansPro-Regular" font-size="24.0" fill="#5C4658" transform="matrix(1.00, 0.00, -0.00, -1.00, 383.0, 709.0)">c</text><text xml:space="preserve" font-family="SourceSansPro-Regular" font-size="24.0" fill="#5C4658" transform="matrix(1.00, 0.00, -0.00, -1.00, 394.0, 709.0)">o</text><text xml:space="preserve" font-family="SourceSansPro-Regular" font-size="24.0" fill="#5C4658" transform="matrix(1.00, 0.00, -0.00, -1.00, 407.0, 709.0)">m</text><text xml:space="preserve" font-family="SourceSansPro-Regular" font-size="24.0" fill="#5C4658" transform="matrix(1.00, 0.00, -0.00, -1.00, 426.9, 709.0)"> </text><text xml:space="preserve" font-family="SourceSansPro-Regular" font-size="24.0" fill="#5C4658" transform="matrix(1.00, 0.00, -0.00, -1.00, 431.7, 709.0)">J</text><text xml:space="preserve" font-family="SourceSansPro-Regular" font-size="24.0" fill="#5C4658" transform="matrix(1.00, 0.00, -0.00, -1.00, 443.2, 709.0)">a</text><text xml:space="preserve" font-family="SourceSansPro-Regular" font-size="24.0" fill="#5C4658" transform="matrix(1.00, 0.00, -0.00, -1.00, 455.5, 709.0)">v</text><text xml:space="preserve" font-family="SourceSansPro-Regular" font-size="24.0" fill="#5C4658" transform="matrix(1.00, 0.00, -0.00, -1.00, 466.7, 709.0)">a</text><text xml:space="preserve" font-family="SourceSansPro-Regular" font-size="24.0" fill="#5C4658" transform="matrix(1.00, 0.00, -0.00, -1.00, 479.0, 709.0)">S</text><text xml:space="preserve" font-family="SourceSansPro-Regular" font-size="24.0" fill="#5C4658" transform="matrix(1.00, 0.00, -0.00, -1.00, 491.8, 709.0)">c</text><text xml:space="preserve" font-family="SourceSansPro-Regular" font-size="24.0" fill="#5C4658" transform="matrix(1.00, 0.00, -0.00, -1.00, 502.8, 709.0)">r</text><text xml:space="preserve" font-family="SourceSansPro-Regular" font-size="24.0" fill="#5C4658" transform="matrix(1.00, 0.00, -0.00, -1.00, 511.1, 709.0)">i</text><text xml:space="preserve" font-family="SourceSansPro-Regular" font-size="24.0" fill="#5C4658" transform="matrix(1.00, 0.00, -0.00, -1.00, 517.0, 709.0)">p</text><text xml:space="preserve" font-family="SourceSansPro-Regular" font-size="24.0" fill="#5C4658" transform="matrix(1.00, 0.00, -0.00, -1.00, 530.3, 709.0)">t</text><text xml:space="preserve" font-family="SourceSansPro-Regular" font-size="24.0" fill="#5C4658" transform="matrix(1.00, 0.00, -0.00, -1.00, 538.5, 709.0)"> </text><text xml:space="preserve" font-family="SourceSansPro-Regular" font-size="24.0" fill="#5C4658" transform="matrix(1.00, 0.00, -0.00, -1.00, 543.3, 709.0)">s</text><text xml:space="preserve" font-family="SourceSansPro-Regular" font-size="24.0" fill="#5C4658" transform="matrix(1.00, 0.00, -0.00, -1.00, 553.4, 709.0)">i</text><text xml:space="preserve" font-family="SourceSansPro-Regular" font-size="24.0" fill="#5C4658" transform="matrix(1.00, 0.00, -0.00, -1.00, 559.3, 709.0)">m</text><text xml:space="preserve" font-family="SourceSansPro-Regular" font-size="24.0" fill="#5C4658" transform="matrix(1.00, 0.00, -0.00, -1.00, 579.2, 709.0)">p</text><text xml:space="preserve" font-family="SourceSansPro-Regular" font-size="24.0" fill="#5C4658" transform="matrix(1.00, 0.00, -0.00, -1.00, 592.5, 709.0)">l</text><text xml:space="preserve" font-family="SourceSansPro-Regular" font-size="24.0" fill="#5C4658" transform="matrix(1.00, 0.00, -0.00, -1.00, 598.6, 709.0)">e</text><text xml:space="preserve" font-family="SourceSansPro-Regular" font-size="24.0" fill="#5C4658" transform="matrix(1.00, 0.00, -0.00, -1.00, 610.5, 709.0)">s</text></g></g><g><clipPath id="clip-612"><path d="M 0.0 767.9 L 100.0 767.9 L 100.0 667.9 L 0.0 667.9 L 0.0 767.9 Z M 0.0 767.9 "></path></clipPath><g clip-path="url(#clip-612)"><g><clipPath id="clip-613"><path d="M 0.0 667.0 L 620.0 667.0 L 620.0 768.0 L 0.0 768.0 Z M 0.0 667.0 "></path></clipPath><g clip-path="url(#clip-613)"><path d="M -5.0 772.9 L 105.0 772.9 L 105.0 662.9 L -5.0 662.9 Z M -5.0 772.9 " fill="#2B8DFF"></path></g></g></g></g><g><clipPath id="clip-614"><path d="M 0.0 667.0 L 620.0 667.0 L 620.0 768.0 L 0.0 768.0 Z M 0.0 667.0 "></path></clipPath><g clip-path="url(#clip-614)"><text xml:space="preserve" font-family="HelveticaNeue-Bold" font-weight="bold" font-size="30.8" fill="#FEFFFF" transform="matrix(1.00, 0.00, -0.00, -1.00, 14.4, 706.5)">F</text><text xml:space="preserve" font-family="HelveticaNeue-Bold" font-weight="bold" font-size="30.8" fill="#FEFFFF" transform="matrix(1.00, 0.00, -0.00, -1.00, 30.9, 706.5)">r</text><text xml:space="preserve" font-family="HelveticaNeue-Bold" font-weight="bold" font-size="30.8" fill="#FEFFFF" transform="matrix(1.00, 0.00, -0.00, -1.00, 40.6, 706.5)">o</text><text xml:space="preserve" font-family="HelveticaNeue-Bold" font-weight="bold" font-size="30.8" fill="#FEFFFF" transform="matrix(1.00, 0.00, -0.00, -1.00, 57.7, 706.5)">n</text><text xml:space="preserve" font-family="HelveticaNeue-Bold" font-weight="bold" font-size="30.8" fill="#FEFFFF" transform="matrix(1.00, 0.00, -0.00, -1.00, 74.2, 706.5)">t</text><text xml:space="preserve" font-family="HelveticaNeue-Bold" font-weight="bold" font-size="30.8" fill="#FEFFFF" transform="matrix(1.00, 0.00, -0.00, -1.00, 83.4, 706.5)"> </text></g></g></g></svg>