<?xml version="1.0" encoding="UTF-8" standalone="no"?><svg xmlns="http://www.w3.org/2000/svg" xmlns:xlink="http://www.w3.org/1999/xlink" clip-rule="evenodd" stroke-miterlimit="4.00" viewBox="0 0 1024 768"><desc>SVG generated by Keynote</desc><defs></defs><g transform="matrix(1.00, 0.00, -0.00, -1.00, 0.0, 768.0)"><path d="M 0.0 768.0 L 1024.0 768.0 L 1024.0 0.0 L 0.0 0.0 Z M 0.0 768.0 " fill="#FEFFFF"></path><text xml:space="preserve" font-family="Helvetica-Bold" font-weight="bold" font-size="60.0" fill="#493445" transform="matrix(1.00, 0.00, -0.00, -1.00, 164.0, 576.0)">R</text><text xml:space="preserve" font-family="Helvetica-Bold" font-weight="bold" font-size="60.0" fill="#493445" transform="matrix(1.00, 0.00, -0.00, -1.00, 207.3, 576.0)">e</text><text xml:space="preserve" font-family="Helvetica-Bold" font-weight="bold" font-size="60.0" fill="#493445" transform="matrix(1.00, 0.00, -0.00, -1.00, 240.7, 576.0)">q</text><text xml:space="preserve" font-family="Helvetica-Bold" font-weight="bold" font-size="60.0" fill="#493445" transform="matrix(1.00, 0.00, -0.00, -1.00, 277.4, 576.0)">u</text><text xml:space="preserve" font-family="Helvetica-Bold" font-weight="bold" font-size="60.0" fill="#493445" transform="matrix(1.00, 0.00, -0.00, -1.00, 314.0, 576.0)">i</text><text xml:space="preserve" font-family="Helvetica-Bold" font-weight="bold" font-size="60.0" fill="#493445" transform="matrix(1.00, 0.00, -0.00, -1.00, 330.7, 576.0)">s</text><text xml:space="preserve" font-family="Helvetica-Bold" font-weight="bold" font-size="60.0" fill="#493445" transform="matrix(1.00, 0.00, -0.00, -1.00, 364.0, 576.0)">i</text><text xml:space="preserve" font-family="Helvetica-Bold" font-weight="bold" font-size="60.0" fill="#493445" transform="matrix(1.00, 0.00, -0.00, -1.00, 380.7, 576.0)">t</text><text xml:space="preserve" font-family="Helvetica-Bold" font-weight="bold" font-size="60.0" fill="#493445" transform="matrix(1.00, 0.00, -0.00, -1.00, 400.7, 576.0)">o</text><text xml:space="preserve" font-family="Helvetica-Bold" font-weight="bold" font-size="60.0" fill="#493445" transform="matrix(1.00, 0.00, -0.00, -1.00, 437.3, 576.0)">s</text><text xml:space="preserve" font-family="Helvetica-Light" font-size="21.6" fill="#493445" transform="matrix(1.00, 0.00, -0.00, -1.00, 163.3, 494.0)">•</text><text xml:space="preserve" font-family="Helvetica-Light" font-size="30.0" fill="#493445" transform="matrix(1.00, 0.00, -0.00, -1.00, 198.0, 491.0)">O</text><text xml:space="preserve" font-family="Helvetica-Light" font-size="30.0" fill="#493445" transform="matrix(1.00, 0.00, -0.00, -1.00, 221.3, 491.0)">s</text><text xml:space="preserve" font-family="Helvetica-Light" font-size="30.0" fill="#493445" transform="matrix(1.00, 0.00, -0.00, -1.00, 236.3, 491.0)"> </text><text xml:space="preserve" font-family="Helvetica-Light" font-size="30.0" fill="#493445" transform="matrix(1.00, 0.00, -0.00, -1.00, 244.7, 491.0)">d</text><text xml:space="preserve" font-family="Helvetica-Light" font-size="30.0" fill="#493445" transform="matrix(1.00, 0.00, -0.00, -1.00, 263.0, 491.0)">a</text><text xml:space="preserve" font-family="Helvetica-Light" font-size="30.0" fill="#493445" transform="matrix(1.00, 0.00, -0.00, -1.00, 279.7, 491.0)">d</text><text xml:space="preserve" font-family="Helvetica-Light" font-size="30.0" fill="#493445" transform="matrix(1.00, 0.00, -0.00, -1.00, 298.0, 491.0)">o</text><text xml:space="preserve" font-family="Helvetica-Light" font-size="30.0" fill="#493445" transform="matrix(1.00, 0.00, -0.00, -1.00, 314.7, 491.0)">s</text><text xml:space="preserve" font-family="Helvetica-Light" font-size="30.0" fill="#493445" transform="matrix(1.00, 0.00, -0.00, -1.00, 329.7, 491.0)"> </text><text xml:space="preserve" font-family="Helvetica-Light" font-size="30.0" fill="#493445" transform="matrix(1.00, 0.00, -0.00, -1.00, 338.0, 491.0)">n</text><text xml:space="preserve" font-family="Helvetica-Light" font-size="30.0" fill="#493445" transform="matrix(1.00, 0.00, -0.00, -1.00, 354.7, 491.0)">e</text><text xml:space="preserve" font-family="Helvetica-Light" font-size="30.0" fill="#493445" transform="matrix(1.00, 0.00, -0.00, -1.00, 371.4, 491.0)">c</text><text xml:space="preserve" font-family="Helvetica-Light" font-size="30.0" fill="#493445" transform="matrix(1.00, 0.00, -0.00, -1.00, 388.1, 491.0)">e</text><text xml:space="preserve" font-family="Helvetica-Light" font-size="30.0" fill="#493445" transform="matrix(1.00, 0.00, -0.00, -1.00, 404.8, 491.0)">s</text><text xml:space="preserve" font-family="Helvetica-Light" font-size="30.0" fill="#493445" transform="matrix(1.00, 0.00, -0.00, -1.00, 419.8, 491.0)">s</text><text xml:space="preserve" font-family="Helvetica-Light" font-size="30.0" fill="#493445" transform="matrix(1.00, 0.00, -0.00, -1.00, 434.8, 491.0)">á</text><text xml:space="preserve" font-family="Helvetica-Light" font-size="30.0" fill="#493445" transform="matrix(1.00, 0.00, -0.00, -1.00, 451.4, 491.0)">r</text><text xml:space="preserve" font-family="Helvetica-Light" font-size="30.0" fill="#493445" transform="matrix(1.00, 0.00, -0.00, -1.00, 461.4, 491.0)">i</text><text xml:space="preserve" font-family="Helvetica-Light" font-size="30.0" fill="#493445" transform="matrix(1.00, 0.00, -0.00, -1.00, 468.1, 491.0)">o</text><text xml:space="preserve" font-family="Helvetica-Light" font-size="30.0" fill="#493445" transform="matrix(1.00, 0.00, -0.00, -1.00, 484.8, 491.0)">s</text><text xml:space="preserve" font-family="Helvetica-Light" font-size="30.0" fill="#493445" transform="matrix(1.00, 0.00, -0.00, -1.00, 499.8, 491.0)"> </text><text xml:space="preserve" font-family="Helvetica-Light" font-size="30.0" fill="#493445" transform="matrix(1.00, 0.00, -0.00, -1.00, 508.1, 491.0)">e</text><text xml:space="preserve" font-family="Helvetica-Light" font-size="30.0" fill="#493445" transform="matrix(1.00, 0.00, -0.00, -1.00, 524.8, 491.0)">r</text><text xml:space="preserve" font-family="Helvetica-Light" font-size="30.0" fill="#493445" transform="matrix(1.00, 0.00, -0.00, -1.00, 534.8, 491.0)">a</text><text xml:space="preserve" font-family="Helvetica-Light" font-size="30.0" fill="#493445" transform="matrix(1.00, 0.00, -0.00, -1.00, 551.5, 491.0)">m</text><text xml:space="preserve" font-family="Helvetica-Light" font-size="30.0" fill="#493445" transform="matrix(1.00, 0.00, -0.00, -1.00, 576.5, 491.0)"> </text><text xml:space="preserve" font-family="Helvetica-Light" font-size="30.0" fill="#493445" transform="matrix(1.00, 0.00, -0.00, -1.00, 584.8, 491.0)">e</text><text xml:space="preserve" font-family="Helvetica-Light" font-size="30.0" fill="#493445" transform="matrix(1.00, 0.00, -0.00, -1.00, 601.5, 491.0)">m</text><text xml:space="preserve" font-family="Helvetica-Light" font-size="30.0" fill="#493445" transform="matrix(1.00, 0.00, -0.00, -1.00, 626.5, 491.0)">a</text><text xml:space="preserve" font-family="Helvetica-Light" font-size="30.0" fill="#493445" transform="matrix(1.00, 0.00, -0.00, -1.00, 643.1, 491.0)">i</text><text xml:space="preserve" font-family="Helvetica-Light" font-size="30.0" fill="#493445" transform="matrix(1.00, 0.00, -0.00, -1.00, 649.8, 491.0)">l</text><text xml:space="preserve" font-family="Helvetica-Light" font-size="30.0" fill="#493445" transform="matrix(1.00, 0.00, -0.00, -1.00, 656.5, 491.0)"> </text><text xml:space="preserve" font-family="Helvetica-Light" font-size="30.0" fill="#493445" transform="matrix(1.00, 0.00, -0.00, -1.00, 664.8, 491.0)">e</text><text xml:space="preserve" font-family="Helvetica-Light" font-size="30.0" fill="#493445" transform="matrix(1.00, 0.00, -0.00, -1.00, 681.5, 491.0)"> </text><text xml:space="preserve" font-family="Helvetica-Light" font-size="30.0" fill="#493445" transform="matrix(1.00, 0.00, -0.00, -1.00, 689.8, 491.0)">s</text><text xml:space="preserve" font-family="Helvetica-Light" font-size="30.0" fill="#493445" transform="matrix(1.00, 0.00, -0.00, -1.00, 704.8, 491.0)">e</text><text xml:space="preserve" font-family="Helvetica-Light" font-size="30.0" fill="#493445" transform="matrix(1.00, 0.00, -0.00, -1.00, 721.5, 491.0)">n</text><text xml:space="preserve" font-family="Helvetica-Light" font-size="30.0" fill="#493445" transform="matrix(1.00, 0.00, -0.00, -1.00, 738.2, 491.0)">h</text><text xml:space="preserve" font-family="Helvetica-Light" font-size="30.0" fill="#493445" transform="matrix(1.00, 0.00, -0.00, -1.00, 754.9, 491.0)">a</text><text xml:space="preserve" font-family="Helvetica-Light" font-size="30.0" fill="#493445" transform="matrix(1.00, 0.00, -0.00, -1.00, 771.5, 491.0)"> </text><text xml:space="preserve" font-family="Helvetica-Light" font-size="21.6" fill="#493445" transform="matrix(1.00, 0.00, -0.00, -1.00, 163.3, 440.0)">•</text><text xml:space="preserve" font-family="Helvetica-Light" font-size="30.0" fill="#493445" transform="matrix(1.00, 0.00, -0.00, -1.00, 198.0, 437.0)">U</text><text xml:space="preserve" font-family="Helvetica-Light" font-size="30.0" fill="#493445" transform="matrix(1.00, 0.00, -0.00, -1.00, 219.7, 437.0)">s</text><text xml:space="preserve" font-family="Helvetica-Light" font-size="30.0" fill="#493445" transform="matrix(1.00, 0.00, -0.00, -1.00, 234.7, 437.0)">u</text><text xml:space="preserve" font-family="Helvetica-Light" font-size="30.0" fill="#493445" transform="matrix(1.00, 0.00, -0.00, -1.00, 251.3, 437.0)">á</text><text xml:space="preserve" font-family="Helvetica-Light" font-size="30.0" fill="#493445" transform="matrix(1.00, 0.00, -0.00, -1.00, 268.0, 437.0)">r</text><text xml:space="preserve" font-family="Helvetica-Light" font-size="30.0" fill="#493445" transform="matrix(1.00, 0.00, -0.00, -1.00, 278.0, 437.0)">i</text><text xml:space="preserve" font-family="Helvetica-Light" font-size="30.0" fill="#493445" transform="matrix(1.00, 0.00, -0.00, -1.00, 284.7, 437.0)">o</text><text xml:space="preserve" font-family="Helvetica-Light" font-size="30.0" fill="#493445" transform="matrix(1.00, 0.00, -0.00, -1.00, 301.4, 437.0)"> </text><text xml:space="preserve" font-family="Helvetica-Light" font-size="30.0" fill="#493445" transform="matrix(1.00, 0.00, -0.00, -1.00, 309.7, 437.0)">d</text><text xml:space="preserve" font-family="Helvetica-Light" font-size="30.0" fill="#493445" transform="matrix(1.00, 0.00, -0.00, -1.00, 328.0, 437.0)">e</text><text xml:space="preserve" font-family="Helvetica-Light" font-size="30.0" fill="#493445" transform="matrix(1.00, 0.00, -0.00, -1.00, 344.7, 437.0)">v</text><text xml:space="preserve" font-family="Helvetica-Light" font-size="30.0" fill="#493445" transform="matrix(1.00, 0.00, -0.00, -1.00, 359.7, 437.0)">e</text><text xml:space="preserve" font-family="Helvetica-Light" font-size="30.0" fill="#493445" transform="matrix(1.00, 0.00, -0.00, -1.00, 376.4, 437.0)"> </text><text xml:space="preserve" font-family="Helvetica-Light" font-size="30.0" fill="#493445" transform="matrix(1.00, 0.00, -0.00, -1.00, 384.7, 437.0)">p</text><text xml:space="preserve" font-family="Helvetica-Light" font-size="30.0" fill="#493445" transform="matrix(1.00, 0.00, -0.00, -1.00, 403.1, 437.0)">o</text><text xml:space="preserve" font-family="Helvetica-Light" font-size="30.0" fill="#493445" transform="matrix(1.00, 0.00, -0.00, -1.00, 419.7, 437.0)">d</text><text xml:space="preserve" font-family="Helvetica-Light" font-size="30.0" fill="#493445" transform="matrix(1.00, 0.00, -0.00, -1.00, 438.1, 437.0)">e</text><text xml:space="preserve" font-family="Helvetica-Light" font-size="30.0" fill="#493445" transform="matrix(1.00, 0.00, -0.00, -1.00, 454.7, 437.0)">r</text><text xml:space="preserve" font-family="Helvetica-Light" font-size="30.0" fill="#493445" transform="matrix(1.00, 0.00, -0.00, -1.00, 464.7, 437.0)"> </text><text xml:space="preserve" font-family="Helvetica-Light" font-size="30.0" fill="#493445" transform="matrix(1.00, 0.00, -0.00, -1.00, 473.1, 437.0)">c</text><text xml:space="preserve" font-family="Helvetica-Light" font-size="30.0" fill="#493445" transform="matrix(1.00, 0.00, -0.00, -1.00, 489.8, 437.0)">o</text><text xml:space="preserve" font-family="Helvetica-Light" font-size="30.0" fill="#493445" transform="matrix(1.00, 0.00, -0.00, -1.00, 506.4, 437.0)">n</text><text xml:space="preserve" font-family="Helvetica-Light" font-size="30.0" fill="#493445" transform="matrix(1.00, 0.00, -0.00, -1.00, 523.1, 437.0)">t</text><text xml:space="preserve" font-family="Helvetica-Light" font-size="30.0" fill="#493445" transform="matrix(1.00, 0.00, -0.00, -1.00, 531.5, 437.0)">i</text><text xml:space="preserve" font-family="Helvetica-Light" font-size="30.0" fill="#493445" transform="matrix(1.00, 0.00, -0.00, -1.00, 538.1, 437.0)">n</text><text xml:space="preserve" font-family="Helvetica-Light" font-size="30.0" fill="#493445" transform="matrix(1.00, 0.00, -0.00, -1.00, 554.8, 437.0)">u</text><text xml:space="preserve" font-family="Helvetica-Light" font-size="30.0" fill="#493445" transform="matrix(1.00, 0.00, -0.00, -1.00, 571.5, 437.0)">a</text><text xml:space="preserve" font-family="Helvetica-Light" font-size="30.0" fill="#493445" transform="matrix(1.00, 0.00, -0.00, -1.00, 588.2, 437.0)">r</text><text xml:space="preserve" font-family="Helvetica-Light" font-size="30.0" fill="#493445" transform="matrix(1.00, 0.00, -0.00, -1.00, 598.1, 437.0)"> </text><text xml:space="preserve" font-family="Helvetica-Light" font-size="30.0" fill="#493445" transform="matrix(1.00, 0.00, -0.00, -1.00, 606.5, 437.0)">l</text><text xml:space="preserve" font-family="Helvetica-Light" font-size="30.0" fill="#493445" transform="matrix(1.00, 0.00, -0.00, -1.00, 613.1, 437.0)">o</text><text xml:space="preserve" font-family="Helvetica-Light" font-size="30.0" fill="#493445" transform="matrix(1.00, 0.00, -0.00, -1.00, 629.8, 437.0)">g</text><text xml:space="preserve" font-family="Helvetica-Light" font-size="30.0" fill="#493445" transform="matrix(1.00, 0.00, -0.00, -1.00, 648.2, 437.0)">a</text><text xml:space="preserve" font-family="Helvetica-Light" font-size="30.0" fill="#493445" transform="matrix(1.00, 0.00, -0.00, -1.00, 664.8, 437.0)">d</text><text xml:space="preserve" font-family="Helvetica-Light" font-size="30.0" fill="#493445" transform="matrix(1.00, 0.00, -0.00, -1.00, 683.2, 437.0)">o</text><text xml:space="preserve" font-family="Helvetica-Light" font-size="30.0" fill="#493445" transform="matrix(1.00, 0.00, -0.00, -1.00, 699.8, 437.0)"> </text><text xml:space="preserve" font-family="Helvetica-Light" font-size="21.6" fill="#493445" transform="matrix(1.00, 0.00, -0.00, -1.00, 163.3, 386.0)">•</text><text xml:space="preserve" font-family="Helvetica-Light" font-size="30.0" fill="#493445" transform="matrix(1.00, 0.00, -0.00, -1.00, 198.0, 383.0)">O</text><text xml:space="preserve" font-family="Helvetica-Light" font-size="30.0" fill="#493445" transform="matrix(1.00, 0.00, -0.00, -1.00, 221.3, 383.0)"> </text><text xml:space="preserve" font-family="Helvetica-Light" font-size="30.0" fill="#493445" transform="matrix(1.00, 0.00, -0.00, -1.00, 229.7, 383.0)">u</text><text xml:space="preserve" font-family="Helvetica-Light" font-size="30.0" fill="#493445" transform="matrix(1.00, 0.00, -0.00, -1.00, 246.4, 383.0)">s</text><text xml:space="preserve" font-family="Helvetica-Light" font-size="30.0" fill="#493445" transform="matrix(1.00, 0.00, -0.00, -1.00, 261.4, 383.0)">u</text><text xml:space="preserve" font-family="Helvetica-Light" font-size="30.0" fill="#493445" transform="matrix(1.00, 0.00, -0.00, -1.00, 278.0, 383.0)">á</text><text xml:space="preserve" font-family="Helvetica-Light" font-size="30.0" fill="#493445" transform="matrix(1.00, 0.00, -0.00, -1.00, 294.7, 383.0)">r</text><text xml:space="preserve" font-family="Helvetica-Light" font-size="30.0" fill="#493445" transform="matrix(1.00, 0.00, -0.00, -1.00, 304.7, 383.0)">i</text><text xml:space="preserve" font-family="Helvetica-Light" font-size="30.0" fill="#493445" transform="matrix(1.00, 0.00, -0.00, -1.00, 311.4, 383.0)">o</text><text xml:space="preserve" font-family="Helvetica-Light" font-size="30.0" fill="#493445" transform="matrix(1.00, 0.00, -0.00, -1.00, 328.0, 383.0)"> </text><text xml:space="preserve" font-family="Helvetica-Light" font-size="30.0" fill="#493445" transform="matrix(1.00, 0.00, -0.00, -1.00, 336.4, 383.0)">d</text><text xml:space="preserve" font-family="Helvetica-Light" font-size="30.0" fill="#493445" transform="matrix(1.00, 0.00, -0.00, -1.00, 354.7, 383.0)">e</text><text xml:space="preserve" font-family="Helvetica-Light" font-size="30.0" fill="#493445" transform="matrix(1.00, 0.00, -0.00, -1.00, 371.4, 383.0)">v</text><text xml:space="preserve" font-family="Helvetica-Light" font-size="30.0" fill="#493445" transform="matrix(1.00, 0.00, -0.00, -1.00, 386.4, 383.0)">e</text><text xml:space="preserve" font-family="Helvetica-Light" font-size="30.0" fill="#493445" transform="matrix(1.00, 0.00, -0.00, -1.00, 403.1, 383.0)"> </text><text xml:space="preserve" font-family="Helvetica-Light" font-size="30.0" fill="#493445" transform="matrix(1.00, 0.00, -0.00, -1.00, 411.4, 383.0)">t</text><text xml:space="preserve" font-family="Helvetica-Light" font-size="30.0" fill="#493445" transform="matrix(1.00, 0.00, -0.00, -1.00, 419.8, 383.0)">e</text><text xml:space="preserve" font-family="Helvetica-Light" font-size="30.0" fill="#493445" transform="matrix(1.00, 0.00, -0.00, -1.00, 436.4, 383.0)">r</text><text xml:space="preserve" font-family="Helvetica-Light" font-size="30.0" fill="#493445" transform="matrix(1.00, 0.00, -0.00, -1.00, 446.4, 383.0)"> </text><text xml:space="preserve" font-family="Helvetica-Light" font-size="30.0" fill="#493445" transform="matrix(1.00, 0.00, -0.00, -1.00, 454.8, 383.0)">u</text><text xml:space="preserve" font-family="Helvetica-Light" font-size="30.0" fill="#493445" transform="matrix(1.00, 0.00, -0.00, -1.00, 471.4, 383.0)">m</text><text xml:space="preserve" font-family="Helvetica-Light" font-size="30.0" fill="#493445" transform="matrix(1.00, 0.00, -0.00, -1.00, 496.4, 383.0)"> </text><text xml:space="preserve" font-family="Helvetica-Light" font-size="30.0" fill="#493445" transform="matrix(1.00, 0.00, -0.00, -1.00, 504.8, 383.0)">m</text><text xml:space="preserve" font-family="Helvetica-Light" font-size="30.0" fill="#493445" transform="matrix(1.00, 0.00, -0.00, -1.00, 529.8, 383.0)">e</text><text xml:space="preserve" font-family="Helvetica-Light" font-size="30.0" fill="#493445" transform="matrix(1.00, 0.00, -0.00, -1.00, 546.5, 383.0)">i</text><text xml:space="preserve" font-family="Helvetica-Light" font-size="30.0" fill="#493445" transform="matrix(1.00, 0.00, -0.00, -1.00, 553.1, 383.0)">o</text><text xml:space="preserve" font-family="Helvetica-Light" font-size="30.0" fill="#493445" transform="matrix(1.00, 0.00, -0.00, -1.00, 569.8, 383.0)"> </text><text xml:space="preserve" font-family="Helvetica-Light" font-size="30.0" fill="#493445" transform="matrix(1.00, 0.00, -0.00, -1.00, 578.1, 383.0)">d</text><text xml:space="preserve" font-family="Helvetica-Light" font-size="30.0" fill="#493445" transform="matrix(1.00, 0.00, -0.00, -1.00, 596.5, 383.0)">e</text><text xml:space="preserve" font-family="Helvetica-Light" font-size="30.0" fill="#493445" transform="matrix(1.00, 0.00, -0.00, -1.00, 613.1, 383.0)"> </text><text xml:space="preserve" font-family="Helvetica-Light" font-size="30.0" fill="#493445" transform="matrix(1.00, 0.00, -0.00, -1.00, 621.5, 383.0)">p</text><text xml:space="preserve" font-family="Helvetica-Light" font-size="30.0" fill="#493445" transform="matrix(1.00, 0.00, -0.00, -1.00, 639.8, 383.0)">e</text><text xml:space="preserve" font-family="Helvetica-Light" font-size="30.0" fill="#493445" transform="matrix(1.00, 0.00, -0.00, -1.00, 656.5, 383.0)">d</text><text xml:space="preserve" font-family="Helvetica-Light" font-size="30.0" fill="#493445" transform="matrix(1.00, 0.00, -0.00, -1.00, 674.8, 383.0)">i</text><text xml:space="preserve" font-family="Helvetica-Light" font-size="30.0" fill="#493445" transform="matrix(1.00, 0.00, -0.00, -1.00, 681.5, 383.0)">r</text><text xml:space="preserve" font-family="Helvetica-Light" font-size="30.0" fill="#493445" transform="matrix(1.00, 0.00, -0.00, -1.00, 691.5, 383.0)"> </text><text xml:space="preserve" font-family="Helvetica-Light" font-size="30.0" fill="#493445" transform="matrix(1.00, 0.00, -0.00, -1.00, 699.8, 383.0)">u</text><text xml:space="preserve" font-family="Helvetica-Light" font-size="30.0" fill="#493445" transform="matrix(1.00, 0.00, -0.00, -1.00, 716.5, 383.0)">m</text><text xml:space="preserve" font-family="Helvetica-Light" font-size="30.0" fill="#493445" transform="matrix(1.00, 0.00, -0.00, -1.00, 741.5, 383.0)">a</text><text xml:space="preserve" font-family="Helvetica-Light" font-size="30.0" fill="#493445" transform="matrix(1.00, 0.00, -0.00, -1.00, 758.2, 383.0)"> </text><text xml:space="preserve" font-family="Helvetica-Light" font-size="30.0" fill="#493445" transform="matrix(1.00, 0.00, -0.00, -1.00, 766.5, 383.0)">n</text><text xml:space="preserve" font-family="Helvetica-Light" font-size="30.0" fill="#493445" transform="matrix(1.00, 0.00, -0.00, -1.00, 783.2, 383.0)">o</text><text xml:space="preserve" font-family="Helvetica-Light" font-size="30.0" fill="#493445" transform="matrix(1.00, 0.00, -0.00, -1.00, 799.9, 383.0)">v</text><text xml:space="preserve" font-family="Helvetica-Light" font-size="30.0" fill="#493445" transform="matrix(1.00, 0.00, -0.00, -1.00, 814.9, 383.0)">a</text><text xml:space="preserve" font-family="Helvetica-Light" font-size="30.0" fill="#493445" transform="matrix(1.00, 0.00, -0.00, -1.00, 831.5, 383.0)"> </text><text xml:space="preserve" font-family="Helvetica-Light" font-size="30.0" fill="#493445" transform="matrix(1.00, 0.00, -0.00, -1.00, 839.9, 383.0)">s</text><text xml:space="preserve" font-family="Helvetica-Light" font-size="30.0" fill="#493445" transform="matrix(1.00, 0.00, -0.00, -1.00, 854.9, 383.0)">e</text><text xml:space="preserve" font-family="Helvetica-Light" font-size="30.0" fill="#493445" transform="matrix(1.00, 0.00, -0.00, -1.00, 871.6, 383.0)">n</text><text xml:space="preserve" font-family="Helvetica-Light" font-size="30.0" fill="#493445" transform="matrix(1.00, 0.00, -0.00, -1.00, 888.2, 383.0)">h</text><text xml:space="preserve" font-family="Helvetica-Light" font-size="30.0" fill="#493445" transform="matrix(1.00, 0.00, -0.00, -1.00, 904.9, 383.0)">a</text><g><clipPath id="clip-1108"><path d="M 0.0 667.0 L 620.0 667.0 L 620.0 768.0 L 0.0 768.0 Z M 0.0 667.0 "></path></clipPath><g clip-path="url(#clip-1108)"><text xml:space="preserve" font-family="SourceSansPro-Regular" font-size="24.0" fill="#5C4658" transform="matrix(1.00, 0.00, -0.00, -1.00, 130.0, 709.0)">C</text><text xml:space="preserve" font-family="SourceSansPro-Regular" font-size="24.0" fill="#5C4658" transform="matrix(1.00, 0.00, -0.00, -1.00, 143.7, 709.0)">r</text><text xml:space="preserve" font-family="SourceSansPro-Regular" font-size="24.0" fill="#5C4658" transform="matrix(1.00, 0.00, -0.00, -1.00, 152.0, 709.0)">i</text><text xml:space="preserve" font-family="SourceSansPro-Regular" font-size="24.0" fill="#5C4658" transform="matrix(1.00, 0.00, -0.00, -1.00, 157.9, 709.0)">a</text><text xml:space="preserve" font-family="SourceSansPro-Regular" font-size="24.0" fill="#5C4658" transform="matrix(1.00, 0.00, -0.00, -1.00, 170.2, 709.0)">n</text><text xml:space="preserve" font-family="SourceSansPro-Regular" font-size="24.0" fill="#5C4658" transform="matrix(1.00, 0.00, -0.00, -1.00, 183.4, 709.0)">d</text><text xml:space="preserve" font-family="SourceSansPro-Regular" font-size="24.0" fill="#5C4658" transform="matrix(1.00, 0.00, -0.00, -1.00, 196.7, 709.0)">o</text><text xml:space="preserve" font-family="SourceSansPro-Regular" font-size="24.0" fill="#5C4658" transform="matrix(1.00, 0.00, -0.00, -1.00, 209.7, 709.0)"> </text><text xml:space="preserve" font-family="SourceSansPro-Regular" font-size="24.0" fill="#5C4658" transform="matrix(1.00, 0.00, -0.00, -1.00, 214.5, 709.0)">m</text><text xml:space="preserve" font-family="SourceSansPro-Regular" font-size="24.0" fill="#5C4658" transform="matrix(1.00, 0.00, -0.00, -1.00, 234.4, 709.0)">i</text><text xml:space="preserve" font-family="SourceSansPro-Regular" font-size="24.0" fill="#5C4658" transform="matrix(1.00, 0.00, -0.00, -1.00, 240.3, 709.0)">c</text><text xml:space="preserve" font-family="SourceSansPro-Regular" font-size="24.0" fill="#5C4658" transform="matrix(1.00, 0.00, -0.00, -1.00, 251.3, 709.0)">r</text><text xml:space="preserve" font-family="SourceSansPro-Regular" font-size="24.0" fill="#5C4658" transform="matrix(1.00, 0.00, -0.00, -1.00, 259.6, 709.0)">o</text><text xml:space="preserve" font-family="SourceSansPro-Regular" font-size="24.0" fill="#5C4658" transform="matrix(1.00, 0.00, -0.00, -1.00, 272.6, 709.0)">i</text><text xml:space="preserve" font-family="SourceSansPro-Regular" font-size="24.0" fill="#5C4658" transform="matrix(1.00, 0.00, -0.00, -1.00, 278.5, 709.0)">n</text><text xml:space="preserve" font-family="SourceSansPro-Regular" font-size="24.0" fill="#5C4658" transform="matrix(1.00, 0.00, -0.00, -1.00, 291.6, 709.0)">t</text><text xml:space="preserve" font-family="SourceSansPro-Regular" font-size="24.0" fill="#5C4658" transform="matrix(1.00, 0.00, -0.00, -1.00, 299.8, 709.0)">e</text><text xml:space="preserve" font-family="SourceSansPro-Regular" font-size="24.0" fill="#5C4658" transform="matrix(1.00, 0.00, -0.00, -1.00, 311.7, 709.0)">r</text><text xml:space="preserve" font-family="SourceSansPro-Regular" font-size="24.0" fill="#5C4658" transform="matrix(1.00, 0.00, -0.00, -1.00, 320.0, 709.0)">a</text><text xml:space="preserve" font-family="SourceSansPro-Regular" font-size="24.0" fill="#5C4658" transform="matrix(1.00, 0.00, -0.00, -1.00, 332.3, 709.0)">ç</text><text xml:space="preserve" font-family="SourceSansPro-Regular" font-size="24.0" fill="#5C4658" transform="matrix(1.00, 0.00, -0.00, -1.00, 343.2, 709.0)">õ</text><text xml:space="preserve" font-family="SourceSansPro-Regular" font-size="24.0" fill="#5C4658" transform="matrix(1.00, 0.00, -0.00, -1.00, 356.2, 709.0)">e</text><text xml:space="preserve" font-family="SourceSansPro-Regular" font-size="24.0" fill="#5C4658" transform="matrix(1.00, 0.00, -0.00, -1.00, 368.1, 709.0)">s</text><text xml:space="preserve" font-family="SourceSansPro-Regular" font-size="24.0" fill="#5C4658" transform="matrix(1.00, 0.00, -0.00, -1.00, 378.2, 709.0)"> </text><text xml:space="preserve" font-family="SourceSansPro-Regular" font-size="24.0" fill="#5C4658" transform="matrix(1.00, 0.00, -0.00, -1.00, 383.0, 709.0)">c</text><text xml:space="preserve" font-family="SourceSansPro-Regular" font-size="24.0" fill="#5C4658" transform="matrix(1.00, 0.00, -0.00, -1.00, 394.0, 709.0)">o</text><text xml:space="preserve" font-family="SourceSansPro-Regular" font-size="24.0" fill="#5C4658" transform="matrix(1.00, 0.00, -0.00, -1.00, 407.0, 709.0)">m</text><text xml:space="preserve" font-family="SourceSansPro-Regular" font-size="24.0" fill="#5C4658" transform="matrix(1.00, 0.00, -0.00, -1.00, 426.9, 709.0)"> </text><text xml:space="preserve" font-family="SourceSansPro-Regular" font-size="24.0" fill="#5C4658" transform="matrix(1.00, 0.00, -0.00, -1.00, 431.7, 709.0)">J</text><text xml:space="preserve" font-family="SourceSansPro-Regular" font-size="24.0" fill="#5C4658" transform="matrix(1.00, 0.00, -0.00, -1.00, 443.2, 709.0)">a</text><text xml:space="preserve" font-family="SourceSansPro-Regular" font-size="24.0" fill="#5C4658" transform="matrix(1.00, 0.00, -0.00, -1.00, 455.5, 709.0)">v</text><text xml:space="preserve" font-family="SourceSansPro-Regular" font-size="24.0" fill="#5C4658" transform="matrix(1.00, 0.00, -0.00, -1.00, 466.7, 709.0)">a</text><text xml:space="preserve" font-family="SourceSansPro-Regular" font-size="24.0" fill="#5C4658" transform="matrix(1.00, 0.00, -0.00, -1.00, 479.0, 709.0)">S</text><text xml:space="preserve" font-family="SourceSansPro-Regular" font-size="24.0" fill="#5C4658" transform="matrix(1.00, 0.00, -0.00, -1.00, 491.8, 709.0)">c</text><text xml:space="preserve" font-family="SourceSansPro-Regular" font-size="24.0" fill="#5C4658" transform="matrix(1.00, 0.00, -0.00, -1.00, 502.8, 709.0)">r</text><text xml:space="preserve" font-family="SourceSansPro-Regular" font-size="24.0" fill="#5C4658" transform="matrix(1.00, 0.00, -0.00, -1.00, 511.1, 709.0)">i</text><text xml:space="preserve" font-family="SourceSansPro-Regular" font-size="24.0" fill="#5C4658" transform="matrix(1.00, 0.00, -0.00, -1.00, 517.0, 709.0)">p</text><text xml:space="preserve" font-family="SourceSansPro-Regular" font-size="24.0" fill="#5C4658" transform="matrix(1.00, 0.00, -0.00, -1.00, 530.3, 709.0)">t</text><text xml:space="preserve" font-family="SourceSansPro-Regular" font-size="24.0" fill="#5C4658" transform="matrix(1.00, 0.00, -0.00, -1.00, 538.5, 709.0)"> </text><text xml:space="preserve" font-family="SourceSansPro-Regular" font-size="24.0" fill="#5C4658" transform="matrix(1.00, 0.00, -0.00, -1.00, 543.3, 709.0)">s</text><text xml:space="preserve" font-family="SourceSansPro-Regular" font-size="24.0" fill="#5C4658" transform="matrix(1.00, 0.00, -0.00, -1.00, 553.4, 709.0)">i</text><text xml:space="preserve" font-family="SourceSansPro-Regular" font-size="24.0" fill="#5C4658" transform="matrix(1.00, 0.00, -0.00, -1.00, 559.3, 709.0)">m</text><text xml:space="preserve" font-family="SourceSansPro-Regular" font-size="24.0" fill="#5C4658" transform="matrix(1.00, 0.00, -0.00, -1.00, 579.2, 709.0)">p</text><text xml:space="preserve" font-family="SourceSansPro-Regular" font-size="24.0" fill="#5C4658" transform="matrix(1.00, 0.00, -0.00, -1.00, 592.5, 709.0)">l</text><text xml:space="preserve" font-family="SourceSansPro-Regular" font-size="24.0" fill="#5C4658" transform="matrix(1.00, 0.00, -0.00, -1.00, 598.6, 709.0)">e</text><text xml:space="preserve" font-family="SourceSansPro-Regular" font-size="24.0" fill="#5C4658" transform="matrix(1.00, 0.00, -0.00, -1.00, 610.5, 709.0)">s</text></g></g><g><clipPath id="clip-1109"><path d="M 0.0 767.9 L 100.0 767.9 L 100.0 667.9 L 0.0 667.9 L 0.0 767.9 Z M 0.0 767.9 "></path></clipPath><g clip-path="url(#clip-1109)"><g><clipPath id="clip-1110"><path d="M 0.0 667.0 L 620.0 667.0 L 620.0 768.0 L 0.0 768.0 Z M 0.0 667.0 "></path></clipPath><g clip-path="url(#clip-1110)"><path d="M -5.0 772.9 L 105.0 772.9 L 105.0 662.9 L -5.0 662.9 Z M -5.0 772.9 " fill="#2B8DFF"></path></g></g></g></g><g><clipPath id="clip-1111"><path d="M 0.0 667.0 L 620.0 667.0 L 620.0 768.0 L 0.0 768.0 Z M 0.0 667.0 "></path></clipPath><g clip-path="url(#clip-1111)"><text xml:space="preserve" font-family="HelveticaNeue-Bold" font-weight="bold" font-size="30.8" fill="#FEFFFF" transform="matrix(1.00, 0.00, -0.00, -1.00, 14.4, 706.5)">F</text><text xml:space="preserve" font-family="HelveticaNeue-Bold" font-weight="bold" font-size="30.8" fill="#FEFFFF" transform="matrix(1.00, 0.00, -0.00, -1.00, 30.9, 706.5)">r</text><text xml:space="preserve" font-family="HelveticaNeue-Bold" font-weight="bold" font-size="30.8" fill="#FEFFFF" transform="matrix(1.00, 0.00, -0.00, -1.00, 40.6, 706.5)">o</text><text xml:space="preserve" font-family="HelveticaNeue-Bold" font-weight="bold" font-size="30.8" fill="#FEFFFF" transform="matrix(1.00, 0.00, -0.00, -1.00, 57.7, 706.5)">n</text><text xml:space="preserve" font-family="HelveticaNeue-Bold" font-weight="bold" font-size="30.8" fill="#FEFFFF" transform="matrix(1.00, 0.00, -0.00, -1.00, 74.2, 706.5)">t</text><text xml:space="preserve" font-family="HelveticaNeue-Bold" font-weight="bold" font-size="30.8" fill="#FEFFFF" transform="matrix(1.00, 0.00, -0.00, -1.00, 83.4, 706.5)"> </text></g></g></g></svg>